<ttFont>
<head>
    <!-- Most of this table will be recalculated by the compiler -->
    <tableVersion value="1.0"/>
    <fontRevision value="2.538"/>
    <checkSumAdjustment value="0xe8ee02de"/>
    <magicNumber value="0x5f0f3cf5"/>
    <flags value="00000000 00001111"/>
    <unitsPerEm value="1000"/>
    <created value="Thu May 18 16:20:23 2017"/>
    <modified value="Thu May 18 10:50:29 2017"/>
    <xMin value="-597"/>
    <yMin value="-575"/>
    <xMax value="1319"/>
    <yMax value="977"/>
    <macStyle value="00000000 00000000"/>
    <lowestRecPPEM value="9"/>
    <fontDirectionHint value="2"/>
    <indexToLocFormat value="1"/>
    <glyphDataFormat value="0"/>
  </head>
    <TTGlyph name=".notdef" xMin="0" yMin="0" xMax="506" yMax="699">
      <contour>
        <pt x="0" y="699" on="1"/>
        <pt x="506" y="699" on="1"/>
        <pt x="506" y="0" on="1"/>
        <pt x="0" y="0" on="1"/>
      </contour>
      <contour>
        <pt x="415" y="645" on="1"/>
        <pt x="91" y="645" on="1"/>
        <pt x="253" y="402" on="1"/>
      </contour>
      <contour>
        <pt x="447" y="112" on="1"/>
        <pt x="447" y="588" on="1"/>
        <pt x="288" y="350" on="1"/>
      </contour>
      <contour>
        <pt x="415" y="54" on="1"/>
        <pt x="253" y="297" on="1"/>
        <pt x="91" y="54" on="1"/>
      </contour>
      <contour>
        <pt x="59" y="112" on="1"/>
        <pt x="218" y="350" on="1"/>
        <pt x="59" y="588" on="1"/>
      </contour>
    </TTGlyph>
    <TTGlyph name="A" xMin="3" yMin="0" xMax="598" yMax="630">
      <contour>
        <pt x="203" y="247" on="1"/>
        <pt x="394" y="247" on="1"/>
        <pt x="357" y="349" on="1"/>
        <pt x="349" y="370" on="0"/>
        <pt x="335" y="409" on="0"/>
        <pt x="321" y="447" on="0"/>
        <pt x="308" y="487" on="0"/>
        <pt x="301" y="511" on="1"/>
        <pt x="299" y="511" on="1"/>
        <pt x="284" y="467" on="0"/>
        <pt x="258" y="392" on="0"/>
        <pt x="241" y="348" on="1"/>
      </contour>
      <contour>
        <pt x="251" y="630" on="1"/>
        <pt x="353" y="630" on="1"/>
        <pt x="598" y="0" on="1"/>
        <pt x="486" y="0" on="1"/>
        <pt x="423" y="165" on="1"/>
        <pt x="176" y="165" on="1"/>
        <pt x="114" y="0" on="1"/>
        <pt x="3" y="0" on="1"/>
      </contour>
    </TTGlyph>
    <TTGlyph name="AE" xMin="5" yMin="0" xMax="762" yMax="630">
      <contour>
        <pt x="327" y="630" on="1"/>
        <pt x="759" y="630" on="1"/>
        <pt x="759" y="544" on="1"/>
        <pt x="498" y="544" on="1"/>
        <pt x="498" y="370" on="1"/>
        <pt x="733" y="370" on="1"/>
        <pt x="733" y="285" on="1"/>
        <pt x="498" y="285" on="1"/>
        <pt x="498" y="86" on="1"/>
        <pt x="762" y="86" on="1"/>
        <pt x="762" y="0" on="1"/>
        <pt x="394" y="0" on="1"/>
        <pt x="394" y="166" on="1"/>
        <pt x="210" y="166" on="1"/>
        <pt x="129" y="0" on="1"/>
        <pt x="5" y="0" on="1"/>
      </contour>
      <contour>
        <pt x="394" y="551" on="1"/>
        <pt x="245" y="247" on="1"/>
        <pt x="394" y="247" on="1"/>
      </contour>
    </TTGlyph>
    <TTGlyph name="AEacute" xMin="5" yMin="0" xMax="762" yMax="829">
      <contour>
        <pt x="327" y="630" on="1"/>
        <pt x="759" y="630" on="1"/>
        <pt x="759" y="544" on="1"/>
        <pt x="498" y="544" on="1"/>
        <pt x="498" y="370" on="1"/>
        <pt x="733" y="370" on="1"/>
        <pt x="733" y="285" on="1"/>
        <pt x="498" y="285" on="1"/>
        <pt x="498" y="86" on="1"/>
        <pt x="762" y="86" on="1"/>
        <pt x="762" y="0" on="1"/>
        <pt x="394" y="0" on="1"/>
        <pt x="394" y="166" on="1"/>
        <pt x="210" y="166" on="1"/>
        <pt x="129" y="0" on="1"/>
        <pt x="5" y="0" on="1"/>
      </contour>
      <contour>
        <pt x="394" y="551" on="1"/>
        <pt x="245" y="247" on="1"/>
        <pt x="394" y="247" on="1"/>
      </contour>
      <contour>
        <pt x="443" y="705" on="1"/>
        <pt x="358" y="705" on="1"/>
        <pt x="438" y="829" on="1"/>
        <pt x="555" y="829" on="1"/>
      </contour>
    </TTGlyph>
    <TTGlyph name="Aacute" xMin="3" yMin="0" xMax="598" yMax="829">
      <contour>
        <pt x="340" y="705" on="1"/>
        <pt x="255" y="705" on="1"/>
        <pt x="335" y="829" on="1"/>
        <pt x="452" y="829" on="1"/>
      </contour>
      <contour>
        <pt x="203" y="247" on="1"/>
        <pt x="394" y="247" on="1"/>
        <pt x="357" y="349" on="1"/>
        <pt x="340" y="391" on="0"/>
        <pt x="315" y="464" on="0"/>
        <pt x="301" y="511" on="1"/>
        <pt x="299" y="511" on="1"/>
        <pt x="284" y="467" on="0"/>
        <pt x="258" y="392" on="0"/>
        <pt x="241" y="348" on="1"/>
      </contour>
      <contour>
        <pt x="251" y="630" on="1"/>
        <pt x="353" y="630" on="1"/>
        <pt x="598" y="0" on="1"/>
        <pt x="486" y="0" on="1"/>
        <pt x="423" y="165" on="1"/>
        <pt x="176" y="165" on="1"/>
        <pt x="114" y="0" on="1"/>
        <pt x="3" y="0" on="1"/>
      </contour>
    </TTGlyph>
    <TTGlyph name="Abreve" xMin="3" yMin="0" xMax="598" yMax="829">
      <contour>
        <pt x="233" y="829" on="1"/>
        <pt x="236" y="799" on="0"/>
        <pt x="262" y="764" on="0"/>
        <pt x="300" y="764" on="1"/>
        <pt x="361" y="764" on="0"/>
        <pt x="367" y="829" on="1"/>
        <pt x="434" y="829" on="1"/>
        <pt x="434" y="773" on="0"/>
        <pt x="365" y="704" on="0"/>
        <pt x="300" y="704" on="1"/>
        <pt x="264" y="704" on="0"/>
        <pt x="213" y="725" on="0"/>
        <pt x="180" y="760" on="0"/>
        <pt x="165" y="805" on="0"/>
        <pt x="165" y="829" on="1"/>
      </contour>
      <contour>
        <pt x="203" y="247" on="1"/>
        <pt x="394" y="247" on="1"/>
        <pt x="357" y="349" on="1"/>
        <pt x="340" y="391" on="0"/>
        <pt x="315" y="464" on="0"/>
        <pt x="301" y="511" on="1"/>
        <pt x="299" y="511" on="1"/>
        <pt x="284" y="467" on="0"/>
        <pt x="258" y="392" on="0"/>
        <pt x="241" y="348" on="1"/>
      </contour>
      <contour>
        <pt x="251" y="630" on="1"/>
        <pt x="353" y="630" on="1"/>
        <pt x="598" y="0" on="1"/>
        <pt x="486" y="0" on="1"/>
        <pt x="423" y="165" on="1"/>
        <pt x="176" y="165" on="1"/>
        <pt x="114" y="0" on="1"/>
        <pt x="3" y="0" on="1"/>
      </contour>
    </TTGlyph>
    <TTGlyph name="Acircumflex" xMin="3" yMin="0" xMax="598" yMax="836">
      <contour>
        <pt x="261" y="836" on="1"/>
        <pt x="340" y="836" on="1"/>
        <pt x="462" y="705" on="1"/>
        <pt x="375" y="705" on="1"/>
        <pt x="300" y="784" on="1"/>
        <pt x="225" y="705" on="1"/>
        <pt x="141" y="705" on="1"/>
      </contour>
      <contour>
        <pt x="203" y="247" on="1"/>
        <pt x="394" y="247" on="1"/>
        <pt x="357" y="349" on="1"/>
        <pt x="340" y="391" on="0"/>
        <pt x="315" y="464" on="0"/>
        <pt x="301" y="511" on="1"/>
        <pt x="299" y="511" on="1"/>
        <pt x="284" y="467" on="0"/>
        <pt x="258" y="392" on="0"/>
        <pt x="241" y="348" on="1"/>
      </contour>
      <contour>
        <pt x="251" y="630" on="1"/>
        <pt x="353" y="630" on="1"/>
        <pt x="598" y="0" on="1"/>
        <pt x="486" y="0" on="1"/>
        <pt x="423" y="165" on="1"/>
        <pt x="176" y="165" on="1"/>
        <pt x="114" y="0" on="1"/>
        <pt x="3" y="0" on="1"/>
      </contour>
    </TTGlyph>
    <TTGlyph name="Addak.gm" xMin="-294" yMin="637" xMax="34" yMax="808">
      <contour>
        <pt x="-131" y="637" on="1"/>
        <pt x="-161" y="637" on="0"/>
        <pt x="-219" y="655" on="0"/>
        <pt x="-266" y="694" on="0"/>
        <pt x="-294" y="754" on="0"/>
        <pt x="-294" y="796" on="1"/>
        <pt x="-294" y="808" on="1"/>
        <pt x="-229" y="808" on="1"/>
        <pt x="-224" y="756" on="0"/>
        <pt x="-170" y="708" on="0"/>
        <pt x="-129" y="708" on="1"/>
        <pt x="-110" y="708" on="0"/>
        <pt x="-76" y="720" on="0"/>
        <pt x="-49" y="745" on="0"/>
        <pt x="-32" y="782" on="0"/>
        <pt x="-31" y="808" on="1"/>
        <pt x="34" y="808" on="1"/>
        <pt x="34" y="795" on="1"/>
        <pt x="34" y="754" on="0"/>
        <pt x="7" y="695" on="0"/>
        <pt x="-38" y="656" on="0"/>
        <pt x="-98" y="637" on="0"/>
      </contour>
    </TTGlyph>
    <TTGlyph name="Addak.gm.alt" xMin="-412" yMin="657" xMax="-159" yMax="781">
      <contour>
        <pt x="-288" y="657" on="1"/>
        <pt x="-340" y="657" on="0"/>
        <pt x="-412" y="715" on="0"/>
        <pt x="-412" y="769" on="1"/>
        <pt x="-412" y="778" on="1"/>
        <pt x="-348" y="781" on="1"/>
        <pt x="-347" y="743" on="0"/>
        <pt x="-311" y="713" on="0"/>
        <pt x="-286" y="713" on="1"/>
        <pt x="-259" y="713" on="0"/>
        <pt x="-222" y="746" on="0"/>
        <pt x="-221" y="781" on="1"/>
        <pt x="-159" y="778" on="1"/>
        <pt x="-159" y="768" on="1"/>
        <pt x="-159" y="714" on="0"/>
        <pt x="-231" y="657" on="0"/>
      </contour>
    </TTGlyph>
    <TTGlyph name="AddakBindi.gm" xMin="-297" yMin="637" xMax="37" yMax="860">
      <contour>
        <pt x="-181" y="809" on="1"/>
        <pt x="-181" y="831" on="0"/>
        <pt x="-153" y="860" on="0"/>
        <pt x="-130" y="860" on="1"/>
        <pt x="-107" y="860" on="0"/>
        <pt x="-77" y="831" on="0"/>
        <pt x="-77" y="809" on="1"/>
        <pt x="-77" y="787" on="0"/>
        <pt x="-107" y="757" on="0"/>
        <pt x="-130" y="757" on="1"/>
        <pt x="-153" y="757" on="0"/>
        <pt x="-181" y="787" on="0"/>
      </contour>
      <contour>
        <pt x="-131" y="637" on="1"/>
        <pt x="-162" y="637" on="0"/>
        <pt x="-221" y="655" on="0"/>
        <pt x="-268" y="694" on="0"/>
        <pt x="-297" y="754" on="0"/>
        <pt x="-297" y="796" on="1"/>
        <pt x="-297" y="808" on="1"/>
        <pt x="-232" y="808" on="1"/>
        <pt x="-227" y="757" on="0"/>
        <pt x="-171" y="708" on="0"/>
        <pt x="-129" y="708" on="1"/>
        <pt x="-90" y="708" on="0"/>
        <pt x="-31" y="757" on="0"/>
        <pt x="-28" y="808" on="1"/>
        <pt x="37" y="808" on="1"/>
        <pt x="37" y="795" on="1"/>
        <pt x="37" y="754" on="0"/>
        <pt x="10" y="695" on="0"/>
        <pt x="-36" y="656" on="0"/>
        <pt x="-97" y="637" on="0"/>
      </contour>
    </TTGlyph>
    <TTGlyph name="AddakBindi.gm.alt" xMin="-412" yMin="657" xMax="-159" yMax="823">
      <contour>
        <pt x="-325" y="781" on="1"/>
        <pt x="-325" y="799" on="0"/>
        <pt x="-302" y="823" on="0"/>
        <pt x="-285" y="823" on="1"/>
        <pt x="-268" y="823" on="0"/>
        <pt x="-245" y="799" on="0"/>
        <pt x="-245" y="781" on="1"/>
        <pt x="-245" y="764" on="0"/>
        <pt x="-266" y="739" on="0"/>
        <pt x="-285" y="739" on="1"/>
        <pt x="-303" y="739" on="0"/>
        <pt x="-325" y="764" on="0"/>
      </contour>
      <contour>
        <pt x="-288" y="657" on="1"/>
        <pt x="-340" y="657" on="0"/>
        <pt x="-412" y="715" on="0"/>
        <pt x="-412" y="769" on="1"/>
        <pt x="-412" y="778" on="1"/>
        <pt x="-353" y="781" on="1"/>
        <pt x="-351" y="742" on="0"/>
        <pt x="-312" y="709" on="0"/>
        <pt x="-286" y="709" on="1"/>
        <pt x="-257" y="709" on="0"/>
        <pt x="-217" y="744" on="0"/>
        <pt x="-217" y="781" on="1"/>
        <pt x="-159" y="778" on="1"/>
        <pt x="-159" y="768" on="1"/>
        <pt x="-159" y="714" on="0"/>
        <pt x="-231" y="657" on="0"/>
      </contour>
    </TTGlyph>
    <TTGlyph name="AddhaMa.gm" xMin="7" yMin="0" xMax="467" yMax="582">
      <contour>
        <pt x="7" y="303" on="1"/>
        <pt x="277" y="303" on="1"/>
        <pt x="277" y="582" on="1"/>
        <pt x="467" y="582" on="1"/>
        <pt x="467" y="510" on="1"/>
        <pt x="366" y="510" on="1"/>
        <pt x="366" y="0" on="1"/>
        <pt x="277" y="0" on="1"/>
        <pt x="277" y="229" on="1"/>
        <pt x="7" y="229" on="1"/>
      </contour>
    </TTGlyph>
    <TTGlyph name="AddhaTha.gm" xMin="-30" yMin="0" xMax="495" yMax="582">
      <contour>
        <pt x="-30" y="582" on="1"/>
        <pt x="495" y="582" on="1"/>
        <pt x="495" y="510" on="1"/>
        <pt x="395" y="510" on="1"/>
        <pt x="395" y="0" on="1"/>
        <pt x="306" y="0" on="1"/>
        <pt x="306" y="125" on="1"/>
        <pt x="281" y="111" on="0"/>
        <pt x="214" y="94" on="0"/>
        <pt x="168" y="94" on="1"/>
        <pt x="115" y="94" on="0"/>
        <pt x="21" y="124" on="0"/>
        <pt x="-9" y="149" on="1"/>
        <pt x="40" y="212" on="1"/>
        <pt x="63" y="192" on="0"/>
        <pt x="129" y="168" on="0"/>
        <pt x="171" y="168" on="1"/>
        <pt x="216" y="168" on="0"/>
        <pt x="283" y="191" on="0"/>
        <pt x="306" y="211" on="1"/>
        <pt x="306" y="510" on="1"/>
        <pt x="-30" y="510" on="1"/>
      </contour>
    </TTGlyph>
    <TTGlyph name="AddhaYa.gm" xMin="-30" yMin="0" xMax="614" yMax="582">
      <contour>
        <pt x="-30" y="582" on="1"/>
        <pt x="614" y="582" on="1"/>
        <pt x="614" y="510" on="1"/>
        <pt x="513" y="510" on="1"/>
        <pt x="513" y="0" on="1"/>
        <pt x="424" y="0" on="1"/>
        <pt x="424" y="297" on="1"/>
        <pt x="289" y="297" on="1"/>
        <pt x="289" y="92" on="1"/>
        <pt x="269" y="85" on="0"/>
        <pt x="221" y="77" on="0"/>
        <pt x="190" y="77" on="1"/>
        <pt x="137" y="77" on="0"/>
        <pt x="29" y="108" on="0"/>
        <pt x="-9" y="143" on="1"/>
        <pt x="40" y="205" on="1"/>
        <pt x="69" y="180" on="0"/>
        <pt x="143" y="150" on="0"/>
        <pt x="190" y="150" on="1"/>
        <pt x="200" y="150" on="1"/>
        <pt x="200" y="371" on="1"/>
        <pt x="424" y="371" on="1"/>
        <pt x="424" y="510" on="1"/>
        <pt x="-30" y="510" on="1"/>
      </contour>
    </TTGlyph>
    <TTGlyph name="Adieresis" xMin="3" yMin="0" xMax="598" yMax="811">
      <contour>
        <pt x="158" y="758" on="1"/>
        <pt x="158" y="779" on="0"/>
        <pt x="189" y="811" on="0"/>
        <pt x="212" y="811" on="1"/>
        <pt x="235" y="811" on="0"/>
        <pt x="266" y="779" on="0"/>
        <pt x="266" y="758" on="1"/>
        <pt x="266" y="735" on="0"/>
        <pt x="235" y="702" on="0"/>
        <pt x="212" y="702" on="1"/>
        <pt x="189" y="702" on="0"/>
        <pt x="158" y="735" on="0"/>
      </contour>
      <contour>
        <pt x="333" y="758" on="1"/>
        <pt x="333" y="779" on="0"/>
        <pt x="365" y="811" on="0"/>
        <pt x="388" y="811" on="1"/>
        <pt x="411" y="811" on="0"/>
        <pt x="442" y="779" on="0"/>
        <pt x="442" y="758" on="1"/>
        <pt x="442" y="735" on="0"/>
        <pt x="411" y="702" on="0"/>
        <pt x="388" y="702" on="1"/>
        <pt x="365" y="702" on="0"/>
        <pt x="333" y="735" on="0"/>
      </contour>
      <contour>
        <pt x="203" y="247" on="1"/>
        <pt x="394" y="247" on="1"/>
        <pt x="357" y="349" on="1"/>
        <pt x="340" y="391" on="0"/>
        <pt x="315" y="464" on="0"/>
        <pt x="301" y="511" on="1"/>
        <pt x="299" y="511" on="1"/>
        <pt x="284" y="467" on="0"/>
        <pt x="258" y="392" on="0"/>
        <pt x="241" y="348" on="1"/>
      </contour>
      <contour>
        <pt x="251" y="630" on="1"/>
        <pt x="353" y="630" on="1"/>
        <pt x="598" y="0" on="1"/>
        <pt x="486" y="0" on="1"/>
        <pt x="423" y="165" on="1"/>
        <pt x="176" y="165" on="1"/>
        <pt x="114" y="0" on="1"/>
        <pt x="3" y="0" on="1"/>
      </contour>
    </TTGlyph>
    <TTGlyph name="Agrave" xMin="3" yMin="0" xMax="598" yMax="829">
      <contour>
        <pt x="150" y="829" on="1"/>
        <pt x="267" y="829" on="1"/>
        <pt x="347" y="705" on="1"/>
        <pt x="262" y="705" on="1"/>
      </contour>
      <contour>
        <pt x="203" y="247" on="1"/>
        <pt x="394" y="247" on="1"/>
        <pt x="357" y="349" on="1"/>
        <pt x="340" y="391" on="0"/>
        <pt x="315" y="464" on="0"/>
        <pt x="301" y="511" on="1"/>
        <pt x="299" y="511" on="1"/>
        <pt x="284" y="467" on="0"/>
        <pt x="258" y="392" on="0"/>
        <pt x="241" y="348" on="1"/>
      </contour>
      <contour>
        <pt x="251" y="630" on="1"/>
        <pt x="353" y="630" on="1"/>
        <pt x="598" y="0" on="1"/>
        <pt x="486" y="0" on="1"/>
        <pt x="423" y="165" on="1"/>
        <pt x="176" y="165" on="1"/>
        <pt x="114" y="0" on="1"/>
        <pt x="3" y="0" on="1"/>
      </contour>
    </TTGlyph>
    <TTGlyph name="Amacron" xMin="3" yMin="0" xMax="598" yMax="772">
      <contour>
        <pt x="423" y="772" on="1"/>
        <pt x="423" y="705" on="1"/>
        <pt x="174" y="705" on="1"/>
        <pt x="174" y="772" on="1"/>
      </contour>
      <contour>
        <pt x="203" y="247" on="1"/>
        <pt x="394" y="247" on="1"/>
        <pt x="357" y="349" on="1"/>
        <pt x="340" y="391" on="0"/>
        <pt x="315" y="464" on="0"/>
        <pt x="301" y="511" on="1"/>
        <pt x="299" y="511" on="1"/>
        <pt x="284" y="467" on="0"/>
        <pt x="258" y="392" on="0"/>
        <pt x="241" y="348" on="1"/>
      </contour>
      <contour>
        <pt x="251" y="630" on="1"/>
        <pt x="353" y="630" on="1"/>
        <pt x="598" y="0" on="1"/>
        <pt x="486" y="0" on="1"/>
        <pt x="423" y="165" on="1"/>
        <pt x="176" y="165" on="1"/>
        <pt x="114" y="0" on="1"/>
        <pt x="3" y="0" on="1"/>
      </contour>
    </TTGlyph>
    <TTGlyph name="Aogonek" xMin="3" yMin="-206" xMax="607" yMax="630">
      <contour>
        <pt x="251" y="630" on="1"/>
        <pt x="353" y="630" on="1"/>
        <pt x="598" y="0" on="1"/>
        <pt x="576" y="0" on="1"/>
        <pt x="533" y="-20" on="0"/>
        <pt x="493" y="-65" on="0"/>
        <pt x="493" y="-89" on="1"/>
        <pt x="493" y="-112" on="0"/>
        <pt x="522" y="-139" on="0"/>
        <pt x="545" y="-139" on="1"/>
        <pt x="559" y="-139" on="0"/>
        <pt x="583" y="-134" on="0"/>
        <pt x="592" y="-131" on="1"/>
        <pt x="607" y="-185" on="1"/>
        <pt x="572" y="-206" on="0"/>
        <pt x="525" y="-206" on="1"/>
        <pt x="479" y="-206" on="0"/>
        <pt x="418" y="-155" on="0"/>
        <pt x="418" y="-108" on="1"/>
        <pt x="418" y="-70" on="0"/>
        <pt x="459" y="-17" on="0"/>
        <pt x="486" y="0" on="1"/>
        <pt x="423" y="165" on="1"/>
        <pt x="176" y="165" on="1"/>
        <pt x="114" y="0" on="1"/>
        <pt x="3" y="0" on="1"/>
      </contour>
      <contour>
        <pt x="203" y="247" on="1"/>
        <pt x="394" y="247" on="1"/>
        <pt x="357" y="349" on="1"/>
        <pt x="340" y="391" on="0"/>
        <pt x="315" y="464" on="0"/>
        <pt x="301" y="511" on="1"/>
        <pt x="299" y="511" on="1"/>
        <pt x="284" y="467" on="0"/>
        <pt x="258" y="392" on="0"/>
        <pt x="241" y="348" on="1"/>
      </contour>
    </TTGlyph>
    <TTGlyph name="Aring" xMin="3" yMin="0" xMax="598" yMax="846">
      <contour>
        <pt x="201" y="761" on="1"/>
        <pt x="201" y="805" on="0"/>
        <pt x="258" y="846" on="0"/>
        <pt x="300" y="846" on="1"/>
        <pt x="344" y="846" on="0"/>
        <pt x="400" y="806" on="0"/>
        <pt x="400" y="761" on="1"/>
        <pt x="400" y="716" on="0"/>
        <pt x="340" y="675" on="0"/>
        <pt x="300" y="675" on="1"/>
        <pt x="260" y="675" on="0"/>
        <pt x="201" y="718" on="0"/>
      </contour>
      <contour>
        <pt x="255" y="761" on="1"/>
        <pt x="255" y="738" on="0"/>
        <pt x="278" y="712" on="0"/>
        <pt x="300" y="712" on="1"/>
        <pt x="322" y="712" on="0"/>
        <pt x="346" y="738" on="0"/>
        <pt x="346" y="761" on="1"/>
        <pt x="346" y="783" on="0"/>
        <pt x="321" y="809" on="0"/>
        <pt x="300" y="809" on="1"/>
        <pt x="279" y="809" on="0"/>
        <pt x="255" y="783" on="0"/>
      </contour>
      <contour>
        <pt x="203" y="247" on="1"/>
        <pt x="394" y="247" on="1"/>
        <pt x="357" y="349" on="1"/>
        <pt x="340" y="391" on="0"/>
        <pt x="315" y="464" on="0"/>
        <pt x="301" y="511" on="1"/>
        <pt x="299" y="511" on="1"/>
        <pt x="284" y="467" on="0"/>
        <pt x="258" y="392" on="0"/>
        <pt x="241" y="348" on="1"/>
      </contour>
      <contour>
        <pt x="251" y="630" on="1"/>
        <pt x="353" y="630" on="1"/>
        <pt x="598" y="0" on="1"/>
        <pt x="486" y="0" on="1"/>
        <pt x="423" y="165" on="1"/>
        <pt x="176" y="165" on="1"/>
        <pt x="114" y="0" on="1"/>
        <pt x="3" y="0" on="1"/>
      </contour>
    </TTGlyph>
    <TTGlyph name="Asmall" xMin="5" yMin="0" xMax="477" yMax="472">
      <contour>
        <pt x="176" y="191" on="1"/>
        <pt x="305" y="191" on="1"/>
        <pt x="278" y="265" on="1"/>
        <pt x="268" y="291" on="0"/>
        <pt x="249" y="346" on="0"/>
        <pt x="242" y="369" on="1"/>
        <pt x="240" y="369" on="1"/>
        <pt x="233" y="346" on="0"/>
        <pt x="213" y="291" on="0"/>
        <pt x="203" y="265" on="1"/>
      </contour>
      <contour>
        <pt x="189" y="472" on="1"/>
        <pt x="291" y="472" on="1"/>
        <pt x="477" y="0" on="1"/>
        <pt x="372" y="0" on="1"/>
        <pt x="330" y="116" on="1"/>
        <pt x="150" y="116" on="1"/>
        <pt x="106" y="0" on="1"/>
        <pt x="5" y="0" on="1"/>
      </contour>
    </TTGlyph>
    <TTGlyph name="Atilde" xMin="3" yMin="0" xMax="598" yMax="821">
      <contour>
        <pt x="146" y="705" on="1"/>
        <pt x="146" y="752" on="0"/>
        <pt x="189" y="818" on="0"/>
        <pt x="234" y="818" on="1"/>
        <pt x="254" y="818" on="0"/>
        <pt x="286" y="805" on="0"/>
        <pt x="315" y="789" on="0"/>
        <pt x="342" y="776" on="0"/>
        <pt x="357" y="776" on="1"/>
        <pt x="376" y="776" on="0"/>
        <pt x="392" y="804" on="0"/>
        <pt x="394" y="821" on="1"/>
        <pt x="449" y="821" on="1"/>
        <pt x="449" y="798" on="0"/>
        <pt x="438" y="758" on="0"/>
        <pt x="417" y="726" on="0"/>
        <pt x="386" y="708" on="0"/>
        <pt x="365" y="708" on="1"/>
        <pt x="344" y="708" on="0"/>
        <pt x="308" y="721" on="0"/>
        <pt x="277" y="736" on="0"/>
        <pt x="250" y="749" on="0"/>
        <pt x="238" y="749" on="1"/>
        <pt x="218" y="749" on="0"/>
        <pt x="203" y="723" on="0"/>
        <pt x="201" y="705" on="1"/>
      </contour>
      <contour>
        <pt x="203" y="247" on="1"/>
        <pt x="394" y="247" on="1"/>
        <pt x="357" y="349" on="1"/>
        <pt x="340" y="391" on="0"/>
        <pt x="315" y="464" on="0"/>
        <pt x="301" y="511" on="1"/>
        <pt x="299" y="511" on="1"/>
        <pt x="284" y="467" on="0"/>
        <pt x="258" y="392" on="0"/>
        <pt x="241" y="348" on="1"/>
      </contour>
      <contour>
        <pt x="251" y="630" on="1"/>
        <pt x="353" y="630" on="1"/>
        <pt x="598" y="0" on="1"/>
        <pt x="486" y="0" on="1"/>
        <pt x="423" y="165" on="1"/>
        <pt x="176" y="165" on="1"/>
        <pt x="114" y="0" on="1"/>
        <pt x="3" y="0" on="1"/>
      </contour>
    </TTGlyph>
    <TTGlyph name="B" xMin="76" yMin="0" xMax="501" yMax="630">
      <contour>
        <pt x="277" y="630" on="1"/>
        <pt x="374" y="630" on="0"/>
        <pt x="482" y="547" on="0"/>
        <pt x="482" y="469" on="1"/>
        <pt x="482" y="440" on="0"/>
        <pt x="463" y="395" on="0"/>
        <pt x="432" y="362" on="0"/>
        <pt x="390" y="340" on="0"/>
        <pt x="367" y="334" on="1"/>
        <pt x="395" y="329" on="0"/>
        <pt x="444" y="304" on="0"/>
        <pt x="480" y="265" on="0"/>
        <pt x="501" y="211" on="0"/>
        <pt x="501" y="177" on="1"/>
        <pt x="501" y="138" on="0"/>
        <pt x="467" y="73" on="0"/>
        <pt x="406" y="26" on="0"/>
        <pt x="322" y="0" on="0"/>
        <pt x="271" y="0" on="1"/>
        <pt x="76" y="0" on="1"/>
        <pt x="76" y="630" on="1"/>
      </contour>
      <contour>
        <pt x="183" y="371" on="1"/>
        <pt x="255" y="371" on="1"/>
        <pt x="279" y="371" on="0"/>
        <pt x="322" y="379" on="0"/>
        <pt x="353" y="400" on="0"/>
        <pt x="372" y="435" on="0"/>
        <pt x="372" y="461" on="1"/>
        <pt x="372" y="505" on="0"/>
        <pt x="312" y="546" on="0"/>
        <pt x="261" y="546" on="1"/>
        <pt x="183" y="546" on="1"/>
      </contour>
      <contour>
        <pt x="183" y="84" on="1"/>
        <pt x="258" y="84" on="1"/>
        <pt x="285" y="84" on="0"/>
        <pt x="333" y="95" on="0"/>
        <pt x="369" y="119" on="0"/>
        <pt x="390" y="158" on="0"/>
        <pt x="390" y="187" on="1"/>
        <pt x="390" y="215" on="0"/>
        <pt x="366" y="254" on="0"/>
        <pt x="326" y="278" on="0"/>
        <pt x="274" y="288" on="0"/>
        <pt x="246" y="288" on="1"/>
        <pt x="183" y="288" on="1"/>
      </contour>
    </TTGlyph>
    <TTGlyph name="Ba.gm" xMin="-40" yMin="0" xMax="606" yMax="582">
      <contour>
        <pt x="416" y="99" on="1"/>
        <pt x="393" y="86" on="0"/>
        <pt x="330" y="70" on="0"/>
        <pt x="287" y="70" on="1"/>
        <pt x="252" y="70" on="0"/>
        <pt x="180" y="85" on="0"/>
        <pt x="113" y="116" on="0"/>
        <pt x="55" y="166" on="0"/>
        <pt x="34" y="202" on="1"/>
        <pt x="55" y="248" on="0"/>
        <pt x="129" y="319" on="0"/>
        <pt x="177" y="338" on="1"/>
        <pt x="129" y="361" on="0"/>
        <pt x="56" y="453" on="0"/>
        <pt x="45" y="510" on="1"/>
        <pt x="-40" y="510" on="1"/>
        <pt x="-40" y="582" on="1"/>
        <pt x="606" y="582" on="1"/>
        <pt x="606" y="510" on="1"/>
        <pt x="505" y="510" on="1"/>
        <pt x="505" y="0" on="1"/>
        <pt x="416" y="0" on="1"/>
      </contour>
      <contour>
        <pt x="293" y="144" on="1"/>
        <pt x="333" y="144" on="0"/>
        <pt x="394" y="164" on="0"/>
        <pt x="416" y="179" on="1"/>
        <pt x="416" y="300" on="1"/>
        <pt x="307" y="300" on="1"/>
        <pt x="247" y="300" on="0"/>
        <pt x="158" y="249" on="0"/>
        <pt x="133" y="209" on="1"/>
        <pt x="159" y="180" on="0"/>
        <pt x="239" y="144" on="0"/>
      </contour>
      <contour>
        <pt x="137" y="510" on="1"/>
        <pt x="144" y="484" on="0"/>
        <pt x="171" y="436" on="0"/>
        <pt x="210" y="398" on="0"/>
        <pt x="259" y="374" on="0"/>
        <pt x="287" y="373" on="1"/>
        <pt x="416" y="373" on="1"/>
        <pt x="416" y="510" on="1"/>
      </contour>
    </TTGlyph>
    <TTGlyph name="BaVirama.gm" xMin="-40" yMin="-285" xMax="679" yMax="582">
      <contour>
        <pt x="416" y="99" on="1"/>
        <pt x="393" y="86" on="0"/>
        <pt x="330" y="70" on="0"/>
        <pt x="287" y="70" on="1"/>
        <pt x="252" y="70" on="0"/>
        <pt x="180" y="85" on="0"/>
        <pt x="113" y="116" on="0"/>
        <pt x="55" y="166" on="0"/>
        <pt x="34" y="202" on="1"/>
        <pt x="55" y="248" on="0"/>
        <pt x="129" y="319" on="0"/>
        <pt x="177" y="338" on="1"/>
        <pt x="129" y="361" on="0"/>
        <pt x="56" y="453" on="0"/>
        <pt x="45" y="510" on="1"/>
        <pt x="-40" y="510" on="1"/>
        <pt x="-40" y="582" on="1"/>
        <pt x="606" y="582" on="1"/>
        <pt x="606" y="510" on="1"/>
        <pt x="505" y="510" on="1"/>
        <pt x="505" y="0" on="1"/>
        <pt x="416" y="0" on="1"/>
      </contour>
      <contour>
        <pt x="293" y="144" on="1"/>
        <pt x="333" y="144" on="0"/>
        <pt x="394" y="164" on="0"/>
        <pt x="416" y="179" on="1"/>
        <pt x="416" y="300" on="1"/>
        <pt x="307" y="300" on="1"/>
        <pt x="247" y="300" on="0"/>
        <pt x="158" y="249" on="0"/>
        <pt x="133" y="209" on="1"/>
        <pt x="159" y="180" on="0"/>
        <pt x="239" y="144" on="0"/>
      </contour>
      <contour>
        <pt x="137" y="510" on="1"/>
        <pt x="144" y="484" on="0"/>
        <pt x="171" y="436" on="0"/>
        <pt x="210" y="398" on="0"/>
        <pt x="259" y="374" on="0"/>
        <pt x="287" y="373" on="1"/>
        <pt x="416" y="373" on="1"/>
        <pt x="416" y="510" on="1"/>
      </contour>
      <contour>
        <pt x="679" y="-232" on="1"/>
        <pt x="634" y="-285" on="1"/>
        <pt x="414" y="-121" on="1"/>
        <pt x="466" y="-55" on="1"/>
      </contour>
    </TTGlyph>
    <TTGlyph name="Bha.gm" xMin="-20" yMin="-8" xMax="577" yMax="582">
      <contour>
        <pt x="-20" y="582" on="1"/>
        <pt x="577" y="582" on="1"/>
        <pt x="577" y="510" on="1"/>
        <pt x="499" y="510" on="1"/>
        <pt x="497" y="453" on="0"/>
        <pt x="465" y="355" on="0"/>
        <pt x="439" y="318" on="1"/>
        <pt x="464" y="293" on="0"/>
        <pt x="497" y="226" on="0"/>
        <pt x="497" y="186" on="1"/>
        <pt x="497" y="141" on="0"/>
        <pt x="458" y="69" on="0"/>
        <pt x="388" y="19" on="0"/>
        <pt x="291" y="-8" on="0"/>
        <pt x="233" y="-8" on="1"/>
        <pt x="167" y="-8" on="0"/>
        <pt x="61" y="19" on="0"/>
        <pt x="28" y="39" on="1"/>
        <pt x="60" y="106" on="1"/>
        <pt x="88" y="92" on="0"/>
        <pt x="174" y="65" on="0"/>
        <pt x="233" y="65" on="1"/>
        <pt x="275" y="65" on="0"/>
        <pt x="339" y="84" on="0"/>
        <pt x="382" y="118" on="0"/>
        <pt x="405" y="164" on="0"/>
        <pt x="405" y="191" on="1"/>
        <pt x="405" y="211" on="0"/>
        <pt x="394" y="245" on="0"/>
        <pt x="384" y="259" on="1"/>
        <pt x="353" y="227" on="0"/>
        <pt x="261" y="187" on="0"/>
        <pt x="204" y="187" on="1"/>
        <pt x="169" y="187" on="0"/>
        <pt x="109" y="202" on="0"/>
        <pt x="66" y="232" on="0"/>
        <pt x="42" y="275" on="0"/>
        <pt x="42" y="303" on="1"/>
        <pt x="42" y="330" on="0"/>
        <pt x="67" y="374" on="0"/>
        <pt x="111" y="404" on="0"/>
        <pt x="171" y="421" on="0"/>
        <pt x="207" y="421" on="1"/>
        <pt x="264" y="421" on="0"/>
        <pt x="351" y="383" on="0"/>
        <pt x="376" y="363" on="1"/>
        <pt x="393" y="396" on="0"/>
        <pt x="410" y="472" on="0"/>
        <pt x="411" y="510" on="1"/>
        <pt x="-20" y="510" on="1"/>
      </contour>
      <contour>
        <pt x="210" y="256" on="1"/>
        <pt x="251" y="256" on="0"/>
        <pt x="313" y="284" on="0"/>
        <pt x="336" y="310" on="1"/>
        <pt x="313" y="327" on="0"/>
        <pt x="252" y="352" on="0"/>
        <pt x="214" y="352" on="1"/>
        <pt x="173" y="352" on="0"/>
        <pt x="130" y="324" on="0"/>
        <pt x="130" y="303" on="1"/>
        <pt x="130" y="280" on="0"/>
        <pt x="172" y="256" on="0"/>
      </contour>
    </TTGlyph>
    <TTGlyph name="BhaVirama.gm" xMin="-21" yMin="-285" xMax="576" yMax="582">
      <contour>
        <pt x="-21" y="582" on="1"/>
        <pt x="576" y="582" on="1"/>
        <pt x="576" y="510" on="1"/>
        <pt x="498" y="510" on="1"/>
        <pt x="496" y="453" on="0"/>
        <pt x="464" y="355" on="0"/>
        <pt x="438" y="318" on="1"/>
        <pt x="463" y="293" on="0"/>
        <pt x="496" y="226" on="0"/>
        <pt x="496" y="186" on="1"/>
        <pt x="496" y="141" on="0"/>
        <pt x="457" y="69" on="0"/>
        <pt x="387" y="19" on="0"/>
        <pt x="290" y="-8" on="0"/>
        <pt x="232" y="-8" on="1"/>
        <pt x="166" y="-8" on="0"/>
        <pt x="60" y="19" on="0"/>
        <pt x="27" y="39" on="1"/>
        <pt x="59" y="106" on="1"/>
        <pt x="87" y="92" on="0"/>
        <pt x="173" y="65" on="0"/>
        <pt x="232" y="65" on="1"/>
        <pt x="274" y="65" on="0"/>
        <pt x="338" y="84" on="0"/>
        <pt x="381" y="118" on="0"/>
        <pt x="404" y="164" on="0"/>
        <pt x="404" y="191" on="1"/>
        <pt x="404" y="211" on="0"/>
        <pt x="393" y="245" on="0"/>
        <pt x="383" y="259" on="1"/>
        <pt x="352" y="227" on="0"/>
        <pt x="260" y="187" on="0"/>
        <pt x="203" y="187" on="1"/>
        <pt x="168" y="187" on="0"/>
        <pt x="108" y="202" on="0"/>
        <pt x="65" y="232" on="0"/>
        <pt x="41" y="275" on="0"/>
        <pt x="41" y="303" on="1"/>
        <pt x="41" y="330" on="0"/>
        <pt x="66" y="374" on="0"/>
        <pt x="110" y="404" on="0"/>
        <pt x="170" y="421" on="0"/>
        <pt x="206" y="421" on="1"/>
        <pt x="263" y="421" on="0"/>
        <pt x="350" y="383" on="0"/>
        <pt x="375" y="363" on="1"/>
        <pt x="392" y="396" on="0"/>
        <pt x="409" y="472" on="0"/>
        <pt x="410" y="510" on="1"/>
        <pt x="-21" y="510" on="1"/>
      </contour>
      <contour>
        <pt x="209" y="256" on="1"/>
        <pt x="250" y="256" on="0"/>
        <pt x="312" y="284" on="0"/>
        <pt x="335" y="310" on="1"/>
        <pt x="312" y="327" on="0"/>
        <pt x="251" y="352" on="0"/>
        <pt x="213" y="352" on="1"/>
        <pt x="172" y="352" on="0"/>
        <pt x="129" y="324" on="0"/>
        <pt x="129" y="303" on="1"/>
        <pt x="129" y="280" on="0"/>
        <pt x="171" y="256" on="0"/>
      </contour>
      <contour>
        <pt x="539" y="-232" on="1"/>
        <pt x="494" y="-285" on="1"/>
        <pt x="274" y="-121" on="1"/>
        <pt x="326" y="-55" on="1"/>
      </contour>
    </TTGlyph>
    <TTGlyph name="Bindi.gm" xMin="-188" yMin="660" xMax="-65" yMax="781">
      <contour>
        <pt x="-188" y="721" on="1"/>
        <pt x="-188" y="746" on="0"/>
        <pt x="-154" y="781" on="0"/>
        <pt x="-127" y="781" on="1"/>
        <pt x="-100" y="781" on="0"/>
        <pt x="-65" y="746" on="0"/>
        <pt x="-65" y="721" on="1"/>
        <pt x="-65" y="695" on="0"/>
        <pt x="-100" y="660" on="0"/>
        <pt x="-127" y="660" on="1"/>
        <pt x="-154" y="660" on="0"/>
        <pt x="-188" y="695" on="0"/>
      </contour>
    </TTGlyph>
    <TTGlyph name="Bindi.gm.alt" xMin="-183" yMin="671" xMax="-82" yMax="773">
      <contour>
        <pt x="-183" y="722" on="1"/>
        <pt x="-183" y="743" on="0"/>
        <pt x="-156" y="773" on="0"/>
        <pt x="-133" y="773" on="1"/>
        <pt x="-111" y="773" on="0"/>
        <pt x="-82" y="743" on="0"/>
        <pt x="-82" y="721" on="1"/>
        <pt x="-82" y="701" on="0"/>
        <pt x="-111" y="671" on="0"/>
        <pt x="-133" y="671" on="1"/>
        <pt x="-156" y="671" on="0"/>
        <pt x="-183" y="701" on="0"/>
      </contour>
    </TTGlyph>
    <TTGlyph name="Bsmall" xMin="74" yMin="0" xMax="439" yMax="472">
      <contour>
        <pt x="258" y="472" on="1"/>
        <pt x="339" y="472" on="0"/>
        <pt x="418" y="407" on="0"/>
        <pt x="418" y="354" on="1"/>
        <pt x="418" y="316" on="0"/>
        <pt x="373" y="265" on="0"/>
        <pt x="336" y="253" on="1"/>
        <pt x="386" y="241" on="0"/>
        <pt x="439" y="182" on="0"/>
        <pt x="439" y="135" on="1"/>
        <pt x="439" y="107" on="0"/>
        <pt x="416" y="58" on="0"/>
        <pt x="371" y="21" on="0"/>
        <pt x="302" y="0" on="0"/>
        <pt x="257" y="0" on="1"/>
        <pt x="74" y="0" on="1"/>
        <pt x="74" y="472" on="1"/>
      </contour>
      <contour>
        <pt x="176" y="283" on="1"/>
        <pt x="237" y="283" on="1"/>
        <pt x="269" y="283" on="0"/>
        <pt x="313" y="308" on="0"/>
        <pt x="313" y="340" on="1"/>
        <pt x="313" y="366" on="0"/>
        <pt x="277" y="394" on="0"/>
        <pt x="235" y="394" on="1"/>
        <pt x="176" y="394" on="1"/>
      </contour>
      <contour>
        <pt x="176" y="78" on="1"/>
        <pt x="235" y="78" on="1"/>
        <pt x="282" y="78" on="0"/>
        <pt x="332" y="109" on="0"/>
        <pt x="332" y="144" on="1"/>
        <pt x="332" y="167" on="0"/>
        <pt x="297" y="207" on="0"/>
        <pt x="252" y="207" on="1"/>
        <pt x="176" y="207" on="1"/>
      </contour>
    </TTGlyph>
    <TTGlyph name="C" xMin="43" yMin="-10" xMax="531" yMax="640">
      <contour>
        <pt x="363" y="76" on="1"/>
        <pt x="412" y="76" on="0"/>
        <pt x="477" y="93" on="0"/>
        <pt x="506" y="107" on="1"/>
        <pt x="529" y="24" on="1"/>
        <pt x="497" y="9" on="0"/>
        <pt x="413" y="-10" on="0"/>
        <pt x="352" y="-10" on="1"/>
        <pt x="287" y="-10" on="0"/>
        <pt x="174" y="33" on="0"/>
        <pt x="91" y="116" on="0"/>
        <pt x="43" y="237" on="0"/>
        <pt x="43" y="315" on="1"/>
        <pt x="43" y="391" on="0"/>
        <pt x="89" y="512" on="0"/>
        <pt x="172" y="596" on="0"/>
        <pt x="287" y="640" on="0"/>
        <pt x="356" y="640" on="1"/>
        <pt x="419" y="640" on="0"/>
        <pt x="500" y="619" on="0"/>
        <pt x="531" y="602" on="1"/>
        <pt x="506" y="521" on="1"/>
        <pt x="472" y="536" on="0"/>
        <pt x="411" y="554" on="0"/>
        <pt x="369" y="554" on="1"/>
        <pt x="326" y="554" on="0"/>
        <pt x="249" y="528" on="0"/>
        <pt x="192" y="470" on="0"/>
        <pt x="158" y="379" on="0"/>
        <pt x="158" y="315" on="1"/>
        <pt x="158" y="251" on="0"/>
        <pt x="191" y="160" on="0"/>
        <pt x="246" y="103" on="0"/>
        <pt x="321" y="76" on="0"/>
      </contour>
    </TTGlyph>
    <TTGlyph name="Ca.gm" xMin="-20" yMin="-8" xMax="625" yMax="582">
      <contour>
        <pt x="-20" y="582" on="1"/>
        <pt x="625" y="582" on="1"/>
        <pt x="625" y="510" on="1"/>
        <pt x="520" y="510" on="1"/>
        <pt x="520" y="294" on="1"/>
        <pt x="534" y="271" on="0"/>
        <pt x="554" y="212" on="0"/>
        <pt x="554" y="180" on="1"/>
        <pt x="554" y="132" on="0"/>
        <pt x="520" y="61" on="0"/>
        <pt x="462" y="15" on="0"/>
        <pt x="386" y="-8" on="0"/>
        <pt x="343" y="-8" on="1"/>
        <pt x="293" y="-8" on="0"/>
        <pt x="203" y="25" on="0"/>
        <pt x="132" y="92" on="0"/>
        <pt x="88" y="196" on="0"/>
        <pt x="84" y="267" on="1"/>
        <pt x="57" y="271" on="0"/>
        <pt x="24" y="302" on="0"/>
        <pt x="24" y="328" on="1"/>
        <pt x="24" y="347" on="0"/>
        <pt x="40" y="381" on="0"/>
        <pt x="67" y="406" on="0"/>
        <pt x="105" y="420" on="0"/>
        <pt x="128" y="420" on="1"/>
        <pt x="142" y="420" on="0"/>
        <pt x="166" y="412" on="0"/>
        <pt x="174" y="406" on="1"/>
        <pt x="174" y="343" on="1"/>
        <pt x="432" y="343" on="1"/>
        <pt x="432" y="510" on="1"/>
        <pt x="-20" y="510" on="1"/>
      </contour>
      <contour>
        <pt x="465" y="181" on="1"/>
        <pt x="465" y="207" on="0"/>
        <pt x="451" y="252" on="0"/>
        <pt x="441" y="269" on="1"/>
        <pt x="172" y="269" on="1"/>
        <pt x="175" y="221" on="0"/>
        <pt x="202" y="145" on="0"/>
        <pt x="248" y="93" on="0"/>
        <pt x="308" y="66" on="0"/>
        <pt x="344" y="66" on="1"/>
        <pt x="398" y="66" on="0"/>
        <pt x="465" y="124" on="0"/>
      </contour>
    </TTGlyph>
    <TTGlyph name="CaVirama.gm" xMin="-20" yMin="-285" xMax="625" yMax="582">
      <contour>
        <pt x="-20" y="582" on="1"/>
        <pt x="625" y="582" on="1"/>
        <pt x="625" y="510" on="1"/>
        <pt x="520" y="510" on="1"/>
        <pt x="520" y="294" on="1"/>
        <pt x="534" y="271" on="0"/>
        <pt x="554" y="212" on="0"/>
        <pt x="554" y="180" on="1"/>
        <pt x="554" y="132" on="0"/>
        <pt x="520" y="61" on="0"/>
        <pt x="462" y="15" on="0"/>
        <pt x="386" y="-8" on="0"/>
        <pt x="343" y="-8" on="1"/>
        <pt x="293" y="-8" on="0"/>
        <pt x="203" y="25" on="0"/>
        <pt x="132" y="92" on="0"/>
        <pt x="88" y="196" on="0"/>
        <pt x="84" y="267" on="1"/>
        <pt x="57" y="271" on="0"/>
        <pt x="24" y="302" on="0"/>
        <pt x="24" y="328" on="1"/>
        <pt x="24" y="347" on="0"/>
        <pt x="40" y="381" on="0"/>
        <pt x="67" y="406" on="0"/>
        <pt x="105" y="420" on="0"/>
        <pt x="128" y="420" on="1"/>
        <pt x="142" y="420" on="0"/>
        <pt x="166" y="412" on="0"/>
        <pt x="174" y="406" on="1"/>
        <pt x="174" y="343" on="1"/>
        <pt x="432" y="343" on="1"/>
        <pt x="432" y="510" on="1"/>
        <pt x="-20" y="510" on="1"/>
      </contour>
      <contour>
        <pt x="465" y="181" on="1"/>
        <pt x="465" y="207" on="0"/>
        <pt x="451" y="252" on="0"/>
        <pt x="441" y="269" on="1"/>
        <pt x="172" y="269" on="1"/>
        <pt x="175" y="221" on="0"/>
        <pt x="202" y="145" on="0"/>
        <pt x="248" y="93" on="0"/>
        <pt x="308" y="66" on="0"/>
        <pt x="344" y="66" on="1"/>
        <pt x="398" y="66" on="0"/>
        <pt x="465" y="124" on="0"/>
      </contour>
      <contour>
        <pt x="561" y="-232" on="1"/>
        <pt x="516" y="-285" on="1"/>
        <pt x="296" y="-121" on="1"/>
        <pt x="348" y="-55" on="1"/>
      </contour>
    </TTGlyph>
    <TTGlyph name="Cacute" xMin="43" yMin="-10" xMax="531" yMax="829">
      <contour>
        <pt x="363" y="76" on="1"/>
        <pt x="412" y="76" on="0"/>
        <pt x="477" y="93" on="0"/>
        <pt x="506" y="107" on="1"/>
        <pt x="529" y="24" on="1"/>
        <pt x="497" y="9" on="0"/>
        <pt x="413" y="-10" on="0"/>
        <pt x="352" y="-10" on="1"/>
        <pt x="287" y="-10" on="0"/>
        <pt x="174" y="33" on="0"/>
        <pt x="91" y="116" on="0"/>
        <pt x="43" y="237" on="0"/>
        <pt x="43" y="315" on="1"/>
        <pt x="43" y="391" on="0"/>
        <pt x="89" y="512" on="0"/>
        <pt x="172" y="596" on="0"/>
        <pt x="287" y="640" on="0"/>
        <pt x="356" y="640" on="1"/>
        <pt x="419" y="640" on="0"/>
        <pt x="500" y="619" on="0"/>
        <pt x="531" y="602" on="1"/>
        <pt x="506" y="521" on="1"/>
        <pt x="472" y="536" on="0"/>
        <pt x="411" y="554" on="0"/>
        <pt x="369" y="554" on="1"/>
        <pt x="326" y="554" on="0"/>
        <pt x="249" y="528" on="0"/>
        <pt x="192" y="470" on="0"/>
        <pt x="158" y="379" on="0"/>
        <pt x="158" y="315" on="1"/>
        <pt x="158" y="251" on="0"/>
        <pt x="191" y="160" on="0"/>
        <pt x="246" y="103" on="0"/>
        <pt x="321" y="76" on="0"/>
      </contour>
      <contour>
        <pt x="334" y="705" on="1"/>
        <pt x="249" y="705" on="1"/>
        <pt x="329" y="829" on="1"/>
        <pt x="446" y="829" on="1"/>
      </contour>
    </TTGlyph>
    <TTGlyph name="Ccaron" xMin="43" yMin="-10" xMax="531" yMax="837">
      <contour>
        <pt x="363" y="76" on="1"/>
        <pt x="412" y="76" on="0"/>
        <pt x="477" y="93" on="0"/>
        <pt x="506" y="107" on="1"/>
        <pt x="529" y="24" on="1"/>
        <pt x="497" y="9" on="0"/>
        <pt x="413" y="-10" on="0"/>
        <pt x="352" y="-10" on="1"/>
        <pt x="287" y="-10" on="0"/>
        <pt x="174" y="33" on="0"/>
        <pt x="91" y="116" on="0"/>
        <pt x="43" y="237" on="0"/>
        <pt x="43" y="315" on="1"/>
        <pt x="43" y="391" on="0"/>
        <pt x="89" y="512" on="0"/>
        <pt x="172" y="596" on="0"/>
        <pt x="287" y="640" on="0"/>
        <pt x="356" y="640" on="1"/>
        <pt x="419" y="640" on="0"/>
        <pt x="500" y="619" on="0"/>
        <pt x="531" y="602" on="1"/>
        <pt x="506" y="521" on="1"/>
        <pt x="472" y="536" on="0"/>
        <pt x="411" y="554" on="0"/>
        <pt x="369" y="554" on="1"/>
        <pt x="326" y="554" on="0"/>
        <pt x="249" y="528" on="0"/>
        <pt x="192" y="470" on="0"/>
        <pt x="158" y="379" on="0"/>
        <pt x="158" y="315" on="1"/>
        <pt x="158" y="251" on="0"/>
        <pt x="191" y="160" on="0"/>
        <pt x="246" y="103" on="0"/>
        <pt x="321" y="76" on="0"/>
      </contour>
      <contour>
        <pt x="184" y="837" on="1"/>
        <pt x="271" y="837" on="1"/>
        <pt x="345" y="756" on="1"/>
        <pt x="419" y="837" on="1"/>
        <pt x="505" y="837" on="1"/>
        <pt x="383" y="706" on="1"/>
        <pt x="304" y="706" on="1"/>
      </contour>
    </TTGlyph>
    <TTGlyph name="Ccedilla" xMin="43" yMin="-214" xMax="531" yMax="640">
      <contour>
        <pt x="363" y="76" on="1"/>
        <pt x="412" y="76" on="0"/>
        <pt x="477" y="93" on="0"/>
        <pt x="506" y="107" on="1"/>
        <pt x="529" y="24" on="1"/>
        <pt x="498" y="10" on="0"/>
        <pt x="418" y="-8" on="0"/>
        <pt x="361" y="-10" on="1"/>
        <pt x="345" y="-47" on="1"/>
        <pt x="396" y="-49" on="0"/>
        <pt x="438" y="-97" on="0"/>
        <pt x="438" y="-126" on="1"/>
        <pt x="438" y="-169" on="0"/>
        <pt x="369" y="-214" on="0"/>
        <pt x="318" y="-214" on="1"/>
        <pt x="295" y="-214" on="0"/>
        <pt x="254" y="-207" on="0"/>
        <pt x="241" y="-202" on="1"/>
        <pt x="255" y="-155" on="1"/>
        <pt x="279" y="-164" on="0"/>
        <pt x="308" y="-164" on="1"/>
        <pt x="369" y="-164" on="0"/>
        <pt x="369" y="-125" on="1"/>
        <pt x="369" y="-116" on="0"/>
        <pt x="362" y="-99" on="0"/>
        <pt x="342" y="-86" on="0"/>
        <pt x="305" y="-78" on="0"/>
        <pt x="276" y="-78" on="1"/>
        <pt x="307" y="-7" on="1"/>
        <pt x="250" y="0" on="0"/>
        <pt x="153" y="49" on="0"/>
        <pt x="83" y="130" on="0"/>
        <pt x="43" y="244" on="0"/>
        <pt x="43" y="315" on="1"/>
        <pt x="43" y="391" on="0"/>
        <pt x="89" y="512" on="0"/>
        <pt x="172" y="596" on="0"/>
        <pt x="287" y="640" on="0"/>
        <pt x="356" y="640" on="1"/>
        <pt x="419" y="640" on="0"/>
        <pt x="500" y="619" on="0"/>
        <pt x="531" y="602" on="1"/>
        <pt x="506" y="521" on="1"/>
        <pt x="472" y="536" on="0"/>
        <pt x="411" y="554" on="0"/>
        <pt x="369" y="554" on="1"/>
        <pt x="326" y="554" on="0"/>
        <pt x="249" y="528" on="0"/>
        <pt x="192" y="470" on="0"/>
        <pt x="158" y="379" on="0"/>
        <pt x="158" y="315" on="1"/>
        <pt x="158" y="251" on="0"/>
        <pt x="191" y="160" on="0"/>
        <pt x="246" y="103" on="0"/>
        <pt x="321" y="76" on="0"/>
      </contour>
    </TTGlyph>
    <TTGlyph name="Ccircumflex" xMin="43" yMin="-10" xMax="531" yMax="836">
      <contour>
        <pt x="363" y="76" on="1"/>
        <pt x="412" y="76" on="0"/>
        <pt x="477" y="93" on="0"/>
        <pt x="506" y="107" on="1"/>
        <pt x="529" y="24" on="1"/>
        <pt x="497" y="9" on="0"/>
        <pt x="413" y="-10" on="0"/>
        <pt x="352" y="-10" on="1"/>
        <pt x="287" y="-10" on="0"/>
        <pt x="174" y="33" on="0"/>
        <pt x="91" y="116" on="0"/>
        <pt x="43" y="237" on="0"/>
        <pt x="43" y="315" on="1"/>
        <pt x="43" y="391" on="0"/>
        <pt x="89" y="512" on="0"/>
        <pt x="172" y="596" on="0"/>
        <pt x="287" y="640" on="0"/>
        <pt x="356" y="640" on="1"/>
        <pt x="419" y="640" on="0"/>
        <pt x="500" y="619" on="0"/>
        <pt x="531" y="602" on="1"/>
        <pt x="506" y="521" on="1"/>
        <pt x="472" y="536" on="0"/>
        <pt x="411" y="554" on="0"/>
        <pt x="369" y="554" on="1"/>
        <pt x="326" y="554" on="0"/>
        <pt x="249" y="528" on="0"/>
        <pt x="192" y="470" on="0"/>
        <pt x="158" y="379" on="0"/>
        <pt x="158" y="315" on="1"/>
        <pt x="158" y="251" on="0"/>
        <pt x="191" y="160" on="0"/>
        <pt x="246" y="103" on="0"/>
        <pt x="321" y="76" on="0"/>
      </contour>
      <contour>
        <pt x="297" y="836" on="1"/>
        <pt x="376" y="836" on="1"/>
        <pt x="498" y="705" on="1"/>
        <pt x="411" y="705" on="1"/>
        <pt x="336" y="784" on="1"/>
        <pt x="261" y="705" on="1"/>
        <pt x="177" y="705" on="1"/>
      </contour>
    </TTGlyph>
    <TTGlyph name="Cdotaccent" xMin="43" yMin="-10" xMax="531" yMax="820">
      <contour>
        <pt x="363" y="76" on="1"/>
        <pt x="412" y="76" on="0"/>
        <pt x="477" y="93" on="0"/>
        <pt x="506" y="107" on="1"/>
        <pt x="529" y="24" on="1"/>
        <pt x="497" y="9" on="0"/>
        <pt x="413" y="-10" on="0"/>
        <pt x="352" y="-10" on="1"/>
        <pt x="287" y="-10" on="0"/>
        <pt x="174" y="33" on="0"/>
        <pt x="91" y="116" on="0"/>
        <pt x="43" y="237" on="0"/>
        <pt x="43" y="315" on="1"/>
        <pt x="43" y="391" on="0"/>
        <pt x="89" y="512" on="0"/>
        <pt x="172" y="596" on="0"/>
        <pt x="287" y="640" on="0"/>
        <pt x="356" y="640" on="1"/>
        <pt x="419" y="640" on="0"/>
        <pt x="500" y="619" on="0"/>
        <pt x="531" y="602" on="1"/>
        <pt x="506" y="521" on="1"/>
        <pt x="472" y="536" on="0"/>
        <pt x="411" y="554" on="0"/>
        <pt x="369" y="554" on="1"/>
        <pt x="326" y="554" on="0"/>
        <pt x="249" y="528" on="0"/>
        <pt x="192" y="470" on="0"/>
        <pt x="158" y="379" on="0"/>
        <pt x="158" y="315" on="1"/>
        <pt x="158" y="251" on="0"/>
        <pt x="191" y="160" on="0"/>
        <pt x="246" y="103" on="0"/>
        <pt x="321" y="76" on="0"/>
      </contour>
      <contour>
        <pt x="293" y="762" on="1"/>
        <pt x="293" y="785" on="0"/>
        <pt x="329" y="820" on="0"/>
        <pt x="352" y="820" on="1"/>
        <pt x="377" y="820" on="0"/>
        <pt x="411" y="785" on="0"/>
        <pt x="411" y="762" on="1"/>
        <pt x="411" y="737" on="0"/>
        <pt x="377" y="702" on="0"/>
        <pt x="352" y="702" on="1"/>
        <pt x="329" y="702" on="0"/>
        <pt x="293" y="737" on="0"/>
      </contour>
    </TTGlyph>
    <TTGlyph name="Cha.gm" xMin="-20" yMin="0" xMax="603" yMax="582">
      <contour>
        <pt x="382" y="261" on="1"/>
        <pt x="460" y="261" on="0"/>
        <pt x="541" y="194" on="0"/>
        <pt x="541" y="132" on="1"/>
        <pt x="541" y="72" on="0"/>
        <pt x="459" y="0" on="0"/>
        <pt x="369" y="0" on="1"/>
        <pt x="232" y="0" on="1"/>
        <pt x="138" y="0" on="0"/>
        <pt x="47" y="69" on="0"/>
        <pt x="47" y="132" on="1"/>
        <pt x="47" y="163" on="0"/>
        <pt x="78" y="212" on="0"/>
        <pt x="103" y="225" on="1"/>
        <pt x="82" y="235" on="0"/>
        <pt x="47" y="278" on="0"/>
        <pt x="47" y="312" on="1"/>
        <pt x="47" y="365" on="0"/>
        <pt x="119" y="424" on="0"/>
        <pt x="180" y="424" on="1"/>
        <pt x="413" y="424" on="1"/>
        <pt x="413" y="510" on="1"/>
        <pt x="-20" y="510" on="1"/>
        <pt x="-20" y="582" on="1"/>
        <pt x="603" y="582" on="1"/>
        <pt x="603" y="510" on="1"/>
        <pt x="500" y="510" on="1"/>
        <pt x="500" y="352" on="1"/>
        <pt x="190" y="352" on="1"/>
        <pt x="164" y="352" on="0"/>
        <pt x="136" y="328" on="0"/>
        <pt x="136" y="307" on="1"/>
        <pt x="136" y="289" on="0"/>
        <pt x="165" y="261" on="0"/>
        <pt x="188" y="261" on="1"/>
      </contour>
      <contour>
        <pt x="282" y="69" on="1"/>
        <pt x="280" y="94" on="0"/>
        <pt x="268" y="140" on="0"/>
        <pt x="246" y="175" on="0"/>
        <pt x="214" y="195" on="0"/>
        <pt x="192" y="195" on="1"/>
        <pt x="169" y="195" on="0"/>
        <pt x="134" y="165" on="0"/>
        <pt x="134" y="137" on="1"/>
        <pt x="134" y="105" on="0"/>
        <pt x="181" y="69" on="0"/>
        <pt x="229" y="69" on="1"/>
      </contour>
      <contour>
        <pt x="302" y="193" on="1"/>
        <pt x="347" y="157" on="0"/>
        <pt x="350" y="70" on="1"/>
        <pt x="373" y="70" on="1"/>
        <pt x="417" y="70" on="0"/>
        <pt x="454" y="102" on="0"/>
        <pt x="454" y="133" on="1"/>
        <pt x="454" y="158" on="0"/>
        <pt x="417" y="193" on="0"/>
        <pt x="380" y="193" on="1"/>
      </contour>
    </TTGlyph>
    <TTGlyph name="ChaVirama.gm" xMin="-20" yMin="-285" xMax="603" yMax="582">
      <contour>
        <pt x="382" y="261" on="1"/>
        <pt x="460" y="261" on="0"/>
        <pt x="541" y="194" on="0"/>
        <pt x="541" y="132" on="1"/>
        <pt x="541" y="72" on="0"/>
        <pt x="459" y="0" on="0"/>
        <pt x="369" y="0" on="1"/>
        <pt x="232" y="0" on="1"/>
        <pt x="138" y="0" on="0"/>
        <pt x="47" y="69" on="0"/>
        <pt x="47" y="132" on="1"/>
        <pt x="47" y="163" on="0"/>
        <pt x="78" y="212" on="0"/>
        <pt x="103" y="225" on="1"/>
        <pt x="82" y="235" on="0"/>
        <pt x="47" y="278" on="0"/>
        <pt x="47" y="312" on="1"/>
        <pt x="47" y="365" on="0"/>
        <pt x="119" y="424" on="0"/>
        <pt x="180" y="424" on="1"/>
        <pt x="413" y="424" on="1"/>
        <pt x="413" y="510" on="1"/>
        <pt x="-20" y="510" on="1"/>
        <pt x="-20" y="582" on="1"/>
        <pt x="603" y="582" on="1"/>
        <pt x="603" y="510" on="1"/>
        <pt x="500" y="510" on="1"/>
        <pt x="500" y="352" on="1"/>
        <pt x="190" y="352" on="1"/>
        <pt x="164" y="352" on="0"/>
        <pt x="136" y="328" on="0"/>
        <pt x="136" y="307" on="1"/>
        <pt x="136" y="289" on="0"/>
        <pt x="165" y="261" on="0"/>
        <pt x="188" y="261" on="1"/>
      </contour>
      <contour>
        <pt x="282" y="69" on="1"/>
        <pt x="280" y="94" on="0"/>
        <pt x="268" y="140" on="0"/>
        <pt x="246" y="175" on="0"/>
        <pt x="214" y="195" on="0"/>
        <pt x="192" y="195" on="1"/>
        <pt x="169" y="195" on="0"/>
        <pt x="134" y="165" on="0"/>
        <pt x="134" y="137" on="1"/>
        <pt x="134" y="105" on="0"/>
        <pt x="181" y="69" on="0"/>
        <pt x="229" y="69" on="1"/>
      </contour>
      <contour>
        <pt x="302" y="193" on="1"/>
        <pt x="347" y="157" on="0"/>
        <pt x="350" y="70" on="1"/>
        <pt x="373" y="70" on="1"/>
        <pt x="417" y="70" on="0"/>
        <pt x="454" y="102" on="0"/>
        <pt x="454" y="133" on="1"/>
        <pt x="454" y="158" on="0"/>
        <pt x="417" y="193" on="0"/>
        <pt x="380" y="193" on="1"/>
      </contour>
      <contour>
        <pt x="571" y="-232" on="1"/>
        <pt x="526" y="-285" on="1"/>
        <pt x="306" y="-121" on="1"/>
        <pt x="358" y="-55" on="1"/>
      </contour>
    </TTGlyph>
    <TTGlyph name="Csmall" xMin="43" yMin="-10" xMax="429" yMax="480">
      <contour>
        <pt x="307" y="68" on="1"/>
        <pt x="339" y="68" on="0"/>
        <pt x="388" y="83" on="0"/>
        <pt x="408" y="93" on="1"/>
        <pt x="429" y="19" on="1"/>
        <pt x="404" y="6" on="0"/>
        <pt x="336" y="-10" on="0"/>
        <pt x="296" y="-10" on="1"/>
        <pt x="242" y="-10" on="0"/>
        <pt x="150" y="21" on="0"/>
        <pt x="82" y="82" on="0"/>
        <pt x="43" y="174" on="0"/>
        <pt x="43" y="235" on="1"/>
        <pt x="43" y="291" on="0"/>
        <pt x="80" y="382" on="0"/>
        <pt x="146" y="446" on="0"/>
        <pt x="239" y="480" on="0"/>
        <pt x="296" y="480" on="1"/>
        <pt x="327" y="480" on="0"/>
        <pt x="389" y="470" on="0"/>
        <pt x="427" y="452" on="1"/>
        <pt x="405" y="377" on="1"/>
        <pt x="358" y="403" on="0"/>
        <pt x="307" y="403" on="1"/>
        <pt x="235" y="403" on="0"/>
        <pt x="148" y="317" on="0"/>
        <pt x="148" y="238" on="1"/>
        <pt x="148" y="190" on="0"/>
        <pt x="175" y="125" on="0"/>
        <pt x="220" y="85" on="0"/>
        <pt x="277" y="68" on="0"/>
      </contour>
    </TTGlyph>
    <TTGlyph name="D" xMin="76" yMin="0" xMax="602" yMax="630">
      <contour>
        <pt x="286" y="630" on="1"/>
        <pt x="355" y="630" on="0"/>
        <pt x="471" y="592" on="0"/>
        <pt x="555" y="517" on="0"/>
        <pt x="602" y="404" on="0"/>
        <pt x="602" y="329" on="1"/>
        <pt x="602" y="240" on="0"/>
        <pt x="546" y="115" on="0"/>
        <pt x="451" y="36" on="0"/>
        <pt x="324" y="0" on="0"/>
        <pt x="254" y="0" on="1"/>
        <pt x="76" y="0" on="1"/>
        <pt x="76" y="630" on="1"/>
      </contour>
      <contour>
        <pt x="183" y="86" on="1"/>
        <pt x="245" y="86" on="1"/>
        <pt x="291" y="86" on="0"/>
        <pt x="378" y="107" on="0"/>
        <pt x="446" y="162" on="0"/>
        <pt x="487" y="256" on="0"/>
        <pt x="487" y="329" on="1"/>
        <pt x="487" y="433" on="0"/>
        <pt x="368" y="544" on="0"/>
        <pt x="268" y="544" on="1"/>
        <pt x="183" y="544" on="1"/>
      </contour>
    </TTGlyph>
    <TTGlyph name="Da.gm" xMin="-20" yMin="-8" xMax="597" yMax="582">
      <contour>
        <pt x="-20" y="582" on="1"/>
        <pt x="597" y="582" on="1"/>
        <pt x="597" y="510" on="1"/>
        <pt x="501" y="510" on="1"/>
        <pt x="501" y="259" on="1"/>
        <pt x="174" y="259" on="1"/>
        <pt x="174" y="161" on="0"/>
        <pt x="276" y="66" on="0"/>
        <pt x="359" y="66" on="1"/>
        <pt x="406" y="66" on="0"/>
        <pt x="476" y="90" on="0"/>
        <pt x="499" y="104" on="1"/>
        <pt x="533" y="43" on="1"/>
        <pt x="506" y="21" on="0"/>
        <pt x="416" y="-8" on="0"/>
        <pt x="356" y="-8" on="1"/>
        <pt x="231" y="-8" on="0"/>
        <pt x="91" y="130" on="0"/>
        <pt x="86" y="256" on="1"/>
        <pt x="55" y="260" on="0"/>
        <pt x="21" y="292" on="0"/>
        <pt x="21" y="319" on="1"/>
        <pt x="21" y="338" on="0"/>
        <pt x="37" y="372" on="0"/>
        <pt x="65" y="396" on="0"/>
        <pt x="101" y="410" on="0"/>
        <pt x="121" y="410" on="1"/>
        <pt x="155" y="410" on="0"/>
        <pt x="174" y="397" on="1"/>
        <pt x="174" y="333" on="1"/>
        <pt x="413" y="333" on="1"/>
        <pt x="413" y="510" on="1"/>
        <pt x="-20" y="510" on="1"/>
      </contour>
    </TTGlyph>
    <TTGlyph name="DaVirama.gm" xMin="-20" yMin="-284" xMax="612" yMax="582">
      <contour>
        <pt x="-20" y="582" on="1"/>
        <pt x="597" y="582" on="1"/>
        <pt x="597" y="510" on="1"/>
        <pt x="501" y="510" on="1"/>
        <pt x="501" y="259" on="1"/>
        <pt x="174" y="259" on="1"/>
        <pt x="174" y="161" on="0"/>
        <pt x="276" y="66" on="0"/>
        <pt x="359" y="66" on="1"/>
        <pt x="406" y="66" on="0"/>
        <pt x="476" y="90" on="0"/>
        <pt x="499" y="104" on="1"/>
        <pt x="533" y="43" on="1"/>
        <pt x="506" y="21" on="0"/>
        <pt x="416" y="-8" on="0"/>
        <pt x="356" y="-8" on="1"/>
        <pt x="231" y="-8" on="0"/>
        <pt x="91" y="130" on="0"/>
        <pt x="86" y="256" on="1"/>
        <pt x="55" y="260" on="0"/>
        <pt x="21" y="292" on="0"/>
        <pt x="21" y="319" on="1"/>
        <pt x="21" y="338" on="0"/>
        <pt x="37" y="372" on="0"/>
        <pt x="65" y="396" on="0"/>
        <pt x="101" y="410" on="0"/>
        <pt x="121" y="410" on="1"/>
        <pt x="155" y="410" on="0"/>
        <pt x="174" y="397" on="1"/>
        <pt x="174" y="333" on="1"/>
        <pt x="413" y="333" on="1"/>
        <pt x="413" y="510" on="1"/>
        <pt x="-20" y="510" on="1"/>
      </contour>
      <contour>
        <pt x="612" y="-231" on="1"/>
        <pt x="567" y="-284" on="1"/>
        <pt x="347" y="-120" on="1"/>
        <pt x="399" y="-54" on="1"/>
      </contour>
    </TTGlyph>
    <TTGlyph name="Danda.gm" xMin="107" yMin="0" xMax="196" yMax="587">
      <contour>
        <pt x="107" y="587" on="1"/>
        <pt x="196" y="587" on="1"/>
        <pt x="196" y="0" on="1"/>
        <pt x="107" y="0" on="1"/>
      </contour>
    </TTGlyph>
    <TTGlyph name="Dcaron" xMin="76" yMin="0" xMax="602" yMax="837">
      <contour>
        <pt x="286" y="630" on="1"/>
        <pt x="355" y="630" on="0"/>
        <pt x="471" y="592" on="0"/>
        <pt x="555" y="517" on="0"/>
        <pt x="602" y="404" on="0"/>
        <pt x="602" y="329" on="1"/>
        <pt x="602" y="240" on="0"/>
        <pt x="546" y="115" on="0"/>
        <pt x="451" y="36" on="0"/>
        <pt x="324" y="0" on="0"/>
        <pt x="254" y="0" on="1"/>
        <pt x="76" y="0" on="1"/>
        <pt x="76" y="630" on="1"/>
      </contour>
      <contour>
        <pt x="183" y="86" on="1"/>
        <pt x="245" y="86" on="1"/>
        <pt x="291" y="86" on="0"/>
        <pt x="378" y="107" on="0"/>
        <pt x="446" y="162" on="0"/>
        <pt x="487" y="256" on="0"/>
        <pt x="487" y="329" on="1"/>
        <pt x="487" y="433" on="0"/>
        <pt x="368" y="544" on="0"/>
        <pt x="268" y="544" on="1"/>
        <pt x="183" y="544" on="1"/>
      </contour>
      <contour>
        <pt x="133" y="837" on="1"/>
        <pt x="218" y="837" on="1"/>
        <pt x="293" y="758" on="1"/>
        <pt x="368" y="837" on="1"/>
        <pt x="454" y="837" on="1"/>
        <pt x="332" y="706" on="1"/>
        <pt x="253" y="706" on="1"/>
      </contour>
    </TTGlyph>
    <TTGlyph name="Dcroat" xMin="27" yMin="0" xMax="635" yMax="630">
      <contour>
        <pt x="319" y="630" on="1"/>
        <pt x="388" y="630" on="0"/>
        <pt x="504" y="592" on="0"/>
        <pt x="588" y="517" on="0"/>
        <pt x="635" y="404" on="0"/>
        <pt x="635" y="329" on="1"/>
        <pt x="635" y="240" on="0"/>
        <pt x="579" y="115" on="0"/>
        <pt x="484" y="36" on="0"/>
        <pt x="357" y="0" on="0"/>
        <pt x="286" y="0" on="1"/>
        <pt x="109" y="0" on="1"/>
        <pt x="109" y="290" on="1"/>
        <pt x="27" y="290" on="1"/>
        <pt x="27" y="362" on="1"/>
        <pt x="109" y="362" on="1"/>
        <pt x="109" y="630" on="1"/>
      </contour>
      <contour>
        <pt x="340" y="362" on="1"/>
        <pt x="340" y="290" on="1"/>
        <pt x="216" y="290" on="1"/>
        <pt x="216" y="86" on="1"/>
        <pt x="277" y="86" on="1"/>
        <pt x="323" y="86" on="0"/>
        <pt x="411" y="107" on="0"/>
        <pt x="479" y="162" on="0"/>
        <pt x="520" y="256" on="0"/>
        <pt x="520" y="329" on="1"/>
        <pt x="520" y="433" on="0"/>
        <pt x="401" y="544" on="0"/>
        <pt x="301" y="544" on="1"/>
        <pt x="216" y="544" on="1"/>
        <pt x="216" y="362" on="1"/>
      </contour>
    </TTGlyph>
    <TTGlyph name="Dda.gm" xMin="-20" yMin="-10" xMax="574" yMax="582">
      <contour>
        <pt x="-20" y="582" on="1"/>
        <pt x="574" y="582" on="1"/>
        <pt x="574" y="510" on="1"/>
        <pt x="491" y="510" on="1"/>
        <pt x="486" y="455" on="0"/>
        <pt x="440" y="365" on="0"/>
        <pt x="411" y="339" on="1"/>
        <pt x="451" y="314" on="0"/>
        <pt x="498" y="238" on="0"/>
        <pt x="498" y="186" on="1"/>
        <pt x="498" y="139" on="0"/>
        <pt x="459" y="66" on="0"/>
        <pt x="391" y="16" on="0"/>
        <pt x="299" y="-10" on="0"/>
        <pt x="247" y="-10" on="1"/>
        <pt x="201" y="-10" on="0"/>
        <pt x="122" y="9" on="0"/>
        <pt x="64" y="45" on="0"/>
        <pt x="31" y="94" on="0"/>
        <pt x="31" y="124" on="1"/>
        <pt x="31" y="169" on="0"/>
        <pt x="96" y="229" on="0"/>
        <pt x="153" y="229" on="1"/>
        <pt x="193" y="229" on="0"/>
        <pt x="259" y="207" on="0"/>
        <pt x="312" y="171" on="0"/>
        <pt x="354" y="126" on="0"/>
        <pt x="369" y="102" on="1"/>
        <pt x="388" y="118" on="0"/>
        <pt x="409" y="162" on="0"/>
        <pt x="409" y="191" on="1"/>
        <pt x="409" y="212" on="0"/>
        <pt x="395" y="248" on="0"/>
        <pt x="373" y="276" on="0"/>
        <pt x="346" y="297" on="0"/>
        <pt x="332" y="302" on="1"/>
        <pt x="275" y="287" on="0"/>
        <pt x="201" y="287" on="1"/>
        <pt x="141" y="287" on="0"/>
        <pt x="80" y="314" on="0"/>
        <pt x="80" y="344" on="1"/>
        <pt x="80" y="355" on="0"/>
        <pt x="88" y="377" on="0"/>
        <pt x="93" y="385" on="1"/>
        <pt x="349" y="385" on="1"/>
        <pt x="368" y="405" on="0"/>
        <pt x="397" y="474" on="0"/>
        <pt x="402" y="510" on="1"/>
        <pt x="-20" y="510" on="1"/>
      </contour>
      <contour>
        <pt x="241" y="63" on="1"/>
        <pt x="258" y="63" on="0"/>
        <pt x="291" y="66" on="0"/>
        <pt x="306" y="71" on="1"/>
        <pt x="279" y="109" on="0"/>
        <pt x="212" y="161" on="0"/>
        <pt x="166" y="161" on="1"/>
        <pt x="142" y="161" on="0"/>
        <pt x="120" y="138" on="0"/>
        <pt x="120" y="123" on="1"/>
        <pt x="120" y="98" on="0"/>
        <pt x="187" y="63" on="0"/>
      </contour>
    </TTGlyph>
    <TTGlyph name="DdaVirama.gm" xMin="-20" yMin="-285" xMax="574" yMax="582">
      <contour>
        <pt x="-20" y="582" on="1"/>
        <pt x="574" y="582" on="1"/>
        <pt x="574" y="510" on="1"/>
        <pt x="491" y="510" on="1"/>
        <pt x="486" y="455" on="0"/>
        <pt x="440" y="365" on="0"/>
        <pt x="411" y="339" on="1"/>
        <pt x="451" y="314" on="0"/>
        <pt x="498" y="238" on="0"/>
        <pt x="498" y="186" on="1"/>
        <pt x="498" y="139" on="0"/>
        <pt x="459" y="66" on="0"/>
        <pt x="391" y="16" on="0"/>
        <pt x="299" y="-10" on="0"/>
        <pt x="247" y="-10" on="1"/>
        <pt x="201" y="-10" on="0"/>
        <pt x="122" y="9" on="0"/>
        <pt x="64" y="45" on="0"/>
        <pt x="31" y="94" on="0"/>
        <pt x="31" y="124" on="1"/>
        <pt x="31" y="169" on="0"/>
        <pt x="96" y="229" on="0"/>
        <pt x="153" y="229" on="1"/>
        <pt x="193" y="229" on="0"/>
        <pt x="259" y="207" on="0"/>
        <pt x="312" y="171" on="0"/>
        <pt x="354" y="126" on="0"/>
        <pt x="369" y="102" on="1"/>
        <pt x="388" y="118" on="0"/>
        <pt x="409" y="162" on="0"/>
        <pt x="409" y="191" on="1"/>
        <pt x="409" y="212" on="0"/>
        <pt x="395" y="248" on="0"/>
        <pt x="373" y="276" on="0"/>
        <pt x="346" y="297" on="0"/>
        <pt x="332" y="302" on="1"/>
        <pt x="275" y="287" on="0"/>
        <pt x="201" y="287" on="1"/>
        <pt x="141" y="287" on="0"/>
        <pt x="80" y="314" on="0"/>
        <pt x="80" y="344" on="1"/>
        <pt x="80" y="355" on="0"/>
        <pt x="88" y="377" on="0"/>
        <pt x="93" y="385" on="1"/>
        <pt x="349" y="385" on="1"/>
        <pt x="368" y="405" on="0"/>
        <pt x="397" y="474" on="0"/>
        <pt x="402" y="510" on="1"/>
        <pt x="-20" y="510" on="1"/>
      </contour>
      <contour>
        <pt x="241" y="63" on="1"/>
        <pt x="258" y="63" on="0"/>
        <pt x="291" y="66" on="0"/>
        <pt x="306" y="71" on="1"/>
        <pt x="279" y="109" on="0"/>
        <pt x="212" y="161" on="0"/>
        <pt x="166" y="161" on="1"/>
        <pt x="142" y="161" on="0"/>
        <pt x="120" y="138" on="0"/>
        <pt x="120" y="123" on="1"/>
        <pt x="120" y="98" on="0"/>
        <pt x="187" y="63" on="0"/>
      </contour>
      <contour>
        <pt x="543" y="-232" on="1"/>
        <pt x="498" y="-285" on="1"/>
        <pt x="278" y="-121" on="1"/>
        <pt x="330" y="-55" on="1"/>
      </contour>
    </TTGlyph>
    <TTGlyph name="Ddha.gm" xMin="-20" yMin="-10" xMax="617" yMax="582">
      <contour>
        <pt x="-20" y="582" on="1"/>
        <pt x="617" y="582" on="1"/>
        <pt x="617" y="510" on="1"/>
        <pt x="520" y="510" on="1"/>
        <pt x="520" y="291" on="1"/>
        <pt x="167" y="291" on="1"/>
        <pt x="170" y="228" on="0"/>
        <pt x="208" y="150" on="0"/>
        <pt x="231" y="126" on="1"/>
        <pt x="269" y="173" on="0"/>
        <pt x="366" y="220" on="0"/>
        <pt x="415" y="220" on="1"/>
        <pt x="481" y="220" on="0"/>
        <pt x="548" y="160" on="0"/>
        <pt x="548" y="113" on="1"/>
        <pt x="548" y="88" on="0"/>
        <pt x="527" y="43" on="0"/>
        <pt x="485" y="10" on="0"/>
        <pt x="423" y="-10" on="0"/>
        <pt x="382" y="-10" on="1"/>
        <pt x="326" y="-10" on="0"/>
        <pt x="219" y="28" on="0"/>
        <pt x="135" y="103" on="0"/>
        <pt x="82" y="213" on="0"/>
        <pt x="81" y="286" on="1"/>
        <pt x="55" y="289" on="0"/>
        <pt x="18" y="317" on="0"/>
        <pt x="18" y="347" on="1"/>
        <pt x="18" y="366" on="0"/>
        <pt x="34" y="398" on="0"/>
        <pt x="60" y="422" on="0"/>
        <pt x="95" y="436" on="0"/>
        <pt x="114" y="436" on="1"/>
        <pt x="131" y="436" on="0"/>
        <pt x="158" y="429" on="0"/>
        <pt x="167" y="424" on="1"/>
        <pt x="167" y="365" on="1"/>
        <pt x="433" y="365" on="1"/>
        <pt x="433" y="510" on="1"/>
        <pt x="-20" y="510" on="1"/>
      </contour>
      <contour>
        <pt x="409" y="152" on="1"/>
        <pt x="379" y="152" on="0"/>
        <pt x="316" y="119" on="0"/>
        <pt x="289" y="85" on="1"/>
        <pt x="308" y="75" on="0"/>
        <pt x="351" y="63" on="0"/>
        <pt x="380" y="63" on="1"/>
        <pt x="418" y="63" on="0"/>
        <pt x="462" y="90" on="0"/>
        <pt x="462" y="113" on="1"/>
        <pt x="462" y="130" on="0"/>
        <pt x="435" y="152" on="0"/>
      </contour>
    </TTGlyph>
    <TTGlyph name="DdhaVirama.gm" xMin="-20" yMin="-285" xMax="617" yMax="582">
      <contour>
        <pt x="-20" y="582" on="1"/>
        <pt x="617" y="582" on="1"/>
        <pt x="617" y="510" on="1"/>
        <pt x="520" y="510" on="1"/>
        <pt x="520" y="291" on="1"/>
        <pt x="167" y="291" on="1"/>
        <pt x="170" y="228" on="0"/>
        <pt x="208" y="150" on="0"/>
        <pt x="231" y="126" on="1"/>
        <pt x="269" y="173" on="0"/>
        <pt x="366" y="220" on="0"/>
        <pt x="415" y="220" on="1"/>
        <pt x="481" y="220" on="0"/>
        <pt x="548" y="160" on="0"/>
        <pt x="548" y="113" on="1"/>
        <pt x="548" y="88" on="0"/>
        <pt x="527" y="43" on="0"/>
        <pt x="485" y="10" on="0"/>
        <pt x="423" y="-10" on="0"/>
        <pt x="382" y="-10" on="1"/>
        <pt x="326" y="-10" on="0"/>
        <pt x="219" y="28" on="0"/>
        <pt x="135" y="103" on="0"/>
        <pt x="82" y="213" on="0"/>
        <pt x="81" y="286" on="1"/>
        <pt x="55" y="289" on="0"/>
        <pt x="18" y="317" on="0"/>
        <pt x="18" y="347" on="1"/>
        <pt x="18" y="366" on="0"/>
        <pt x="34" y="398" on="0"/>
        <pt x="60" y="422" on="0"/>
        <pt x="95" y="436" on="0"/>
        <pt x="114" y="436" on="1"/>
        <pt x="131" y="436" on="0"/>
        <pt x="158" y="429" on="0"/>
        <pt x="167" y="424" on="1"/>
        <pt x="167" y="365" on="1"/>
        <pt x="433" y="365" on="1"/>
        <pt x="433" y="510" on="1"/>
        <pt x="-20" y="510" on="1"/>
      </contour>
      <contour>
        <pt x="409" y="152" on="1"/>
        <pt x="379" y="152" on="0"/>
        <pt x="316" y="119" on="0"/>
        <pt x="289" y="85" on="1"/>
        <pt x="308" y="75" on="0"/>
        <pt x="351" y="63" on="0"/>
        <pt x="380" y="63" on="1"/>
        <pt x="418" y="63" on="0"/>
        <pt x="462" y="90" on="0"/>
        <pt x="462" y="113" on="1"/>
        <pt x="462" y="130" on="0"/>
        <pt x="435" y="152" on="0"/>
      </contour>
      <contour>
        <pt x="601" y="-232" on="1"/>
        <pt x="556" y="-285" on="1"/>
        <pt x="336" y="-121" on="1"/>
        <pt x="388" y="-55" on="1"/>
      </contour>
    </TTGlyph>
    <TTGlyph name="Dha.gm" xMin="-30" yMin="0" xMax="588" yMax="582">
      <contour>
        <pt x="-30" y="582" on="1"/>
        <pt x="588" y="582" on="1"/>
        <pt x="588" y="510" on="1"/>
        <pt x="488" y="510" on="1"/>
        <pt x="488" y="0" on="1"/>
        <pt x="399" y="0" on="1"/>
        <pt x="399" y="129" on="1"/>
        <pt x="376" y="115" on="0"/>
        <pt x="312" y="99" on="0"/>
        <pt x="270" y="99" on="1"/>
        <pt x="188" y="99" on="0"/>
        <pt x="71" y="173" on="0"/>
        <pt x="40" y="230" on="1"/>
        <pt x="65" y="275" on="0"/>
        <pt x="98" y="365" on="0"/>
        <pt x="98" y="418" on="1"/>
        <pt x="98" y="444" on="0"/>
        <pt x="90" y="491" on="0"/>
        <pt x="83" y="510" on="1"/>
        <pt x="-30" y="510" on="1"/>
      </contour>
      <contour>
        <pt x="273" y="173" on="1"/>
        <pt x="315" y="173" on="0"/>
        <pt x="376" y="196" on="0"/>
        <pt x="399" y="216" on="1"/>
        <pt x="399" y="510" on="1"/>
        <pt x="172" y="510" on="1"/>
        <pt x="179" y="487" on="0"/>
        <pt x="187" y="439" on="0"/>
        <pt x="187" y="417" on="1"/>
        <pt x="187" y="362" on="0"/>
        <pt x="161" y="276" on="0"/>
        <pt x="138" y="234" on="1"/>
        <pt x="158" y="205" on="0"/>
        <pt x="228" y="173" on="0"/>
      </contour>
    </TTGlyph>
    <TTGlyph name="DhaVirama.gm" xMin="-30" yMin="-285" xMax="661" yMax="582">
      <contour>
        <pt x="-30" y="582" on="1"/>
        <pt x="588" y="582" on="1"/>
        <pt x="588" y="510" on="1"/>
        <pt x="488" y="510" on="1"/>
        <pt x="488" y="0" on="1"/>
        <pt x="399" y="0" on="1"/>
        <pt x="399" y="129" on="1"/>
        <pt x="376" y="115" on="0"/>
        <pt x="312" y="99" on="0"/>
        <pt x="270" y="99" on="1"/>
        <pt x="188" y="99" on="0"/>
        <pt x="71" y="173" on="0"/>
        <pt x="40" y="230" on="1"/>
        <pt x="65" y="275" on="0"/>
        <pt x="98" y="365" on="0"/>
        <pt x="98" y="418" on="1"/>
        <pt x="98" y="444" on="0"/>
        <pt x="90" y="491" on="0"/>
        <pt x="83" y="510" on="1"/>
        <pt x="-30" y="510" on="1"/>
      </contour>
      <contour>
        <pt x="273" y="173" on="1"/>
        <pt x="315" y="173" on="0"/>
        <pt x="376" y="196" on="0"/>
        <pt x="399" y="216" on="1"/>
        <pt x="399" y="510" on="1"/>
        <pt x="172" y="510" on="1"/>
        <pt x="179" y="487" on="0"/>
        <pt x="187" y="439" on="0"/>
        <pt x="187" y="417" on="1"/>
        <pt x="187" y="362" on="0"/>
        <pt x="161" y="276" on="0"/>
        <pt x="138" y="234" on="1"/>
        <pt x="158" y="205" on="0"/>
        <pt x="228" y="173" on="0"/>
      </contour>
      <contour>
        <pt x="661" y="-232" on="1"/>
        <pt x="616" y="-285" on="1"/>
        <pt x="396" y="-121" on="1"/>
        <pt x="448" y="-55" on="1"/>
      </contour>
    </TTGlyph>
    <TTGlyph name="Dottedcircle" xMin="10" yMin="-30" xMax="667" yMax="627">
      <contour>
        <pt x="310" y="-2" on="1"/>
        <pt x="310" y="10" on="0"/>
        <pt x="326" y="27" on="0"/>
        <pt x="338" y="27" on="1"/>
        <pt x="350" y="27" on="0"/>
        <pt x="367" y="10" on="0"/>
        <pt x="367" y="-2" on="1"/>
        <pt x="367" y="-14" on="0"/>
        <pt x="350" y="-30" on="0"/>
        <pt x="338" y="-30" on="1"/>
        <pt x="326" y="-30" on="0"/>
        <pt x="310" y="-14" on="0"/>
      </contour>
      <contour>
        <pt x="310" y="598" on="1"/>
        <pt x="310" y="610" on="0"/>
        <pt x="326" y="627" on="0"/>
        <pt x="338" y="627" on="1"/>
        <pt x="350" y="627" on="0"/>
        <pt x="367" y="610" on="0"/>
        <pt x="367" y="598" on="1"/>
        <pt x="367" y="586" on="0"/>
        <pt x="350" y="570" on="0"/>
        <pt x="338" y="570" on="1"/>
        <pt x="326" y="570" on="0"/>
        <pt x="310" y="586" on="0"/>
      </contour>
      <contour>
        <pt x="10" y="298" on="1"/>
        <pt x="10" y="310" on="0"/>
        <pt x="26" y="327" on="0"/>
        <pt x="38" y="327" on="1"/>
        <pt x="50" y="327" on="0"/>
        <pt x="67" y="310" on="0"/>
        <pt x="67" y="298" on="1"/>
        <pt x="67" y="286" on="0"/>
        <pt x="50" y="270" on="0"/>
        <pt x="38" y="270" on="1"/>
        <pt x="26" y="270" on="0"/>
        <pt x="10" y="286" on="0"/>
      </contour>
      <contour>
        <pt x="610" y="298" on="1"/>
        <pt x="610" y="310" on="0"/>
        <pt x="626" y="327" on="0"/>
        <pt x="638" y="327" on="1"/>
        <pt x="650" y="327" on="0"/>
        <pt x="667" y="310" on="0"/>
        <pt x="667" y="298" on="1"/>
        <pt x="667" y="286" on="0"/>
        <pt x="650" y="270" on="0"/>
        <pt x="638" y="270" on="1"/>
        <pt x="626" y="270" on="0"/>
        <pt x="610" y="286" on="0"/>
      </contour>
      <contour>
        <pt x="110" y="498" on="1"/>
        <pt x="110" y="510" on="0"/>
        <pt x="126" y="527" on="0"/>
        <pt x="138" y="527" on="1"/>
        <pt x="150" y="527" on="0"/>
        <pt x="167" y="510" on="0"/>
        <pt x="167" y="498" on="1"/>
        <pt x="167" y="486" on="0"/>
        <pt x="150" y="470" on="0"/>
        <pt x="138" y="470" on="1"/>
        <pt x="126" y="470" on="0"/>
        <pt x="110" y="486" on="0"/>
      </contour>
      <contour>
        <pt x="110" y="98" on="1"/>
        <pt x="110" y="110" on="0"/>
        <pt x="126" y="127" on="0"/>
        <pt x="138" y="127" on="1"/>
        <pt x="150" y="127" on="0"/>
        <pt x="167" y="110" on="0"/>
        <pt x="167" y="98" on="1"/>
        <pt x="167" y="86" on="0"/>
        <pt x="150" y="70" on="0"/>
        <pt x="138" y="70" on="1"/>
        <pt x="126" y="70" on="0"/>
        <pt x="110" y="86" on="0"/>
      </contour>
      <contour>
        <pt x="510" y="98" on="1"/>
        <pt x="510" y="110" on="0"/>
        <pt x="526" y="127" on="0"/>
        <pt x="538" y="127" on="1"/>
        <pt x="550" y="127" on="0"/>
        <pt x="567" y="110" on="0"/>
        <pt x="567" y="98" on="1"/>
        <pt x="567" y="86" on="0"/>
        <pt x="550" y="70" on="0"/>
        <pt x="538" y="70" on="1"/>
        <pt x="526" y="70" on="0"/>
        <pt x="510" y="86" on="0"/>
      </contour>
      <contour>
        <pt x="510" y="498" on="1"/>
        <pt x="510" y="510" on="0"/>
        <pt x="526" y="527" on="0"/>
        <pt x="538" y="527" on="1"/>
        <pt x="550" y="527" on="0"/>
        <pt x="567" y="510" on="0"/>
        <pt x="567" y="498" on="1"/>
        <pt x="567" y="486" on="0"/>
        <pt x="550" y="470" on="0"/>
        <pt x="538" y="470" on="1"/>
        <pt x="526" y="470" on="0"/>
        <pt x="510" y="486" on="0"/>
      </contour>
    </TTGlyph>
    <TTGlyph name="Doubledanda.gm" xMin="110" yMin="0" xMax="405" yMax="587">
      <contour>
        <pt x="110" y="587" on="1"/>
        <pt x="199" y="587" on="1"/>
        <pt x="199" y="0" on="1"/>
        <pt x="110" y="0" on="1"/>
      </contour>
      <contour>
        <pt x="316" y="587" on="1"/>
        <pt x="405" y="587" on="1"/>
        <pt x="405" y="0" on="1"/>
        <pt x="316" y="0" on="1"/>
      </contour>
    </TTGlyph>
    <TTGlyph name="Dsmall" xMin="74" yMin="0" xMax="497" yMax="472">
      <contour>
        <pt x="247" y="472" on="1"/>
        <pt x="296" y="472" on="0"/>
        <pt x="387" y="448" on="0"/>
        <pt x="456" y="394" on="0"/>
        <pt x="497" y="308" on="0"/>
        <pt x="497" y="247" on="1"/>
        <pt x="497" y="182" on="0"/>
        <pt x="457" y="89" on="0"/>
        <pt x="388" y="29" on="0"/>
        <pt x="293" y="0" on="0"/>
        <pt x="239" y="0" on="1"/>
        <pt x="74" y="0" on="1"/>
        <pt x="74" y="472" on="1"/>
      </contour>
      <contour>
        <pt x="177" y="79" on="1"/>
        <pt x="221" y="79" on="1"/>
        <pt x="248" y="79" on="0"/>
        <pt x="308" y="91" on="0"/>
        <pt x="359" y="126" on="0"/>
        <pt x="392" y="191" on="0"/>
        <pt x="392" y="244" on="1"/>
        <pt x="392" y="319" on="0"/>
        <pt x="306" y="393" on="0"/>
        <pt x="221" y="393" on="1"/>
        <pt x="177" y="393" on="1"/>
      </contour>
    </TTGlyph>
    <TTGlyph name="E" xMin="76" yMin="0" xMax="469" yMax="630">
      <contour>
        <pt x="76" y="630" on="1"/>
        <pt x="466" y="630" on="1"/>
        <pt x="466" y="544" on="1"/>
        <pt x="183" y="544" on="1"/>
        <pt x="183" y="370" on="1"/>
        <pt x="440" y="370" on="1"/>
        <pt x="440" y="285" on="1"/>
        <pt x="183" y="285" on="1"/>
        <pt x="183" y="86" on="1"/>
        <pt x="469" y="86" on="1"/>
        <pt x="469" y="0" on="1"/>
        <pt x="76" y="0" on="1"/>
      </contour>
    </TTGlyph>
    <TTGlyph name="Eacute" xMin="76" yMin="0" xMax="469" yMax="829">
      <contour>
        <pt x="76" y="630" on="1"/>
        <pt x="466" y="630" on="1"/>
        <pt x="466" y="544" on="1"/>
        <pt x="183" y="544" on="1"/>
        <pt x="183" y="370" on="1"/>
        <pt x="440" y="370" on="1"/>
        <pt x="440" y="285" on="1"/>
        <pt x="183" y="285" on="1"/>
        <pt x="183" y="86" on="1"/>
        <pt x="469" y="86" on="1"/>
        <pt x="469" y="0" on="1"/>
        <pt x="76" y="0" on="1"/>
      </contour>
      <contour>
        <pt x="276" y="705" on="1"/>
        <pt x="191" y="705" on="1"/>
        <pt x="271" y="829" on="1"/>
        <pt x="388" y="829" on="1"/>
      </contour>
    </TTGlyph>
    <TTGlyph name="Ebreve" xMin="76" yMin="0" xMax="469" yMax="838">
      <contour>
        <pt x="76" y="630" on="1"/>
        <pt x="466" y="630" on="1"/>
        <pt x="466" y="544" on="1"/>
        <pt x="183" y="544" on="1"/>
        <pt x="183" y="370" on="1"/>
        <pt x="440" y="370" on="1"/>
        <pt x="440" y="285" on="1"/>
        <pt x="183" y="285" on="1"/>
        <pt x="183" y="86" on="1"/>
        <pt x="469" y="86" on="1"/>
        <pt x="469" y="0" on="1"/>
        <pt x="76" y="0" on="1"/>
      </contour>
      <contour>
        <pt x="213" y="838" on="1"/>
        <pt x="216" y="808" on="0"/>
        <pt x="243" y="773" on="0"/>
        <pt x="280" y="773" on="1"/>
        <pt x="312" y="773" on="0"/>
        <pt x="344" y="806" on="0"/>
        <pt x="347" y="838" on="1"/>
        <pt x="414" y="838" on="1"/>
        <pt x="414" y="782" on="0"/>
        <pt x="345" y="713" on="0"/>
        <pt x="280" y="713" on="1"/>
        <pt x="244" y="713" on="0"/>
        <pt x="193" y="734" on="0"/>
        <pt x="160" y="769" on="0"/>
        <pt x="145" y="814" on="0"/>
        <pt x="145" y="838" on="1"/>
      </contour>
    </TTGlyph>
    <TTGlyph name="Ecaron" xMin="76" yMin="0" xMax="469" yMax="837">
      <contour>
        <pt x="76" y="630" on="1"/>
        <pt x="466" y="630" on="1"/>
        <pt x="466" y="544" on="1"/>
        <pt x="183" y="544" on="1"/>
        <pt x="183" y="370" on="1"/>
        <pt x="440" y="370" on="1"/>
        <pt x="440" y="285" on="1"/>
        <pt x="183" y="285" on="1"/>
        <pt x="183" y="86" on="1"/>
        <pt x="469" y="86" on="1"/>
        <pt x="469" y="0" on="1"/>
        <pt x="76" y="0" on="1"/>
      </contour>
      <contour>
        <pt x="320" y="706" on="1"/>
        <pt x="241" y="706" on="1"/>
        <pt x="121" y="837" on="1"/>
        <pt x="208" y="837" on="1"/>
        <pt x="282" y="756" on="1"/>
        <pt x="356" y="837" on="1"/>
        <pt x="442" y="837" on="1"/>
      </contour>
    </TTGlyph>
    <TTGlyph name="Ecircumflex" xMin="76" yMin="0" xMax="469" yMax="836">
      <contour>
        <pt x="76" y="630" on="1"/>
        <pt x="466" y="630" on="1"/>
        <pt x="466" y="544" on="1"/>
        <pt x="183" y="544" on="1"/>
        <pt x="183" y="370" on="1"/>
        <pt x="440" y="370" on="1"/>
        <pt x="440" y="285" on="1"/>
        <pt x="183" y="285" on="1"/>
        <pt x="183" y="86" on="1"/>
        <pt x="469" y="86" on="1"/>
        <pt x="469" y="0" on="1"/>
        <pt x="76" y="0" on="1"/>
      </contour>
      <contour>
        <pt x="225" y="836" on="1"/>
        <pt x="304" y="836" on="1"/>
        <pt x="426" y="705" on="1"/>
        <pt x="339" y="705" on="1"/>
        <pt x="264" y="784" on="1"/>
        <pt x="189" y="705" on="1"/>
        <pt x="105" y="705" on="1"/>
      </contour>
    </TTGlyph>
    <TTGlyph name="Edieresis" xMin="76" yMin="0" xMax="469" yMax="811">
      <contour>
        <pt x="76" y="630" on="1"/>
        <pt x="466" y="630" on="1"/>
        <pt x="466" y="544" on="1"/>
        <pt x="183" y="544" on="1"/>
        <pt x="183" y="370" on="1"/>
        <pt x="440" y="370" on="1"/>
        <pt x="440" y="285" on="1"/>
        <pt x="183" y="285" on="1"/>
        <pt x="183" y="86" on="1"/>
        <pt x="469" y="86" on="1"/>
        <pt x="469" y="0" on="1"/>
        <pt x="76" y="0" on="1"/>
      </contour>
      <contour>
        <pt x="130" y="758" on="1"/>
        <pt x="130" y="779" on="0"/>
        <pt x="162" y="811" on="0"/>
        <pt x="185" y="811" on="1"/>
        <pt x="207" y="811" on="0"/>
        <pt x="239" y="779" on="0"/>
        <pt x="239" y="758" on="1"/>
        <pt x="239" y="735" on="0"/>
        <pt x="207" y="702" on="0"/>
        <pt x="185" y="702" on="1"/>
        <pt x="162" y="702" on="0"/>
        <pt x="130" y="735" on="0"/>
      </contour>
      <contour>
        <pt x="306" y="758" on="1"/>
        <pt x="306" y="779" on="0"/>
        <pt x="338" y="811" on="0"/>
        <pt x="360" y="811" on="1"/>
        <pt x="383" y="811" on="0"/>
        <pt x="415" y="779" on="0"/>
        <pt x="415" y="758" on="1"/>
        <pt x="415" y="735" on="0"/>
        <pt x="383" y="702" on="0"/>
        <pt x="360" y="702" on="1"/>
        <pt x="338" y="702" on="0"/>
        <pt x="306" y="735" on="0"/>
      </contour>
    </TTGlyph>
    <TTGlyph name="Edotaccent" xMin="76" yMin="0" xMax="469" yMax="820">
      <contour>
        <pt x="76" y="630" on="1"/>
        <pt x="466" y="630" on="1"/>
        <pt x="466" y="544" on="1"/>
        <pt x="183" y="544" on="1"/>
        <pt x="183" y="370" on="1"/>
        <pt x="440" y="370" on="1"/>
        <pt x="440" y="285" on="1"/>
        <pt x="183" y="285" on="1"/>
        <pt x="183" y="86" on="1"/>
        <pt x="469" y="86" on="1"/>
        <pt x="469" y="0" on="1"/>
        <pt x="76" y="0" on="1"/>
      </contour>
      <contour>
        <pt x="225" y="762" on="1"/>
        <pt x="225" y="785" on="0"/>
        <pt x="261" y="820" on="0"/>
        <pt x="284" y="820" on="1"/>
        <pt x="309" y="820" on="0"/>
        <pt x="343" y="785" on="0"/>
        <pt x="343" y="762" on="1"/>
        <pt x="343" y="737" on="0"/>
        <pt x="309" y="702" on="0"/>
        <pt x="284" y="702" on="1"/>
        <pt x="261" y="702" on="0"/>
        <pt x="225" y="737" on="0"/>
      </contour>
    </TTGlyph>
    <TTGlyph name="Egrave" xMin="76" yMin="0" xMax="469" yMax="829">
      <contour>
        <pt x="76" y="630" on="1"/>
        <pt x="466" y="630" on="1"/>
        <pt x="466" y="544" on="1"/>
        <pt x="183" y="544" on="1"/>
        <pt x="183" y="370" on="1"/>
        <pt x="440" y="370" on="1"/>
        <pt x="440" y="285" on="1"/>
        <pt x="183" y="285" on="1"/>
        <pt x="183" y="86" on="1"/>
        <pt x="469" y="86" on="1"/>
        <pt x="469" y="0" on="1"/>
        <pt x="76" y="0" on="1"/>
      </contour>
      <contour>
        <pt x="167" y="829" on="1"/>
        <pt x="284" y="829" on="1"/>
        <pt x="364" y="705" on="1"/>
        <pt x="280" y="705" on="1"/>
      </contour>
    </TTGlyph>
    <TTGlyph name="Eight.gm" xMin="15" yMin="-3" xMax="538" yMax="538">
      <contour>
        <pt x="538" y="42" on="1"/>
        <pt x="511" y="22" on="0"/>
        <pt x="439" y="-3" on="0"/>
        <pt x="385" y="-3" on="1"/>
        <pt x="323" y="-3" on="0"/>
        <pt x="212" y="36" on="0"/>
        <pt x="129" y="123" on="0"/>
        <pt x="80" y="265" on="0"/>
        <pt x="80" y="367" on="1"/>
        <pt x="80" y="384" on="1"/>
        <pt x="15" y="392" on="0"/>
        <pt x="15" y="447" on="1"/>
        <pt x="15" y="466" on="0"/>
        <pt x="31" y="499" on="0"/>
        <pt x="59" y="524" on="0"/>
        <pt x="96" y="538" on="0"/>
        <pt x="116" y="538" on="1"/>
        <pt x="136" y="538" on="0"/>
        <pt x="161" y="530" on="0"/>
        <pt x="169" y="525" on="1"/>
        <pt x="169" y="456" on="1"/>
        <pt x="510" y="456" on="1"/>
        <pt x="510" y="381" on="1"/>
        <pt x="168" y="381" on="1"/>
        <pt x="168" y="370" on="1"/>
        <pt x="169" y="280" on="0"/>
        <pt x="208" y="164" on="0"/>
        <pt x="269" y="98" on="0"/>
        <pt x="347" y="72" on="0"/>
        <pt x="386" y="72" on="1"/>
        <pt x="428" y="72" on="0"/>
        <pt x="481" y="91" on="0"/>
        <pt x="501" y="104" on="1"/>
      </contour>
    </TTGlyph>
    <TTGlyph name="EkOnkar.gm" xMin="36" yMin="-3" xMax="1319" yMax="876">
      <contour>
        <pt x="916" y="626" on="1"/>
        <pt x="900" y="673" on="0"/>
        <pt x="829" y="729" on="0"/>
        <pt x="775" y="729" on="1"/>
        <pt x="742" y="729" on="0"/>
        <pt x="688" y="706" on="0"/>
        <pt x="647" y="667" on="0"/>
        <pt x="619" y="613" on="0"/>
        <pt x="612" y="582" on="1"/>
        <pt x="1096" y="582" on="1"/>
        <pt x="1096" y="510" on="1"/>
        <pt x="1011" y="510" on="1"/>
        <pt x="1010" y="472" on="0"/>
        <pt x="988" y="408" on="0"/>
        <pt x="954" y="356" on="0"/>
        <pt x="910" y="319" on="0"/>
        <pt x="887" y="308" on="1"/>
        <pt x="922" y="291" on="0"/>
        <pt x="972" y="215" on="0"/>
        <pt x="972" y="164" on="1"/>
        <pt x="972" y="85" on="0"/>
        <pt x="863" y="-3" on="0"/>
        <pt x="773" y="-3" on="1"/>
        <pt x="718" y="-3" on="0"/>
        <pt x="621" y="36" on="0"/>
        <pt x="548" y="129" on="0"/>
        <pt x="505" y="283" on="0"/>
        <pt x="505" y="397" on="1"/>
        <pt x="505" y="507" on="0"/>
        <pt x="547" y="661" on="0"/>
        <pt x="619" y="758" on="0"/>
        <pt x="718" y="802" on="0"/>
        <pt x="775" y="802" on="1"/>
        <pt x="835" y="802" on="0"/>
        <pt x="928" y="750" on="0"/>
        <pt x="957" y="701" on="1"/>
        <pt x="975" y="750" on="0"/>
        <pt x="1052" y="786" on="0"/>
        <pt x="1105" y="792" on="1"/>
        <pt x="1163" y="798" on="1"/>
        <pt x="1198" y="801" on="0"/>
        <pt x="1249" y="831" on="0"/>
        <pt x="1254" y="876" on="1"/>
        <pt x="1319" y="876" on="1"/>
        <pt x="1319" y="868" on="1"/>
        <pt x="1319" y="796" on="0"/>
        <pt x="1246" y="729" on="0"/>
        <pt x="1177" y="722" on="1"/>
        <pt x="1109" y="715" on="1"/>
        <pt x="1061" y="710" on="0"/>
        <pt x="1016" y="675" on="0"/>
        <pt x="1008" y="636" on="1"/>
        <pt x="1006" y="626" on="1"/>
      </contour>
      <contour>
        <pt x="36" y="418" on="1"/>
        <pt x="36" y="457" on="0"/>
        <pt x="64" y="521" on="0"/>
        <pt x="113" y="565" on="0"/>
        <pt x="178" y="589" on="0"/>
        <pt x="216" y="589" on="1"/>
        <pt x="256" y="589" on="0"/>
        <pt x="321" y="565" on="0"/>
        <pt x="367" y="521" on="0"/>
        <pt x="393" y="461" on="0"/>
        <pt x="393" y="425" on="1"/>
        <pt x="393" y="123" on="1"/>
        <pt x="393" y="93" on="0"/>
        <pt x="422" y="71" on="0"/>
        <pt x="444" y="71" on="1"/>
        <pt x="455" y="71" on="1"/>
        <pt x="452" y="0" on="1"/>
        <pt x="447" y="-1" on="0"/>
        <pt x="434" y="-2" on="0"/>
        <pt x="429" y="-2" on="1"/>
        <pt x="370" y="-2" on="0"/>
        <pt x="307" y="63" on="0"/>
        <pt x="307" y="121" on="1"/>
        <pt x="307" y="277" on="1"/>
        <pt x="275" y="253" on="0"/>
        <pt x="214" y="253" on="1"/>
        <pt x="180" y="253" on="0"/>
        <pt x="116" y="273" on="0"/>
        <pt x="66" y="314" on="0"/>
        <pt x="36" y="376" on="0"/>
      </contour>
      <contour>
        <pt x="762" y="346" on="1"/>
        <pt x="796" y="346" on="0"/>
        <pt x="853" y="371" on="0"/>
        <pt x="895" y="415" on="0"/>
        <pt x="919" y="475" on="0"/>
        <pt x="921" y="510" on="1"/>
        <pt x="600" y="510" on="1"/>
        <pt x="595" y="478" on="0"/>
        <pt x="592" y="415" on="0"/>
        <pt x="592" y="386" on="1"/>
        <pt x="592" y="346" on="1"/>
      </contour>
      <contour>
        <pt x="883" y="167" on="1"/>
        <pt x="883" y="187" on="0"/>
        <pt x="868" y="226" on="0"/>
        <pt x="840" y="256" on="0"/>
        <pt x="800" y="274" on="0"/>
        <pt x="775" y="274" on="1"/>
        <pt x="599" y="274" on="1"/>
        <pt x="604" y="229" on="0"/>
        <pt x="630" y="154" on="0"/>
        <pt x="673" y="100" on="0"/>
        <pt x="733" y="70" on="0"/>
        <pt x="774" y="70" on="1"/>
        <pt x="825" y="70" on="0"/>
        <pt x="883" y="122" on="0"/>
      </contour>
      <contour>
        <pt x="124" y="419" on="1"/>
        <pt x="124" y="371" on="0"/>
        <pt x="181" y="326" on="0"/>
        <pt x="219" y="326" on="1"/>
        <pt x="249" y="326" on="0"/>
        <pt x="293" y="343" on="0"/>
        <pt x="308" y="357" on="1"/>
        <pt x="308" y="426" on="1"/>
        <pt x="308" y="468" on="0"/>
        <pt x="256" y="514" on="0"/>
        <pt x="216" y="514" on="1"/>
        <pt x="177" y="514" on="0"/>
        <pt x="124" y="463" on="0"/>
      </contour>
    </TTGlyph>
    <TTGlyph name="Ek_Type" xMin="100" yMin="-312" xMax="1089" yMax="636">
      <contour>
        <pt x="800" y="531" on="1"/>
        <pt x="800" y="403" on="1"/>
        <pt x="814" y="421" on="0"/>
        <pt x="867" y="447" on="0"/>
        <pt x="902" y="447" on="1"/>
        <pt x="977" y="447" on="0"/>
        <pt x="1062" y="351" on="0"/>
        <pt x="1062" y="266" on="1"/>
        <pt x="1062" y="224" on="0"/>
        <pt x="1037" y="156" on="0"/>
        <pt x="991" y="107" on="0"/>
        <pt x="925" y="81" on="0"/>
        <pt x="885" y="81" on="1"/>
        <pt x="876" y="81" on="0"/>
        <pt x="852" y="84" on="0"/>
        <pt x="841" y="87" on="1"/>
        <pt x="854" y="184" on="1"/>
        <pt x="869" y="184" on="1"/>
        <pt x="927" y="184" on="0"/>
        <pt x="927" y="266" on="1"/>
        <pt x="927" y="301" on="0"/>
        <pt x="894" y="340" on="0"/>
        <pt x="865" y="340" on="1"/>
        <pt x="836" y="340" on="0"/>
        <pt x="807" y="299" on="0"/>
        <pt x="803" y="276" on="1"/>
        <pt x="803" y="0" on="1"/>
        <pt x="672" y="0" on="1"/>
        <pt x="672" y="113" on="1"/>
        <pt x="657" y="95" on="0"/>
        <pt x="603" y="74" on="0"/>
        <pt x="579" y="74" on="1"/>
        <pt x="549" y="74" on="0"/>
        <pt x="489" y="94" on="0"/>
        <pt x="441" y="139" on="0"/>
        <pt x="411" y="211" on="0"/>
        <pt x="411" y="263" on="1"/>
        <pt x="411" y="353" on="0"/>
        <pt x="493" y="447" on="0"/>
        <pt x="568" y="447" on="1"/>
        <pt x="634" y="447" on="0"/>
        <pt x="672" y="411" on="1"/>
        <pt x="672" y="531" on="1"/>
        <pt x="330" y="531" on="1"/>
        <pt x="330" y="50" on="1"/>
        <pt x="549" y="-40" on="0"/>
        <pt x="818" y="-164" on="0"/>
        <pt x="883" y="-197" on="1"/>
        <pt x="822" y="-312" on="1"/>
        <pt x="778" y="-291" on="0"/>
        <pt x="661" y="-235" on="0"/>
        <pt x="507" y="-163" on="0"/>
        <pt x="314" y="-73" on="0"/>
        <pt x="195" y="-18" on="1"/>
        <pt x="195" y="531" on="1"/>
        <pt x="100" y="531" on="1"/>
        <pt x="100" y="636" on="1"/>
        <pt x="1089" y="636" on="1"/>
        <pt x="1089" y="531" on="1"/>
      </contour>
      <contour>
        <pt x="675" y="309" on="1"/>
        <pt x="665" y="320" on="0"/>
        <pt x="633" y="338" on="0"/>
        <pt x="613" y="338" on="1"/>
        <pt x="584" y="338" on="0"/>
        <pt x="548" y="297" on="0"/>
        <pt x="548" y="262" on="1"/>
        <pt x="548" y="225" on="0"/>
        <pt x="582" y="182" on="0"/>
        <pt x="611" y="182" on="1"/>
        <pt x="667" y="182" on="0"/>
        <pt x="675" y="236" on="1"/>
      </contour>
    </TTGlyph>
    <TTGlyph name="Emacron" xMin="76" yMin="0" xMax="469" yMax="772">
      <contour>
        <pt x="76" y="630" on="1"/>
        <pt x="466" y="630" on="1"/>
        <pt x="466" y="544" on="1"/>
        <pt x="183" y="544" on="1"/>
        <pt x="183" y="370" on="1"/>
        <pt x="440" y="370" on="1"/>
        <pt x="440" y="285" on="1"/>
        <pt x="183" y="285" on="1"/>
        <pt x="183" y="86" on="1"/>
        <pt x="469" y="86" on="1"/>
        <pt x="469" y="0" on="1"/>
        <pt x="76" y="0" on="1"/>
      </contour>
      <contour>
        <pt x="395" y="772" on="1"/>
        <pt x="395" y="705" on="1"/>
        <pt x="146" y="705" on="1"/>
        <pt x="146" y="772" on="1"/>
      </contour>
    </TTGlyph>
    <TTGlyph name="Eng" xMin="76" yMin="-242" xMax="596" yMax="630">
      <contour>
        <pt x="76" y="630" on="1"/>
        <pt x="171" y="630" on="1"/>
        <pt x="435" y="233" on="1"/>
        <pt x="453" y="207" on="0"/>
        <pt x="485" y="155" on="0"/>
        <pt x="496" y="134" on="1"/>
        <pt x="498" y="134" on="1"/>
        <pt x="493" y="208" on="0"/>
        <pt x="493" y="355" on="0"/>
        <pt x="493" y="430" on="1"/>
        <pt x="493" y="630" on="1"/>
        <pt x="596" y="630" on="1"/>
        <pt x="596" y="73" on="1"/>
        <pt x="596" y="16" on="0"/>
        <pt x="581" y="-80" on="0"/>
        <pt x="543" y="-158" on="0"/>
        <pt x="477" y="-219" on="0"/>
        <pt x="425" y="-242" on="1"/>
        <pt x="379" y="-168" on="1"/>
        <pt x="429" y="-142" on="0"/>
        <pt x="486" y="-70" on="0"/>
        <pt x="493" y="-8" on="1"/>
        <pt x="244" y="365" on="1"/>
        <pt x="225" y="392" on="0"/>
        <pt x="189" y="455" on="0"/>
        <pt x="176" y="480" on="1"/>
        <pt x="174" y="480" on="1"/>
        <pt x="179" y="402" on="0"/>
        <pt x="179" y="249" on="0"/>
        <pt x="179" y="172" on="1"/>
        <pt x="179" y="0" on="1"/>
        <pt x="76" y="0" on="1"/>
      </contour>
    </TTGlyph>
    <TTGlyph name="Eogonek" xMin="76" yMin="-206" xMax="496" yMax="630">
      <contour>
        <pt x="76" y="630" on="1"/>
        <pt x="466" y="630" on="1"/>
        <pt x="466" y="544" on="1"/>
        <pt x="183" y="544" on="1"/>
        <pt x="183" y="370" on="1"/>
        <pt x="440" y="370" on="1"/>
        <pt x="440" y="285" on="1"/>
        <pt x="183" y="285" on="1"/>
        <pt x="183" y="86" on="1"/>
        <pt x="469" y="86" on="1"/>
        <pt x="469" y="0" on="1"/>
        <pt x="431" y="-19" on="0"/>
        <pt x="383" y="-62" on="0"/>
        <pt x="383" y="-90" on="1"/>
        <pt x="383" y="-113" on="0"/>
        <pt x="411" y="-139" on="0"/>
        <pt x="434" y="-139" on="1"/>
        <pt x="448" y="-139" on="0"/>
        <pt x="472" y="-134" on="0"/>
        <pt x="482" y="-131" on="1"/>
        <pt x="496" y="-185" on="1"/>
        <pt x="463" y="-206" on="0"/>
        <pt x="415" y="-206" on="1"/>
        <pt x="369" y="-206" on="0"/>
        <pt x="308" y="-155" on="0"/>
        <pt x="308" y="-108" on="1"/>
        <pt x="308" y="-71" on="0"/>
        <pt x="351" y="-17" on="0"/>
        <pt x="379" y="-2" on="1"/>
        <pt x="379" y="0" on="1"/>
        <pt x="76" y="0" on="1"/>
      </contour>
    </TTGlyph>
    <TTGlyph name="Esmall" xMin="74" yMin="0" xMax="401" yMax="472">
      <contour>
        <pt x="74" y="472" on="1"/>
        <pt x="399" y="472" on="1"/>
        <pt x="399" y="394" on="1"/>
        <pt x="175" y="394" on="1"/>
        <pt x="175" y="281" on="1"/>
        <pt x="377" y="281" on="1"/>
        <pt x="377" y="204" on="1"/>
        <pt x="175" y="204" on="1"/>
        <pt x="175" y="78" on="1"/>
        <pt x="401" y="78" on="1"/>
        <pt x="401" y="0" on="1"/>
        <pt x="74" y="0" on="1"/>
      </contour>
    </TTGlyph>
    <TTGlyph name="Eth" xMin="27" yMin="0" xMax="635" yMax="630">
      <contour>
        <pt x="319" y="630" on="1"/>
        <pt x="388" y="630" on="0"/>
        <pt x="504" y="592" on="0"/>
        <pt x="588" y="517" on="0"/>
        <pt x="635" y="404" on="0"/>
        <pt x="635" y="329" on="1"/>
        <pt x="635" y="240" on="0"/>
        <pt x="579" y="115" on="0"/>
        <pt x="484" y="36" on="0"/>
        <pt x="357" y="0" on="0"/>
        <pt x="286" y="0" on="1"/>
        <pt x="109" y="0" on="1"/>
        <pt x="109" y="290" on="1"/>
        <pt x="27" y="290" on="1"/>
        <pt x="27" y="362" on="1"/>
        <pt x="109" y="362" on="1"/>
        <pt x="109" y="630" on="1"/>
      </contour>
      <contour>
        <pt x="340" y="362" on="1"/>
        <pt x="340" y="290" on="1"/>
        <pt x="216" y="290" on="1"/>
        <pt x="216" y="86" on="1"/>
        <pt x="277" y="86" on="1"/>
        <pt x="323" y="86" on="0"/>
        <pt x="411" y="107" on="0"/>
        <pt x="479" y="162" on="0"/>
        <pt x="520" y="256" on="0"/>
        <pt x="520" y="329" on="1"/>
        <pt x="520" y="433" on="0"/>
        <pt x="401" y="544" on="0"/>
        <pt x="301" y="544" on="1"/>
        <pt x="216" y="544" on="1"/>
        <pt x="216" y="362" on="1"/>
      </contour>
    </TTGlyph>
    <TTGlyph name="Euro" xMin="5" yMin="-9" xMax="489" yMax="595">
      <contour>
        <pt x="340" y="71" on="1"/>
        <pt x="380" y="71" on="0"/>
        <pt x="439" y="86" on="0"/>
        <pt x="466" y="100" on="1"/>
        <pt x="487" y="22" on="1"/>
        <pt x="458" y="8" on="0"/>
        <pt x="386" y="-9" on="0"/>
        <pt x="329" y="-9" on="1"/>
        <pt x="281" y="-9" on="0"/>
        <pt x="196" y="18" on="0"/>
        <pt x="129" y="71" on="0"/>
        <pt x="82" y="151" on="0"/>
        <pt x="72" y="204" on="1"/>
        <pt x="5" y="204" on="1"/>
        <pt x="5" y="256" on="1"/>
        <pt x="64" y="256" on="1"/>
        <pt x="63" y="271" on="0"/>
        <pt x="63" y="286" on="0"/>
        <pt x="63" y="294" on="1"/>
        <pt x="63" y="310" on="1"/>
        <pt x="5" y="310" on="1"/>
        <pt x="5" y="362" on="1"/>
        <pt x="72" y="362" on="1"/>
        <pt x="89" y="471" on="0"/>
        <pt x="224" y="595" on="0"/>
        <pt x="334" y="595" on="1"/>
        <pt x="363" y="595" on="0"/>
        <pt x="408" y="590" on="0"/>
        <pt x="444" y="580" on="0"/>
        <pt x="475" y="567" on="0"/>
        <pt x="489" y="560" on="1"/>
        <pt x="466" y="485" on="1"/>
        <pt x="434" y="499" on="0"/>
        <pt x="380" y="515" on="0"/>
        <pt x="345" y="515" on="1"/>
        <pt x="315" y="515" on="0"/>
        <pt x="257" y="496" on="0"/>
        <pt x="211" y="458" on="0"/>
        <pt x="179" y="400" on="0"/>
        <pt x="175" y="362" on="1"/>
        <pt x="418" y="362" on="1"/>
        <pt x="418" y="310" on="1"/>
        <pt x="167" y="310" on="1"/>
        <pt x="167" y="299" on="1"/>
        <pt x="167" y="289" on="0"/>
        <pt x="167" y="272" on="0"/>
        <pt x="168" y="256" on="1"/>
        <pt x="418" y="256" on="1"/>
        <pt x="418" y="204" on="1"/>
        <pt x="178" y="204" on="1"/>
        <pt x="185" y="168" on="0"/>
        <pt x="216" y="117" on="0"/>
        <pt x="259" y="85" on="0"/>
        <pt x="312" y="71" on="0"/>
      </contour>
    </TTGlyph>
    <TTGlyph name="Euro.lat" xMin="5" yMin="-10" xMax="526" yMax="640">
      <contour>
        <pt x="366" y="76" on="1"/>
        <pt x="409" y="76" on="0"/>
        <pt x="472" y="93" on="0"/>
        <pt x="501" y="107" on="1"/>
        <pt x="524" y="24" on="1"/>
        <pt x="492" y="9" on="0"/>
        <pt x="415" y="-10" on="0"/>
        <pt x="354" y="-10" on="1"/>
        <pt x="302" y="-10" on="0"/>
        <pt x="211" y="19" on="0"/>
        <pt x="138" y="77" on="0"/>
        <pt x="88" y="162" on="0"/>
        <pt x="77" y="219" on="1"/>
        <pt x="5" y="219" on="1"/>
        <pt x="5" y="275" on="1"/>
        <pt x="69" y="275" on="1"/>
        <pt x="68" y="292" on="0"/>
        <pt x="68" y="307" on="0"/>
        <pt x="68" y="316" on="1"/>
        <pt x="68" y="333" on="1"/>
        <pt x="5" y="333" on="1"/>
        <pt x="5" y="389" on="1"/>
        <pt x="77" y="389" on="1"/>
        <pt x="95" y="507" on="0"/>
        <pt x="241" y="640" on="0"/>
        <pt x="359" y="640" on="1"/>
        <pt x="390" y="640" on="0"/>
        <pt x="439" y="634" on="0"/>
        <pt x="478" y="624" on="0"/>
        <pt x="511" y="610" on="0"/>
        <pt x="526" y="602" on="1"/>
        <pt x="501" y="521" on="1"/>
        <pt x="467" y="537" on="0"/>
        <pt x="408" y="554" on="0"/>
        <pt x="371" y="554" on="1"/>
        <pt x="338" y="554" on="0"/>
        <pt x="277" y="533" on="0"/>
        <pt x="227" y="492" on="0"/>
        <pt x="193" y="430" on="0"/>
        <pt x="188" y="389" on="1"/>
        <pt x="450" y="389" on="1"/>
        <pt x="450" y="333" on="1"/>
        <pt x="180" y="333" on="1"/>
        <pt x="180" y="321" on="1"/>
        <pt x="180" y="310" on="0"/>
        <pt x="180" y="292" on="0"/>
        <pt x="181" y="275" on="1"/>
        <pt x="450" y="275" on="1"/>
        <pt x="450" y="219" on="1"/>
        <pt x="191" y="219" on="1"/>
        <pt x="198" y="180" on="0"/>
        <pt x="232" y="126" on="0"/>
        <pt x="279" y="91" on="0"/>
        <pt x="336" y="76" on="0"/>
      </contour>
    </TTGlyph>
    <TTGlyph name="F" xMin="76" yMin="0" xMax="456" yMax="630">
      <contour>
        <pt x="456" y="630" on="1"/>
        <pt x="456" y="544" on="1"/>
        <pt x="183" y="544" on="1"/>
        <pt x="183" y="352" on="1"/>
        <pt x="434" y="352" on="1"/>
        <pt x="434" y="267" on="1"/>
        <pt x="183" y="267" on="1"/>
        <pt x="183" y="0" on="1"/>
        <pt x="76" y="0" on="1"/>
        <pt x="76" y="630" on="1"/>
      </contour>
    </TTGlyph>
    <TTGlyph name="Fa.gm" xMin="-20" yMin="-72" xMax="577" yMax="582">
      <contour>
        <pt x="242" y="331" on="1"/>
        <pt x="191" y="331" on="0"/>
        <pt x="131" y="280" on="0"/>
        <pt x="131" y="232" on="1"/>
        <pt x="131" y="197" on="0"/>
        <pt x="157" y="142" on="0"/>
        <pt x="176" y="125" on="1"/>
        <pt x="216" y="180" on="0"/>
        <pt x="316" y="238" on="0"/>
        <pt x="372" y="238" on="1"/>
        <pt x="402" y="238" on="0"/>
        <pt x="452" y="223" on="0"/>
        <pt x="489" y="193" on="0"/>
        <pt x="510" y="151" on="0"/>
        <pt x="510" y="124" on="1"/>
        <pt x="510" y="97" on="0"/>
        <pt x="487" y="48" on="0"/>
        <pt x="442" y="11" on="0"/>
        <pt x="374" y="-10" on="0"/>
        <pt x="328" y="-10" on="1"/>
        <pt x="275" y="-10" on="0"/>
        <pt x="172" y="25" on="0"/>
        <pt x="91" y="88" on="0"/>
        <pt x="42" y="178" on="0"/>
        <pt x="42" y="234" on="1"/>
        <pt x="42" y="315" on="0"/>
        <pt x="144" y="405" on="0"/>
        <pt x="228" y="405" on="1"/>
        <pt x="392" y="405" on="1"/>
        <pt x="392" y="510" on="1"/>
        <pt x="-20" y="510" on="1"/>
        <pt x="-20" y="582" on="1"/>
        <pt x="577" y="582" on="1"/>
        <pt x="577" y="510" on="1"/>
        <pt x="479" y="510" on="1"/>
        <pt x="479" y="331" on="1"/>
      </contour>
      <contour>
        <pt x="370" y="171" on="1"/>
        <pt x="302" y="171" on="0"/>
        <pt x="236" y="82" on="1"/>
        <pt x="254" y="74" on="0"/>
        <pt x="301" y="63" on="0"/>
        <pt x="329" y="63" on="1"/>
        <pt x="375" y="63" on="0"/>
        <pt x="424" y="97" on="0"/>
        <pt x="424" y="124" on="1"/>
        <pt x="424" y="147" on="0"/>
        <pt x="393" y="171" on="0"/>
      </contour>
      <contour>
        <pt x="1" y="-20" on="1"/>
        <pt x="1" y="2" on="0"/>
        <pt x="32" y="34" on="0"/>
        <pt x="55" y="34" on="1"/>
        <pt x="78" y="34" on="0"/>
        <pt x="108" y="1" on="0"/>
        <pt x="108" y="-20" on="1"/>
        <pt x="108" y="-42" on="0"/>
        <pt x="78" y="-72" on="0"/>
        <pt x="55" y="-72" on="1"/>
        <pt x="32" y="-72" on="0"/>
        <pt x="1" y="-43" on="0"/>
      </contour>
    </TTGlyph>
    <TTGlyph name="FaVirama.gm" xMin="-20" yMin="-285" xMax="614" yMax="582">
      <contour>
        <pt x="242" y="331" on="1"/>
        <pt x="191" y="331" on="0"/>
        <pt x="131" y="280" on="0"/>
        <pt x="131" y="232" on="1"/>
        <pt x="131" y="197" on="0"/>
        <pt x="157" y="142" on="0"/>
        <pt x="176" y="125" on="1"/>
        <pt x="216" y="180" on="0"/>
        <pt x="316" y="238" on="0"/>
        <pt x="372" y="238" on="1"/>
        <pt x="402" y="238" on="0"/>
        <pt x="452" y="223" on="0"/>
        <pt x="489" y="193" on="0"/>
        <pt x="510" y="151" on="0"/>
        <pt x="510" y="124" on="1"/>
        <pt x="510" y="97" on="0"/>
        <pt x="487" y="48" on="0"/>
        <pt x="442" y="11" on="0"/>
        <pt x="374" y="-10" on="0"/>
        <pt x="328" y="-10" on="1"/>
        <pt x="275" y="-10" on="0"/>
        <pt x="172" y="25" on="0"/>
        <pt x="91" y="88" on="0"/>
        <pt x="42" y="178" on="0"/>
        <pt x="42" y="234" on="1"/>
        <pt x="42" y="315" on="0"/>
        <pt x="144" y="405" on="0"/>
        <pt x="228" y="405" on="1"/>
        <pt x="392" y="405" on="1"/>
        <pt x="392" y="510" on="1"/>
        <pt x="-20" y="510" on="1"/>
        <pt x="-20" y="582" on="1"/>
        <pt x="577" y="582" on="1"/>
        <pt x="577" y="510" on="1"/>
        <pt x="479" y="510" on="1"/>
        <pt x="479" y="331" on="1"/>
      </contour>
      <contour>
        <pt x="370" y="171" on="1"/>
        <pt x="302" y="171" on="0"/>
        <pt x="236" y="82" on="1"/>
        <pt x="254" y="74" on="0"/>
        <pt x="301" y="63" on="0"/>
        <pt x="329" y="63" on="1"/>
        <pt x="375" y="63" on="0"/>
        <pt x="424" y="97" on="0"/>
        <pt x="424" y="124" on="1"/>
        <pt x="424" y="147" on="0"/>
        <pt x="393" y="171" on="0"/>
      </contour>
      <contour>
        <pt x="6" y="-19" on="1"/>
        <pt x="6" y="3" on="0"/>
        <pt x="37" y="35" on="0"/>
        <pt x="60" y="35" on="1"/>
        <pt x="83" y="35" on="0"/>
        <pt x="113" y="2" on="0"/>
        <pt x="113" y="-19" on="1"/>
        <pt x="113" y="-41" on="0"/>
        <pt x="83" y="-71" on="0"/>
        <pt x="60" y="-71" on="1"/>
        <pt x="37" y="-71" on="0"/>
        <pt x="6" y="-42" on="0"/>
      </contour>
      <contour>
        <pt x="614" y="-232" on="1"/>
        <pt x="569" y="-285" on="1"/>
        <pt x="349" y="-121" on="1"/>
        <pt x="401" y="-55" on="1"/>
      </contour>
    </TTGlyph>
    <TTGlyph name="Five.gm" xMin="36" yMin="0" xMax="490" yMax="590">
      <contour>
        <pt x="401" y="142" on="1"/>
        <pt x="378" y="128" on="0"/>
        <pt x="311" y="109" on="0"/>
        <pt x="266" y="109" on="1"/>
        <pt x="185" y="109" on="0"/>
        <pt x="67" y="183" on="0"/>
        <pt x="36" y="240" on="1"/>
        <pt x="61" y="284" on="0"/>
        <pt x="94" y="372" on="0"/>
        <pt x="94" y="422" on="1"/>
        <pt x="94" y="467" on="0"/>
        <pt x="74" y="536" on="0"/>
        <pt x="64" y="559" on="1"/>
        <pt x="137" y="590" on="1"/>
        <pt x="155" y="558" on="0"/>
        <pt x="183" y="469" on="0"/>
        <pt x="183" y="421" on="1"/>
        <pt x="183" y="365" on="0"/>
        <pt x="156" y="283" on="0"/>
        <pt x="134" y="244" on="1"/>
        <pt x="154" y="215" on="0"/>
        <pt x="224" y="183" on="0"/>
        <pt x="269" y="183" on="1"/>
        <pt x="314" y="183" on="0"/>
        <pt x="378" y="209" on="0"/>
        <pt x="401" y="232" on="1"/>
        <pt x="401" y="585" on="1"/>
        <pt x="490" y="585" on="1"/>
        <pt x="490" y="0" on="1"/>
        <pt x="401" y="0" on="1"/>
      </contour>
    </TTGlyph>
    <TTGlyph name="Four.gm" xMin="54" yMin="-7" xMax="503" yMax="590">
      <contour>
        <pt x="280" y="336" on="1"/>
        <pt x="338" y="344" on="0"/>
        <pt x="417" y="399" on="0"/>
        <pt x="417" y="442" on="1"/>
        <pt x="417" y="461" on="0"/>
        <pt x="404" y="487" on="0"/>
        <pt x="383" y="506" on="0"/>
        <pt x="359" y="518" on="0"/>
        <pt x="348" y="523" on="1"/>
        <pt x="375" y="589" on="1"/>
        <pt x="431" y="574" on="0"/>
        <pt x="503" y="499" on="0"/>
        <pt x="503" y="442" on="1"/>
        <pt x="503" y="413" on="0"/>
        <pt x="483" y="367" on="0"/>
        <pt x="452" y="332" on="0"/>
        <pt x="413" y="308" on="0"/>
        <pt x="394" y="301" on="1"/>
        <pt x="444" y="279" on="0"/>
        <pt x="493" y="203" on="0"/>
        <pt x="493" y="159" on="1"/>
        <pt x="493" y="122" on="0"/>
        <pt x="463" y="61" on="0"/>
        <pt x="407" y="17" on="0"/>
        <pt x="327" y="-7" on="0"/>
        <pt x="278" y="-7" on="1"/>
        <pt x="230" y="-7" on="0"/>
        <pt x="151" y="16" on="0"/>
        <pt x="95" y="59" on="0"/>
        <pt x="64" y="121" on="0"/>
        <pt x="64" y="159" on="1"/>
        <pt x="64" y="214" on="0"/>
        <pt x="121" y="284" on="0"/>
        <pt x="162" y="301" on="1"/>
        <pt x="141" y="308" on="0"/>
        <pt x="102" y="333" on="0"/>
        <pt x="72" y="368" on="0"/>
        <pt x="54" y="415" on="0"/>
        <pt x="54" y="445" on="1"/>
        <pt x="54" y="476" on="0"/>
        <pt x="74" y="525" on="0"/>
        <pt x="108" y="561" on="0"/>
        <pt x="151" y="584" on="0"/>
        <pt x="174" y="590" on="1"/>
        <pt x="200" y="523" on="1"/>
        <pt x="178" y="512" on="0"/>
        <pt x="141" y="479" on="0"/>
        <pt x="141" y="442" on="1"/>
        <pt x="141" y="402" on="0"/>
        <pt x="215" y="344" on="0"/>
      </contour>
      <contour>
        <pt x="279" y="271" on="1"/>
        <pt x="222" y="261" on="0"/>
        <pt x="154" y="206" on="0"/>
        <pt x="154" y="163" on="1"/>
        <pt x="154" y="119" on="0"/>
        <pt x="225" y="68" on="0"/>
        <pt x="279" y="68" on="1"/>
        <pt x="336" y="68" on="0"/>
        <pt x="403" y="119" on="0"/>
        <pt x="403" y="164" on="1"/>
        <pt x="403" y="204" on="0"/>
        <pt x="336" y="261" on="0"/>
      </contour>
    </TTGlyph>
    <TTGlyph name="Fsmall" xMin="74" yMin="0" xMax="390" yMax="472">
      <contour>
        <pt x="390" y="472" on="1"/>
        <pt x="390" y="394" on="1"/>
        <pt x="177" y="394" on="1"/>
        <pt x="177" y="267" on="1"/>
        <pt x="372" y="267" on="1"/>
        <pt x="372" y="189" on="1"/>
        <pt x="177" y="189" on="1"/>
        <pt x="177" y="0" on="1"/>
        <pt x="74" y="0" on="1"/>
        <pt x="74" y="472" on="1"/>
      </contour>
    </TTGlyph>
    <TTGlyph name="G" xMin="43" yMin="-10" xMax="567" yMax="640">
      <contour>
        <pt x="360" y="640" on="1"/>
        <pt x="470" y="640" on="0"/>
        <pt x="544" y="603" on="1"/>
        <pt x="520" y="524" on="1"/>
        <pt x="484" y="541" on="0"/>
        <pt x="411" y="557" on="0"/>
        <pt x="372" y="557" on="1"/>
        <pt x="329" y="557" on="0"/>
        <pt x="252" y="531" on="0"/>
        <pt x="193" y="473" on="0"/>
        <pt x="158" y="381" on="0"/>
        <pt x="158" y="314" on="1"/>
        <pt x="158" y="197" on="0"/>
        <pt x="264" y="74" on="0"/>
        <pt x="361" y="74" on="1"/>
        <pt x="395" y="74" on="0"/>
        <pt x="444" y="81" on="0"/>
        <pt x="466" y="89" on="1"/>
        <pt x="466" y="255" on="1"/>
        <pt x="352" y="255" on="1"/>
        <pt x="352" y="337" on="1"/>
        <pt x="567" y="337" on="1"/>
        <pt x="567" y="28" on="1"/>
        <pt x="527" y="12" on="0"/>
        <pt x="427" y="-10" on="0"/>
        <pt x="360" y="-10" on="1"/>
        <pt x="294" y="-10" on="0"/>
        <pt x="178" y="32" on="0"/>
        <pt x="92" y="114" on="0"/>
        <pt x="43" y="235" on="0"/>
        <pt x="43" y="314" on="1"/>
        <pt x="43" y="393" on="0"/>
        <pt x="91" y="515" on="0"/>
        <pt x="176" y="598" on="0"/>
        <pt x="292" y="640" on="0"/>
      </contour>
    </TTGlyph>
    <TTGlyph name="Ga.gm" xMin="-20" yMin="-8" xMax="762" yMax="582">
      <contour>
        <pt x="-20" y="582" on="1"/>
        <pt x="762" y="582" on="1"/>
        <pt x="762" y="510" on="1"/>
        <pt x="662" y="510" on="1"/>
        <pt x="662" y="0" on="1"/>
        <pt x="573" y="0" on="1"/>
        <pt x="573" y="510" on="1"/>
        <pt x="425" y="510" on="1"/>
        <pt x="425" y="134" on="1"/>
        <pt x="425" y="65" on="0"/>
        <pt x="337" y="-8" on="0"/>
        <pt x="259" y="-8" on="1"/>
        <pt x="212" y="-8" on="0"/>
        <pt x="132" y="27" on="0"/>
        <pt x="72" y="87" on="0"/>
        <pt x="38" y="169" on="0"/>
        <pt x="38" y="217" on="1"/>
        <pt x="38" y="256" on="0"/>
        <pt x="62" y="315" on="0"/>
        <pt x="105" y="353" on="0"/>
        <pt x="163" y="372" on="0"/>
        <pt x="197" y="372" on="1"/>
        <pt x="336" y="372" on="1"/>
        <pt x="336" y="510" on="1"/>
        <pt x="-20" y="510" on="1"/>
      </contour>
      <contour>
        <pt x="260" y="66" on="1"/>
        <pt x="296" y="66" on="0"/>
        <pt x="336" y="103" on="0"/>
        <pt x="336" y="143" on="1"/>
        <pt x="336" y="298" on="1"/>
        <pt x="211" y="298" on="1"/>
        <pt x="168" y="298" on="0"/>
        <pt x="126" y="251" on="0"/>
        <pt x="126" y="216" on="1"/>
        <pt x="126" y="183" on="0"/>
        <pt x="149" y="128" on="0"/>
        <pt x="187" y="88" on="0"/>
        <pt x="235" y="66" on="0"/>
      </contour>
    </TTGlyph>
    <TTGlyph name="GaVirama.gm" xMin="-20" yMin="-285" xMax="833" yMax="582">
      <contour>
        <pt x="-20" y="582" on="1"/>
        <pt x="762" y="582" on="1"/>
        <pt x="762" y="510" on="1"/>
        <pt x="662" y="510" on="1"/>
        <pt x="662" y="0" on="1"/>
        <pt x="573" y="0" on="1"/>
        <pt x="573" y="510" on="1"/>
        <pt x="425" y="510" on="1"/>
        <pt x="425" y="134" on="1"/>
        <pt x="425" y="65" on="0"/>
        <pt x="337" y="-8" on="0"/>
        <pt x="259" y="-8" on="1"/>
        <pt x="212" y="-8" on="0"/>
        <pt x="132" y="27" on="0"/>
        <pt x="72" y="87" on="0"/>
        <pt x="38" y="169" on="0"/>
        <pt x="38" y="217" on="1"/>
        <pt x="38" y="256" on="0"/>
        <pt x="62" y="315" on="0"/>
        <pt x="105" y="353" on="0"/>
        <pt x="163" y="372" on="0"/>
        <pt x="197" y="372" on="1"/>
        <pt x="336" y="372" on="1"/>
        <pt x="336" y="510" on="1"/>
        <pt x="-20" y="510" on="1"/>
      </contour>
      <contour>
        <pt x="260" y="66" on="1"/>
        <pt x="296" y="66" on="0"/>
        <pt x="336" y="103" on="0"/>
        <pt x="336" y="143" on="1"/>
        <pt x="336" y="298" on="1"/>
        <pt x="211" y="298" on="1"/>
        <pt x="168" y="298" on="0"/>
        <pt x="126" y="251" on="0"/>
        <pt x="126" y="216" on="1"/>
        <pt x="126" y="183" on="0"/>
        <pt x="149" y="128" on="0"/>
        <pt x="187" y="88" on="0"/>
        <pt x="235" y="66" on="0"/>
      </contour>
      <contour>
        <pt x="833" y="-232" on="1"/>
        <pt x="788" y="-285" on="1"/>
        <pt x="568" y="-121" on="1"/>
        <pt x="620" y="-55" on="1"/>
      </contour>
    </TTGlyph>
    <TTGlyph name="Gbreve" xMin="43" yMin="-10" xMax="567" yMax="838">
      <contour>
        <pt x="360" y="640" on="1"/>
        <pt x="470" y="640" on="0"/>
        <pt x="544" y="603" on="1"/>
        <pt x="520" y="524" on="1"/>
        <pt x="484" y="541" on="0"/>
        <pt x="411" y="557" on="0"/>
        <pt x="372" y="557" on="1"/>
        <pt x="329" y="557" on="0"/>
        <pt x="252" y="531" on="0"/>
        <pt x="193" y="473" on="0"/>
        <pt x="158" y="381" on="0"/>
        <pt x="158" y="314" on="1"/>
        <pt x="158" y="197" on="0"/>
        <pt x="264" y="74" on="0"/>
        <pt x="361" y="74" on="1"/>
        <pt x="395" y="74" on="0"/>
        <pt x="444" y="81" on="0"/>
        <pt x="466" y="89" on="1"/>
        <pt x="466" y="255" on="1"/>
        <pt x="352" y="255" on="1"/>
        <pt x="352" y="337" on="1"/>
        <pt x="567" y="337" on="1"/>
        <pt x="567" y="28" on="1"/>
        <pt x="527" y="12" on="0"/>
        <pt x="427" y="-10" on="0"/>
        <pt x="360" y="-10" on="1"/>
        <pt x="294" y="-10" on="0"/>
        <pt x="178" y="32" on="0"/>
        <pt x="92" y="114" on="0"/>
        <pt x="43" y="235" on="0"/>
        <pt x="43" y="314" on="1"/>
        <pt x="43" y="393" on="0"/>
        <pt x="91" y="515" on="0"/>
        <pt x="176" y="598" on="0"/>
        <pt x="292" y="640" on="0"/>
      </contour>
      <contour>
        <pt x="296" y="838" on="1"/>
        <pt x="299" y="808" on="0"/>
        <pt x="326" y="773" on="0"/>
        <pt x="363" y="773" on="1"/>
        <pt x="395" y="773" on="0"/>
        <pt x="427" y="806" on="0"/>
        <pt x="430" y="838" on="1"/>
        <pt x="497" y="838" on="1"/>
        <pt x="497" y="782" on="0"/>
        <pt x="428" y="713" on="0"/>
        <pt x="363" y="713" on="1"/>
        <pt x="327" y="713" on="0"/>
        <pt x="276" y="734" on="0"/>
        <pt x="243" y="769" on="0"/>
        <pt x="228" y="814" on="0"/>
        <pt x="228" y="838" on="1"/>
      </contour>
    </TTGlyph>
    <TTGlyph name="Gcircumflex" xMin="43" yMin="-10" xMax="567" yMax="836">
      <contour>
        <pt x="360" y="640" on="1"/>
        <pt x="470" y="640" on="0"/>
        <pt x="544" y="603" on="1"/>
        <pt x="520" y="524" on="1"/>
        <pt x="484" y="541" on="0"/>
        <pt x="411" y="557" on="0"/>
        <pt x="372" y="557" on="1"/>
        <pt x="329" y="557" on="0"/>
        <pt x="252" y="531" on="0"/>
        <pt x="193" y="473" on="0"/>
        <pt x="158" y="381" on="0"/>
        <pt x="158" y="314" on="1"/>
        <pt x="158" y="197" on="0"/>
        <pt x="264" y="74" on="0"/>
        <pt x="361" y="74" on="1"/>
        <pt x="395" y="74" on="0"/>
        <pt x="444" y="81" on="0"/>
        <pt x="466" y="89" on="1"/>
        <pt x="466" y="255" on="1"/>
        <pt x="352" y="255" on="1"/>
        <pt x="352" y="337" on="1"/>
        <pt x="567" y="337" on="1"/>
        <pt x="567" y="28" on="1"/>
        <pt x="527" y="12" on="0"/>
        <pt x="427" y="-10" on="0"/>
        <pt x="360" y="-10" on="1"/>
        <pt x="294" y="-10" on="0"/>
        <pt x="178" y="32" on="0"/>
        <pt x="92" y="114" on="0"/>
        <pt x="43" y="235" on="0"/>
        <pt x="43" y="314" on="1"/>
        <pt x="43" y="393" on="0"/>
        <pt x="91" y="515" on="0"/>
        <pt x="176" y="598" on="0"/>
        <pt x="292" y="640" on="0"/>
      </contour>
      <contour>
        <pt x="303" y="836" on="1"/>
        <pt x="382" y="836" on="1"/>
        <pt x="504" y="705" on="1"/>
        <pt x="417" y="705" on="1"/>
        <pt x="342" y="784" on="1"/>
        <pt x="267" y="705" on="1"/>
        <pt x="183" y="705" on="1"/>
      </contour>
    </TTGlyph>
    <TTGlyph name="Gcommaaccent" xMin="43" yMin="-323" xMax="567" yMax="640">
      <contour>
        <pt x="360" y="640" on="1"/>
        <pt x="470" y="640" on="0"/>
        <pt x="544" y="603" on="1"/>
        <pt x="520" y="524" on="1"/>
        <pt x="484" y="541" on="0"/>
        <pt x="411" y="557" on="0"/>
        <pt x="372" y="557" on="1"/>
        <pt x="329" y="557" on="0"/>
        <pt x="252" y="531" on="0"/>
        <pt x="193" y="473" on="0"/>
        <pt x="158" y="381" on="0"/>
        <pt x="158" y="314" on="1"/>
        <pt x="158" y="197" on="0"/>
        <pt x="264" y="74" on="0"/>
        <pt x="361" y="74" on="1"/>
        <pt x="395" y="74" on="0"/>
        <pt x="444" y="81" on="0"/>
        <pt x="466" y="89" on="1"/>
        <pt x="466" y="255" on="1"/>
        <pt x="352" y="255" on="1"/>
        <pt x="352" y="337" on="1"/>
        <pt x="567" y="337" on="1"/>
        <pt x="567" y="28" on="1"/>
        <pt x="527" y="12" on="0"/>
        <pt x="427" y="-10" on="0"/>
        <pt x="360" y="-10" on="1"/>
        <pt x="294" y="-10" on="0"/>
        <pt x="178" y="32" on="0"/>
        <pt x="92" y="114" on="0"/>
        <pt x="43" y="235" on="0"/>
        <pt x="43" y="314" on="1"/>
        <pt x="43" y="393" on="0"/>
        <pt x="91" y="515" on="0"/>
        <pt x="176" y="598" on="0"/>
        <pt x="292" y="640" on="0"/>
      </contour>
      <contour>
        <pt x="345" y="-187" on="1"/>
        <pt x="327" y="-184" on="0"/>
        <pt x="292" y="-153" on="0"/>
        <pt x="292" y="-126" on="1"/>
        <pt x="292" y="-101" on="0"/>
        <pt x="325" y="-65" on="0"/>
        <pt x="354" y="-65" on="1"/>
        <pt x="366" y="-65" on="0"/>
        <pt x="392" y="-75" on="0"/>
        <pt x="413" y="-97" on="0"/>
        <pt x="427" y="-131" on="0"/>
        <pt x="427" y="-156" on="1"/>
        <pt x="427" y="-181" on="0"/>
        <pt x="410" y="-230" on="0"/>
        <pt x="380" y="-274" on="0"/>
        <pt x="339" y="-311" on="0"/>
        <pt x="316" y="-323" on="1"/>
        <pt x="289" y="-286" on="1"/>
        <pt x="316" y="-269" on="0"/>
        <pt x="360" y="-217" on="0"/>
        <pt x="363" y="-191" on="1"/>
      </contour>
    </TTGlyph>
    <TTGlyph name="Gdotaccent" xMin="43" yMin="-10" xMax="567" yMax="820">
      <contour>
        <pt x="360" y="640" on="1"/>
        <pt x="470" y="640" on="0"/>
        <pt x="544" y="603" on="1"/>
        <pt x="520" y="524" on="1"/>
        <pt x="484" y="541" on="0"/>
        <pt x="411" y="557" on="0"/>
        <pt x="372" y="557" on="1"/>
        <pt x="329" y="557" on="0"/>
        <pt x="252" y="531" on="0"/>
        <pt x="193" y="473" on="0"/>
        <pt x="158" y="381" on="0"/>
        <pt x="158" y="314" on="1"/>
        <pt x="158" y="197" on="0"/>
        <pt x="264" y="74" on="0"/>
        <pt x="361" y="74" on="1"/>
        <pt x="395" y="74" on="0"/>
        <pt x="444" y="81" on="0"/>
        <pt x="466" y="89" on="1"/>
        <pt x="466" y="255" on="1"/>
        <pt x="352" y="255" on="1"/>
        <pt x="352" y="337" on="1"/>
        <pt x="567" y="337" on="1"/>
        <pt x="567" y="28" on="1"/>
        <pt x="527" y="12" on="0"/>
        <pt x="427" y="-10" on="0"/>
        <pt x="360" y="-10" on="1"/>
        <pt x="294" y="-10" on="0"/>
        <pt x="178" y="32" on="0"/>
        <pt x="92" y="114" on="0"/>
        <pt x="43" y="235" on="0"/>
        <pt x="43" y="314" on="1"/>
        <pt x="43" y="393" on="0"/>
        <pt x="91" y="515" on="0"/>
        <pt x="176" y="598" on="0"/>
        <pt x="292" y="640" on="0"/>
      </contour>
      <contour>
        <pt x="301" y="762" on="1"/>
        <pt x="301" y="785" on="0"/>
        <pt x="337" y="820" on="0"/>
        <pt x="360" y="820" on="1"/>
        <pt x="385" y="820" on="0"/>
        <pt x="419" y="785" on="0"/>
        <pt x="419" y="762" on="1"/>
        <pt x="419" y="737" on="0"/>
        <pt x="385" y="702" on="0"/>
        <pt x="360" y="702" on="1"/>
        <pt x="337" y="702" on="0"/>
        <pt x="301" y="737" on="0"/>
      </contour>
    </TTGlyph>
    <TTGlyph name="Gha.gm" xMin="-30" yMin="0" xMax="747" yMax="587">
      <contour>
        <pt x="144" y="582" on="1"/>
        <pt x="160" y="553" on="0"/>
        <pt x="187" y="462" on="0"/>
        <pt x="187" y="417" on="1"/>
        <pt x="187" y="361" on="0"/>
        <pt x="160" y="275" on="0"/>
        <pt x="138" y="234" on="1"/>
        <pt x="149" y="206" on="0"/>
        <pt x="200" y="174" on="0"/>
        <pt x="231" y="174" on="1"/>
        <pt x="265" y="174" on="0"/>
        <pt x="320" y="206" on="0"/>
        <pt x="324" y="235" on="1"/>
        <pt x="319" y="576" on="1"/>
        <pt x="328" y="581" on="0"/>
        <pt x="351" y="587" on="0"/>
        <pt x="362" y="587" on="1"/>
        <pt x="383" y="587" on="0"/>
        <pt x="409" y="565" on="0"/>
        <pt x="410" y="537" on="1"/>
        <pt x="410" y="528" on="0"/>
        <pt x="409" y="452" on="0"/>
        <pt x="407" y="356" on="0"/>
        <pt x="405" y="261" on="0"/>
        <pt x="405" y="233" on="1"/>
        <pt x="409" y="210" on="0"/>
        <pt x="453" y="178" on="0"/>
        <pt x="488" y="178" on="1"/>
        <pt x="513" y="178" on="0"/>
        <pt x="548" y="195" on="0"/>
        <pt x="558" y="208" on="1"/>
        <pt x="558" y="582" on="1"/>
        <pt x="747" y="582" on="1"/>
        <pt x="747" y="510" on="1"/>
        <pt x="646" y="510" on="1"/>
        <pt x="646" y="0" on="1"/>
        <pt x="558" y="0" on="1"/>
        <pt x="558" y="124" on="1"/>
        <pt x="530" y="104" on="0"/>
        <pt x="485" y="104" on="1"/>
        <pt x="447" y="104" on="0"/>
        <pt x="385" y="132" on="0"/>
        <pt x="365" y="160" on="1"/>
        <pt x="345" y="132" on="0"/>
        <pt x="274" y="100" on="0"/>
        <pt x="225" y="100" on="1"/>
        <pt x="158" y="100" on="0"/>
        <pt x="61" y="168" on="0"/>
        <pt x="40" y="230" on="1"/>
        <pt x="55" y="258" on="0"/>
        <pt x="77" y="305" on="0"/>
        <pt x="91" y="351" on="0"/>
        <pt x="98" y="398" on="0"/>
        <pt x="98" y="425" on="1"/>
        <pt x="98" y="471" on="0"/>
        <pt x="83" y="510" on="1"/>
        <pt x="-30" y="510" on="1"/>
        <pt x="-30" y="582" on="1"/>
        <pt x="144" y="582" on="1"/>
      </contour>
    </TTGlyph>
    <TTGlyph name="GhaVirama.gm" xMin="-30" yMin="-285" xMax="820" yMax="587">
      <contour>
        <pt x="144" y="582" on="1"/>
        <pt x="160" y="553" on="0"/>
        <pt x="187" y="462" on="0"/>
        <pt x="187" y="417" on="1"/>
        <pt x="187" y="361" on="0"/>
        <pt x="160" y="275" on="0"/>
        <pt x="138" y="234" on="1"/>
        <pt x="149" y="206" on="0"/>
        <pt x="200" y="174" on="0"/>
        <pt x="231" y="174" on="1"/>
        <pt x="265" y="174" on="0"/>
        <pt x="320" y="206" on="0"/>
        <pt x="324" y="235" on="1"/>
        <pt x="319" y="576" on="1"/>
        <pt x="328" y="581" on="0"/>
        <pt x="351" y="587" on="0"/>
        <pt x="362" y="587" on="1"/>
        <pt x="383" y="587" on="0"/>
        <pt x="409" y="565" on="0"/>
        <pt x="410" y="537" on="1"/>
        <pt x="410" y="528" on="0"/>
        <pt x="409" y="452" on="0"/>
        <pt x="407" y="356" on="0"/>
        <pt x="405" y="261" on="0"/>
        <pt x="405" y="233" on="1"/>
        <pt x="409" y="210" on="0"/>
        <pt x="453" y="178" on="0"/>
        <pt x="488" y="178" on="1"/>
        <pt x="513" y="178" on="0"/>
        <pt x="548" y="195" on="0"/>
        <pt x="558" y="208" on="1"/>
        <pt x="558" y="582" on="1"/>
        <pt x="747" y="582" on="1"/>
        <pt x="747" y="510" on="1"/>
        <pt x="646" y="510" on="1"/>
        <pt x="646" y="0" on="1"/>
        <pt x="558" y="0" on="1"/>
        <pt x="558" y="124" on="1"/>
        <pt x="530" y="104" on="0"/>
        <pt x="485" y="104" on="1"/>
        <pt x="447" y="104" on="0"/>
        <pt x="385" y="132" on="0"/>
        <pt x="365" y="160" on="1"/>
        <pt x="345" y="132" on="0"/>
        <pt x="274" y="100" on="0"/>
        <pt x="225" y="100" on="1"/>
        <pt x="158" y="100" on="0"/>
        <pt x="61" y="168" on="0"/>
        <pt x="40" y="230" on="1"/>
        <pt x="55" y="258" on="0"/>
        <pt x="77" y="305" on="0"/>
        <pt x="91" y="351" on="0"/>
        <pt x="98" y="398" on="0"/>
        <pt x="98" y="425" on="1"/>
        <pt x="98" y="471" on="0"/>
        <pt x="83" y="510" on="1"/>
        <pt x="-30" y="510" on="1"/>
        <pt x="-30" y="582" on="1"/>
      </contour>
      <contour>
        <pt x="820" y="-232" on="1"/>
        <pt x="775" y="-285" on="1"/>
        <pt x="555" y="-121" on="1"/>
        <pt x="607" y="-55" on="1"/>
      </contour>
    </TTGlyph>
    <TTGlyph name="Ghha.gm" xMin="-35" yMin="-72" xMax="762" yMax="582">
      <contour>
        <pt x="-35" y="582" on="1"/>
        <pt x="762" y="582" on="1"/>
        <pt x="762" y="510" on="1"/>
        <pt x="662" y="510" on="1"/>
        <pt x="662" y="0" on="1"/>
        <pt x="573" y="0" on="1"/>
        <pt x="573" y="510" on="1"/>
        <pt x="425" y="510" on="1"/>
        <pt x="425" y="134" on="1"/>
        <pt x="425" y="65" on="0"/>
        <pt x="337" y="-8" on="0"/>
        <pt x="259" y="-8" on="1"/>
        <pt x="212" y="-8" on="0"/>
        <pt x="132" y="27" on="0"/>
        <pt x="72" y="87" on="0"/>
        <pt x="38" y="169" on="0"/>
        <pt x="38" y="217" on="1"/>
        <pt x="38" y="256" on="0"/>
        <pt x="62" y="315" on="0"/>
        <pt x="105" y="353" on="0"/>
        <pt x="163" y="372" on="0"/>
        <pt x="197" y="372" on="1"/>
        <pt x="336" y="372" on="1"/>
        <pt x="336" y="510" on="1"/>
        <pt x="-35" y="510" on="1"/>
      </contour>
      <contour>
        <pt x="260" y="66" on="1"/>
        <pt x="296" y="66" on="0"/>
        <pt x="336" y="103" on="0"/>
        <pt x="336" y="143" on="1"/>
        <pt x="336" y="298" on="1"/>
        <pt x="211" y="298" on="1"/>
        <pt x="168" y="298" on="0"/>
        <pt x="126" y="251" on="0"/>
        <pt x="126" y="216" on="1"/>
        <pt x="126" y="183" on="0"/>
        <pt x="149" y="128" on="0"/>
        <pt x="187" y="88" on="0"/>
        <pt x="235" y="66" on="0"/>
      </contour>
      <contour>
        <pt x="-24" y="-20" on="1"/>
        <pt x="-24" y="2" on="0"/>
        <pt x="7" y="34" on="0"/>
        <pt x="30" y="34" on="1"/>
        <pt x="53" y="34" on="0"/>
        <pt x="83" y="1" on="0"/>
        <pt x="83" y="-20" on="1"/>
        <pt x="83" y="-42" on="0"/>
        <pt x="53" y="-72" on="0"/>
        <pt x="30" y="-72" on="1"/>
        <pt x="7" y="-72" on="0"/>
        <pt x="-24" y="-43" on="0"/>
      </contour>
    </TTGlyph>
    <TTGlyph name="GhhaVirama.gm" xMin="-35" yMin="-285" xMax="832" yMax="582">
      <contour>
        <pt x="-35" y="582" on="1"/>
        <pt x="762" y="582" on="1"/>
        <pt x="762" y="510" on="1"/>
        <pt x="662" y="510" on="1"/>
        <pt x="662" y="0" on="1"/>
        <pt x="573" y="0" on="1"/>
        <pt x="573" y="510" on="1"/>
        <pt x="425" y="510" on="1"/>
        <pt x="425" y="134" on="1"/>
        <pt x="425" y="65" on="0"/>
        <pt x="337" y="-8" on="0"/>
        <pt x="259" y="-8" on="1"/>
        <pt x="212" y="-8" on="0"/>
        <pt x="132" y="27" on="0"/>
        <pt x="72" y="87" on="0"/>
        <pt x="38" y="169" on="0"/>
        <pt x="38" y="217" on="1"/>
        <pt x="38" y="256" on="0"/>
        <pt x="62" y="315" on="0"/>
        <pt x="105" y="353" on="0"/>
        <pt x="163" y="372" on="0"/>
        <pt x="197" y="372" on="1"/>
        <pt x="336" y="372" on="1"/>
        <pt x="336" y="510" on="1"/>
        <pt x="-35" y="510" on="1"/>
      </contour>
      <contour>
        <pt x="260" y="66" on="1"/>
        <pt x="296" y="66" on="0"/>
        <pt x="336" y="103" on="0"/>
        <pt x="336" y="143" on="1"/>
        <pt x="336" y="298" on="1"/>
        <pt x="211" y="298" on="1"/>
        <pt x="168" y="298" on="0"/>
        <pt x="126" y="251" on="0"/>
        <pt x="126" y="216" on="1"/>
        <pt x="126" y="183" on="0"/>
        <pt x="149" y="128" on="0"/>
        <pt x="187" y="88" on="0"/>
        <pt x="235" y="66" on="0"/>
      </contour>
      <contour>
        <pt x="832" y="-232" on="1"/>
        <pt x="787" y="-285" on="1"/>
        <pt x="567" y="-121" on="1"/>
        <pt x="619" y="-55" on="1"/>
      </contour>
      <contour>
        <pt x="-24" y="-20" on="1"/>
        <pt x="-24" y="2" on="0"/>
        <pt x="7" y="34" on="0"/>
        <pt x="30" y="34" on="1"/>
        <pt x="53" y="34" on="0"/>
        <pt x="83" y="1" on="0"/>
        <pt x="83" y="-20" on="1"/>
        <pt x="83" y="-42" on="0"/>
        <pt x="53" y="-72" on="0"/>
        <pt x="30" y="-72" on="1"/>
        <pt x="7" y="-72" on="0"/>
        <pt x="-24" y="-43" on="0"/>
      </contour>
    </TTGlyph>
    <TTGlyph name="Gsmall" xMin="43" yMin="-10" xMax="456" yMax="480">
      <contour>
        <pt x="303" y="68" on="1"/>
        <pt x="320" y="68" on="0"/>
        <pt x="354" y="72" on="0"/>
        <pt x="368" y="77" on="1"/>
        <pt x="368" y="181" on="1"/>
        <pt x="279" y="181" on="1"/>
        <pt x="279" y="256" on="1"/>
        <pt x="456" y="256" on="1"/>
        <pt x="456" y="18" on="1"/>
        <pt x="424" y="4" on="0"/>
        <pt x="340" y="-10" on="0"/>
        <pt x="296" y="-10" on="1"/>
        <pt x="242" y="-10" on="0"/>
        <pt x="150" y="21" on="0"/>
        <pt x="82" y="82" on="0"/>
        <pt x="43" y="173" on="0"/>
        <pt x="43" y="234" on="1"/>
        <pt x="43" y="291" on="0"/>
        <pt x="80" y="382" on="0"/>
        <pt x="146" y="446" on="0"/>
        <pt x="239" y="480" on="0"/>
        <pt x="296" y="480" on="1"/>
        <pt x="329" y="480" on="0"/>
        <pt x="404" y="471" on="0"/>
        <pt x="442" y="454" on="1"/>
        <pt x="420" y="379" on="1"/>
        <pt x="396" y="392" on="0"/>
        <pt x="336" y="403" on="0"/>
        <pt x="307" y="403" on="1"/>
        <pt x="233" y="403" on="0"/>
        <pt x="148" y="315" on="0"/>
        <pt x="148" y="237" on="1"/>
        <pt x="148" y="189" on="0"/>
        <pt x="174" y="124" on="0"/>
        <pt x="218" y="85" on="0"/>
        <pt x="273" y="68" on="0"/>
      </contour>
    </TTGlyph>
    <TTGlyph name="H" xMin="76" yMin="0" xMax="569" yMax="630">
      <contour>
        <pt x="76" y="0" on="1"/>
        <pt x="76" y="630" on="1"/>
        <pt x="183" y="630" on="1"/>
        <pt x="183" y="370" on="1"/>
        <pt x="462" y="370" on="1"/>
        <pt x="462" y="630" on="1"/>
        <pt x="569" y="630" on="1"/>
        <pt x="569" y="0" on="1"/>
        <pt x="462" y="0" on="1"/>
        <pt x="462" y="282" on="1"/>
        <pt x="183" y="282" on="1"/>
        <pt x="183" y="0" on="1"/>
      </contour>
    </TTGlyph>
    <TTGlyph name="Ha.gm" xMin="-20" yMin="-8" xMax="564" yMax="582">
      <contour>
        <pt x="-20" y="582" on="1"/>
        <pt x="564" y="582" on="1"/>
        <pt x="564" y="510" on="1"/>
        <pt x="469" y="510" on="1"/>
        <pt x="469" y="158" on="1"/>
        <pt x="469" y="74" on="0"/>
        <pt x="371" y="-8" on="0"/>
        <pt x="283" y="-8" on="1"/>
        <pt x="236" y="-8" on="0"/>
        <pt x="148" y="26" on="0"/>
        <pt x="80" y="86" on="0"/>
        <pt x="38" y="171" on="0"/>
        <pt x="38" y="222" on="1"/>
        <pt x="38" y="258" on="0"/>
        <pt x="63" y="311" on="0"/>
        <pt x="104" y="345" on="0"/>
        <pt x="157" y="361" on="0"/>
        <pt x="184" y="361" on="1"/>
        <pt x="256" y="361" on="1"/>
        <pt x="256" y="287" on="1"/>
        <pt x="201" y="287" on="1"/>
        <pt x="167" y="287" on="0"/>
        <pt x="126" y="251" on="0"/>
        <pt x="126" y="216" on="1"/>
        <pt x="126" y="183" on="0"/>
        <pt x="155" y="127" on="0"/>
        <pt x="201" y="88" on="0"/>
        <pt x="258" y="66" on="0"/>
        <pt x="285" y="66" on="1"/>
        <pt x="328" y="66" on="0"/>
        <pt x="380" y="108" on="0"/>
        <pt x="380" y="159" on="1"/>
        <pt x="380" y="510" on="1"/>
        <pt x="-20" y="510" on="1"/>
      </contour>
    </TTGlyph>
    <TTGlyph name="HaVirama.gm" xMin="-20" yMin="-285" xMax="600" yMax="582">
      <contour>
        <pt x="-20" y="582" on="1"/>
        <pt x="564" y="582" on="1"/>
        <pt x="564" y="510" on="1"/>
        <pt x="469" y="510" on="1"/>
        <pt x="469" y="158" on="1"/>
        <pt x="469" y="74" on="0"/>
        <pt x="371" y="-8" on="0"/>
        <pt x="283" y="-8" on="1"/>
        <pt x="236" y="-8" on="0"/>
        <pt x="148" y="26" on="0"/>
        <pt x="80" y="86" on="0"/>
        <pt x="38" y="171" on="0"/>
        <pt x="38" y="222" on="1"/>
        <pt x="38" y="258" on="0"/>
        <pt x="63" y="311" on="0"/>
        <pt x="104" y="345" on="0"/>
        <pt x="157" y="361" on="0"/>
        <pt x="184" y="361" on="1"/>
        <pt x="256" y="361" on="1"/>
        <pt x="256" y="287" on="1"/>
        <pt x="201" y="287" on="1"/>
        <pt x="167" y="287" on="0"/>
        <pt x="126" y="251" on="0"/>
        <pt x="126" y="216" on="1"/>
        <pt x="126" y="183" on="0"/>
        <pt x="155" y="127" on="0"/>
        <pt x="201" y="88" on="0"/>
        <pt x="258" y="66" on="0"/>
        <pt x="285" y="66" on="1"/>
        <pt x="328" y="66" on="0"/>
        <pt x="380" y="108" on="0"/>
        <pt x="380" y="159" on="1"/>
        <pt x="380" y="510" on="1"/>
        <pt x="-20" y="510" on="1"/>
      </contour>
      <contour>
        <pt x="600" y="-232" on="1"/>
        <pt x="555" y="-285" on="1"/>
        <pt x="335" y="-121" on="1"/>
        <pt x="387" y="-55" on="1"/>
      </contour>
    </TTGlyph>
    <TTGlyph name="Hbar" xMin="20" yMin="0" xMax="633" yMax="630">
      <contour>
        <pt x="80" y="0" on="1"/>
        <pt x="80" y="483" on="1"/>
        <pt x="20" y="483" on="1"/>
        <pt x="20" y="552" on="1"/>
        <pt x="80" y="552" on="1"/>
        <pt x="80" y="630" on="1"/>
        <pt x="187" y="630" on="1"/>
        <pt x="187" y="552" on="1"/>
        <pt x="466" y="552" on="1"/>
        <pt x="466" y="630" on="1"/>
        <pt x="573" y="630" on="1"/>
        <pt x="573" y="552" on="1"/>
        <pt x="633" y="552" on="1"/>
        <pt x="633" y="483" on="1"/>
        <pt x="573" y="483" on="1"/>
        <pt x="573" y="0" on="1"/>
        <pt x="466" y="0" on="1"/>
        <pt x="466" y="282" on="1"/>
        <pt x="187" y="282" on="1"/>
        <pt x="187" y="0" on="1"/>
      </contour>
      <contour>
        <pt x="466" y="370" on="1"/>
        <pt x="466" y="483" on="1"/>
        <pt x="187" y="483" on="1"/>
        <pt x="187" y="370" on="1"/>
      </contour>
    </TTGlyph>
    <TTGlyph name="Hcircumflex" xMin="76" yMin="0" xMax="569" yMax="836">
      <contour>
        <pt x="76" y="0" on="1"/>
        <pt x="76" y="630" on="1"/>
        <pt x="183" y="630" on="1"/>
        <pt x="183" y="370" on="1"/>
        <pt x="462" y="370" on="1"/>
        <pt x="462" y="630" on="1"/>
        <pt x="569" y="630" on="1"/>
        <pt x="569" y="0" on="1"/>
        <pt x="462" y="0" on="1"/>
        <pt x="462" y="282" on="1"/>
        <pt x="183" y="282" on="1"/>
        <pt x="183" y="0" on="1"/>
      </contour>
      <contour>
        <pt x="286" y="836" on="1"/>
        <pt x="365" y="836" on="1"/>
        <pt x="487" y="705" on="1"/>
        <pt x="400" y="705" on="1"/>
        <pt x="325" y="784" on="1"/>
        <pt x="250" y="705" on="1"/>
        <pt x="166" y="705" on="1"/>
      </contour>
    </TTGlyph>
    <TTGlyph name="Hsmall" xMin="74" yMin="0" xMax="480" yMax="472">
      <contour>
        <pt x="74" y="0" on="1"/>
        <pt x="74" y="472" on="1"/>
        <pt x="174" y="472" on="1"/>
        <pt x="174" y="288" on="1"/>
        <pt x="379" y="288" on="1"/>
        <pt x="379" y="472" on="1"/>
        <pt x="480" y="472" on="1"/>
        <pt x="480" y="0" on="1"/>
        <pt x="379" y="0" on="1"/>
        <pt x="379" y="207" on="1"/>
        <pt x="174" y="207" on="1"/>
        <pt x="174" y="0" on="1"/>
      </contour>
    </TTGlyph>
    <TTGlyph name="I" xMin="76" yMin="0" xMax="183" yMax="630">
      <contour>
        <pt x="183" y="630" on="1"/>
        <pt x="183" y="0" on="1"/>
        <pt x="76" y="0" on="1"/>
        <pt x="76" y="630" on="1"/>
      </contour>
    </TTGlyph>
    <TTGlyph name="IJ" xMin="76" yMin="-160" xMax="436" yMax="630">
      <contour>
        <pt x="183" y="630" on="1"/>
        <pt x="183" y="0" on="1"/>
        <pt x="76" y="0" on="1"/>
        <pt x="76" y="630" on="1"/>
      </contour>
      <contour>
        <pt x="436" y="630" on="1"/>
        <pt x="436" y="115" on="1"/>
        <pt x="436" y="42" on="0"/>
        <pt x="421" y="-51" on="0"/>
        <pt x="393" y="-86" on="1"/>
        <pt x="362" y="-128" on="0"/>
        <pt x="265" y="-159" on="0"/>
        <pt x="214" y="-160" on="1"/>
        <pt x="214" y="-75" on="1"/>
        <pt x="271" y="-74" on="0"/>
        <pt x="300" y="-41" on="1"/>
        <pt x="318" y="-23" on="0"/>
        <pt x="329" y="34" on="0"/>
        <pt x="329" y="66" on="1"/>
        <pt x="329" y="630" on="1"/>
      </contour>
    </TTGlyph>
    <TTGlyph name="Iacute" xMin="76" yMin="0" xMax="285" yMax="829">
      <contour>
        <pt x="183" y="630" on="1"/>
        <pt x="183" y="0" on="1"/>
        <pt x="76" y="0" on="1"/>
        <pt x="76" y="630" on="1"/>
      </contour>
      <contour>
        <pt x="173" y="705" on="1"/>
        <pt x="88" y="705" on="1"/>
        <pt x="168" y="829" on="1"/>
        <pt x="285" y="829" on="1"/>
      </contour>
    </TTGlyph>
    <TTGlyph name="Ibreve" xMin="-4" yMin="0" xMax="265" yMax="829">
      <contour>
        <pt x="183" y="630" on="1"/>
        <pt x="183" y="0" on="1"/>
        <pt x="76" y="0" on="1"/>
        <pt x="76" y="630" on="1"/>
      </contour>
      <contour>
        <pt x="64" y="829" on="1"/>
        <pt x="67" y="799" on="0"/>
        <pt x="94" y="764" on="0"/>
        <pt x="132" y="764" on="1"/>
        <pt x="164" y="764" on="0"/>
        <pt x="195" y="797" on="0"/>
        <pt x="198" y="829" on="1"/>
        <pt x="265" y="829" on="1"/>
        <pt x="265" y="773" on="0"/>
        <pt x="196" y="704" on="0"/>
        <pt x="131" y="704" on="1"/>
        <pt x="95" y="704" on="0"/>
        <pt x="44" y="725" on="0"/>
        <pt x="11" y="760" on="0"/>
        <pt x="-4" y="805" on="0"/>
        <pt x="-4" y="829" on="1"/>
      </contour>
    </TTGlyph>
    <TTGlyph name="Icircumflex" xMin="-29" yMin="0" xMax="292" yMax="836">
      <contour>
        <pt x="183" y="630" on="1"/>
        <pt x="183" y="0" on="1"/>
        <pt x="76" y="0" on="1"/>
        <pt x="76" y="630" on="1"/>
      </contour>
      <contour>
        <pt x="91" y="836" on="1"/>
        <pt x="170" y="836" on="1"/>
        <pt x="292" y="705" on="1"/>
        <pt x="205" y="705" on="1"/>
        <pt x="130" y="784" on="1"/>
        <pt x="55" y="705" on="1"/>
        <pt x="-29" y="705" on="1"/>
      </contour>
    </TTGlyph>
    <TTGlyph name="Idieresis" xMin="-14" yMin="0" xMax="270" yMax="811">
      <contour>
        <pt x="183" y="630" on="1"/>
        <pt x="183" y="0" on="1"/>
        <pt x="76" y="0" on="1"/>
        <pt x="76" y="630" on="1"/>
      </contour>
      <contour>
        <pt x="-14" y="758" on="1"/>
        <pt x="-14" y="779" on="0"/>
        <pt x="18" y="811" on="0"/>
        <pt x="40" y="811" on="1"/>
        <pt x="63" y="811" on="0"/>
        <pt x="95" y="779" on="0"/>
        <pt x="95" y="758" on="1"/>
        <pt x="95" y="735" on="0"/>
        <pt x="63" y="702" on="0"/>
        <pt x="40" y="702" on="1"/>
        <pt x="18" y="702" on="0"/>
        <pt x="-14" y="735" on="0"/>
      </contour>
      <contour>
        <pt x="162" y="758" on="1"/>
        <pt x="162" y="779" on="0"/>
        <pt x="193" y="811" on="0"/>
        <pt x="216" y="811" on="1"/>
        <pt x="239" y="811" on="0"/>
        <pt x="270" y="779" on="0"/>
        <pt x="270" y="758" on="1"/>
        <pt x="270" y="735" on="0"/>
        <pt x="239" y="702" on="0"/>
        <pt x="216" y="702" on="1"/>
        <pt x="193" y="702" on="0"/>
        <pt x="162" y="735" on="0"/>
      </contour>
    </TTGlyph>
    <TTGlyph name="Idotaccent" xMin="69" yMin="0" xMax="187" yMax="820">
      <contour>
        <pt x="183" y="630" on="1"/>
        <pt x="183" y="0" on="1"/>
        <pt x="76" y="0" on="1"/>
        <pt x="76" y="630" on="1"/>
      </contour>
      <contour>
        <pt x="69" y="762" on="1"/>
        <pt x="69" y="785" on="0"/>
        <pt x="105" y="820" on="0"/>
        <pt x="128" y="820" on="1"/>
        <pt x="153" y="820" on="0"/>
        <pt x="187" y="785" on="0"/>
        <pt x="187" y="762" on="1"/>
        <pt x="187" y="737" on="0"/>
        <pt x="153" y="702" on="0"/>
        <pt x="128" y="702" on="1"/>
        <pt x="105" y="702" on="0"/>
        <pt x="69" y="737" on="0"/>
      </contour>
    </TTGlyph>
    <TTGlyph name="Igrave" xMin="-26" yMin="0" xMax="183" yMax="829">
      <contour>
        <pt x="183" y="630" on="1"/>
        <pt x="183" y="0" on="1"/>
        <pt x="76" y="0" on="1"/>
        <pt x="76" y="630" on="1"/>
      </contour>
      <contour>
        <pt x="-26" y="829" on="1"/>
        <pt x="91" y="829" on="1"/>
        <pt x="171" y="705" on="1"/>
        <pt x="86" y="705" on="1"/>
      </contour>
    </TTGlyph>
    <TTGlyph name="Imacron" xMin="7" yMin="0" xMax="256" yMax="772">
      <contour>
        <pt x="183" y="630" on="1"/>
        <pt x="183" y="0" on="1"/>
        <pt x="76" y="0" on="1"/>
        <pt x="76" y="630" on="1"/>
      </contour>
      <contour>
        <pt x="256" y="772" on="1"/>
        <pt x="256" y="705" on="1"/>
        <pt x="7" y="705" on="1"/>
        <pt x="7" y="772" on="1"/>
      </contour>
    </TTGlyph>
    <TTGlyph name="Iogonek" xMin="8" yMin="-206" xMax="197" yMax="630">
      <contour>
        <pt x="183" y="630" on="1"/>
        <pt x="183" y="0" on="1"/>
        <pt x="162" y="0" on="1"/>
        <pt x="127" y="-20" on="0"/>
        <pt x="83" y="-64" on="0"/>
        <pt x="83" y="-90" on="1"/>
        <pt x="83" y="-113" on="0"/>
        <pt x="112" y="-139" on="0"/>
        <pt x="135" y="-139" on="1"/>
        <pt x="149" y="-139" on="0"/>
        <pt x="173" y="-134" on="0"/>
        <pt x="182" y="-131" on="1"/>
        <pt x="197" y="-185" on="1"/>
        <pt x="162" y="-206" on="0"/>
        <pt x="115" y="-206" on="1"/>
        <pt x="69" y="-206" on="0"/>
        <pt x="8" y="-153" on="0"/>
        <pt x="8" y="-106" on="1"/>
        <pt x="8" y="-68" on="0"/>
        <pt x="51" y="-14" on="0"/>
        <pt x="76" y="0" on="1"/>
        <pt x="76" y="630" on="1"/>
      </contour>
    </TTGlyph>
    <TTGlyph name="Iri.gm" xMin="-30" yMin="-8" xMax="583" yMax="582">
      <contour>
        <pt x="-30" y="582" on="1"/>
        <pt x="583" y="582" on="1"/>
        <pt x="583" y="510" on="1"/>
        <pt x="482" y="510" on="1"/>
        <pt x="482" y="273" on="1"/>
        <pt x="311" y="273" on="1"/>
        <pt x="256" y="273" on="0"/>
        <pt x="161" y="229" on="0"/>
        <pt x="128" y="181" on="1"/>
        <pt x="141" y="158" on="0"/>
        <pt x="181" y="116" on="0"/>
        <pt x="234" y="84" on="0"/>
        <pt x="298" y="66" on="0"/>
        <pt x="336" y="66" on="1"/>
        <pt x="387" y="66" on="0"/>
        <pt x="458" y="96" on="0"/>
        <pt x="478" y="110" on="1"/>
        <pt x="516" y="51" on="1"/>
        <pt x="490" y="28" on="0"/>
        <pt x="396" y="-8" on="0"/>
        <pt x="334" y="-8" on="1"/>
        <pt x="284" y="-8" on="0"/>
        <pt x="193" y="17" on="0"/>
        <pt x="115" y="65" on="0"/>
        <pt x="55" y="135" on="0"/>
        <pt x="36" y="180" on="1"/>
        <pt x="67" y="238" on="0"/>
        <pt x="144" y="302" on="0"/>
        <pt x="178" y="317" on="1"/>
        <pt x="130" y="342" on="0"/>
        <pt x="69" y="447" on="0"/>
        <pt x="61" y="510" on="1"/>
        <pt x="-30" y="510" on="1"/>
      </contour>
      <contour>
        <pt x="395" y="346" on="1"/>
        <pt x="395" y="510" on="1"/>
        <pt x="149" y="510" on="1"/>
        <pt x="152" y="480" on="0"/>
        <pt x="176" y="422" on="0"/>
        <pt x="215" y="377" on="0"/>
        <pt x="268" y="347" on="0"/>
        <pt x="300" y="346" on="1"/>
      </contour>
    </TTGlyph>
    <TTGlyph name="Ismall" xMin="74" yMin="0" xMax="177" yMax="472">
      <contour>
        <pt x="177" y="472" on="1"/>
        <pt x="177" y="0" on="1"/>
        <pt x="74" y="0" on="1"/>
        <pt x="74" y="472" on="1"/>
      </contour>
    </TTGlyph>
    <TTGlyph name="Itilde" xMin="-27" yMin="0" xMax="276" yMax="821">
      <contour>
        <pt x="183" y="630" on="1"/>
        <pt x="183" y="0" on="1"/>
        <pt x="76" y="0" on="1"/>
        <pt x="76" y="630" on="1"/>
      </contour>
      <contour>
        <pt x="-27" y="706" on="1"/>
        <pt x="-27" y="753" on="0"/>
        <pt x="16" y="818" on="0"/>
        <pt x="61" y="818" on="1"/>
        <pt x="81" y="818" on="0"/>
        <pt x="113" y="805" on="0"/>
        <pt x="142" y="790" on="0"/>
        <pt x="169" y="777" on="0"/>
        <pt x="184" y="777" on="1"/>
        <pt x="202" y="777" on="0"/>
        <pt x="219" y="804" on="0"/>
        <pt x="221" y="821" on="1"/>
        <pt x="276" y="821" on="1"/>
        <pt x="276" y="799" on="0"/>
        <pt x="265" y="758" on="0"/>
        <pt x="244" y="727" on="0"/>
        <pt x="212" y="709" on="0"/>
        <pt x="191" y="709" on="1"/>
        <pt x="170" y="709" on="0"/>
        <pt x="135" y="721" on="0"/>
        <pt x="103" y="736" on="0"/>
        <pt x="77" y="749" on="0"/>
        <pt x="65" y="749" on="1"/>
        <pt x="45" y="749" on="0"/>
        <pt x="29" y="724" on="0"/>
        <pt x="28" y="706" on="1"/>
      </contour>
    </TTGlyph>
    <TTGlyph name="J" xMin="-16" yMin="-160" xMax="206" yMax="630">
      <contour>
        <pt x="206" y="630" on="1"/>
        <pt x="206" y="115" on="1"/>
        <pt x="206" y="42" on="0"/>
        <pt x="190" y="-51" on="0"/>
        <pt x="163" y="-86" on="1"/>
        <pt x="131" y="-128" on="0"/>
        <pt x="35" y="-159" on="0"/>
        <pt x="-16" y="-160" on="1"/>
        <pt x="-16" y="-75" on="1"/>
        <pt x="13" y="-74" on="0"/>
        <pt x="55" y="-57" on="0"/>
        <pt x="70" y="-41" on="1"/>
        <pt x="88" y="-23" on="0"/>
        <pt x="99" y="34" on="0"/>
        <pt x="99" y="66" on="1"/>
        <pt x="99" y="630" on="1"/>
      </contour>
    </TTGlyph>
    <TTGlyph name="Ja.gm" xMin="-20" yMin="0" xMax="615" yMax="582">
      <contour>
        <pt x="-20" y="582" on="1"/>
        <pt x="615" y="582" on="1"/>
        <pt x="615" y="510" on="1"/>
        <pt x="514" y="510" on="1"/>
        <pt x="514" y="0" on="1"/>
        <pt x="426" y="0" on="1"/>
        <pt x="426" y="254" on="1"/>
        <pt x="190" y="254" on="1"/>
        <pt x="190" y="0" on="1"/>
        <pt x="102" y="0" on="1"/>
        <pt x="102" y="252" on="1"/>
        <pt x="76" y="254" on="0"/>
        <pt x="37" y="283" on="0"/>
        <pt x="37" y="314" on="1"/>
        <pt x="37" y="333" on="0"/>
        <pt x="54" y="367" on="0"/>
        <pt x="81" y="391" on="0"/>
        <pt x="117" y="405" on="0"/>
        <pt x="136" y="405" on="1"/>
        <pt x="156" y="405" on="0"/>
        <pt x="182" y="398" on="0"/>
        <pt x="190" y="392" on="1"/>
        <pt x="190" y="328" on="1"/>
        <pt x="426" y="328" on="1"/>
        <pt x="426" y="510" on="1"/>
        <pt x="-20" y="510" on="1"/>
      </contour>
    </TTGlyph>
    <TTGlyph name="JaVirama.gm" xMin="-23" yMin="-285" xMax="687" yMax="582">
      <contour>
        <pt x="-23" y="582" on="1"/>
        <pt x="612" y="582" on="1"/>
        <pt x="612" y="510" on="1"/>
        <pt x="511" y="510" on="1"/>
        <pt x="511" y="0" on="1"/>
        <pt x="423" y="0" on="1"/>
        <pt x="423" y="254" on="1"/>
        <pt x="187" y="254" on="1"/>
        <pt x="187" y="0" on="1"/>
        <pt x="99" y="0" on="1"/>
        <pt x="99" y="252" on="1"/>
        <pt x="73" y="254" on="0"/>
        <pt x="34" y="283" on="0"/>
        <pt x="34" y="314" on="1"/>
        <pt x="34" y="333" on="0"/>
        <pt x="51" y="367" on="0"/>
        <pt x="78" y="391" on="0"/>
        <pt x="114" y="405" on="0"/>
        <pt x="133" y="405" on="1"/>
        <pt x="153" y="405" on="0"/>
        <pt x="179" y="398" on="0"/>
        <pt x="187" y="392" on="1"/>
        <pt x="187" y="328" on="1"/>
        <pt x="423" y="328" on="1"/>
        <pt x="423" y="510" on="1"/>
        <pt x="-23" y="510" on="1"/>
      </contour>
      <contour>
        <pt x="687" y="-232" on="1"/>
        <pt x="642" y="-285" on="1"/>
        <pt x="422" y="-121" on="1"/>
        <pt x="474" y="-55" on="1"/>
      </contour>
    </TTGlyph>
    <TTGlyph name="Jcircumflex" xMin="-16" yMin="-160" xMax="315" yMax="836">
      <contour>
        <pt x="206" y="630" on="1"/>
        <pt x="206" y="115" on="1"/>
        <pt x="206" y="42" on="0"/>
        <pt x="190" y="-51" on="0"/>
        <pt x="163" y="-86" on="1"/>
        <pt x="131" y="-128" on="0"/>
        <pt x="35" y="-159" on="0"/>
        <pt x="-16" y="-160" on="1"/>
        <pt x="-16" y="-75" on="1"/>
        <pt x="13" y="-74" on="0"/>
        <pt x="55" y="-57" on="0"/>
        <pt x="70" y="-41" on="1"/>
        <pt x="88" y="-23" on="0"/>
        <pt x="99" y="34" on="0"/>
        <pt x="99" y="66" on="1"/>
        <pt x="99" y="630" on="1"/>
      </contour>
      <contour>
        <pt x="114" y="836" on="1"/>
        <pt x="193" y="836" on="1"/>
        <pt x="315" y="705" on="1"/>
        <pt x="228" y="705" on="1"/>
        <pt x="153" y="784" on="1"/>
        <pt x="78" y="705" on="1"/>
        <pt x="-6" y="705" on="1"/>
      </contour>
    </TTGlyph>
    <TTGlyph name="Jha.gm" xMin="-40" yMin="-104" xMax="574" yMax="582">
      <contour>
        <pt x="405" y="199" on="1"/>
        <pt x="405" y="245" on="0"/>
        <pt x="327" y="309" on="0"/>
        <pt x="247" y="309" on="1"/>
        <pt x="197" y="309" on="0"/>
        <pt x="103" y="290" on="0"/>
        <pt x="71" y="282" on="1"/>
        <pt x="53" y="352" on="1"/>
        <pt x="69" y="357" on="0"/>
        <pt x="112" y="365" on="0"/>
        <pt x="132" y="368" on="1"/>
        <pt x="106" y="388" on="0"/>
        <pt x="60" y="459" on="0"/>
        <pt x="49" y="510" on="1"/>
        <pt x="-40" y="510" on="1"/>
        <pt x="-40" y="582" on="1"/>
        <pt x="574" y="582" on="1"/>
        <pt x="574" y="510" on="1"/>
        <pt x="489" y="510" on="1"/>
        <pt x="479" y="449" on="0"/>
        <pt x="417" y="368" on="0"/>
        <pt x="383" y="348" on="1"/>
        <pt x="435" y="330" on="0"/>
        <pt x="494" y="246" on="0"/>
        <pt x="494" y="195" on="1"/>
        <pt x="494" y="153" on="0"/>
        <pt x="457" y="89" on="0"/>
        <pt x="394" y="45" on="0"/>
        <pt x="309" y="22" on="0"/>
        <pt x="261" y="21" on="1"/>
        <pt x="317" y="-73" on="1"/>
        <pt x="240" y="-104" on="1"/>
        <pt x="180" y="20" on="1"/>
        <pt x="120" y="27" on="0"/>
        <pt x="58" y="85" on="0"/>
        <pt x="58" y="122" on="1"/>
        <pt x="58" y="156" on="0"/>
        <pt x="103" y="193" on="0"/>
        <pt x="132" y="193" on="1"/>
        <pt x="139" y="193" on="0"/>
        <pt x="150" y="193" on="0"/>
        <pt x="158" y="191" on="1"/>
        <pt x="222" y="95" on="1"/>
        <pt x="229" y="94" on="0"/>
        <pt x="243" y="93" on="0"/>
        <pt x="248" y="93" on="1"/>
        <pt x="320" y="93" on="0"/>
        <pt x="405" y="151" on="0"/>
      </contour>
      <contour>
        <pt x="138" y="510" on="1"/>
        <pt x="150" y="455" on="0"/>
        <pt x="215" y="381" on="0"/>
        <pt x="264" y="379" on="1"/>
        <pt x="270" y="379" on="1"/>
        <pt x="319" y="379" on="0"/>
        <pt x="388" y="453" on="0"/>
        <pt x="399" y="510" on="1"/>
      </contour>
    </TTGlyph>
    <TTGlyph name="JhaVirama.gm" xMin="-40" yMin="-285" xMax="605" yMax="582">
      <contour>
        <pt x="405" y="199" on="1"/>
        <pt x="405" y="245" on="0"/>
        <pt x="327" y="309" on="0"/>
        <pt x="247" y="309" on="1"/>
        <pt x="197" y="309" on="0"/>
        <pt x="103" y="290" on="0"/>
        <pt x="71" y="282" on="1"/>
        <pt x="53" y="352" on="1"/>
        <pt x="69" y="357" on="0"/>
        <pt x="112" y="365" on="0"/>
        <pt x="132" y="368" on="1"/>
        <pt x="106" y="388" on="0"/>
        <pt x="60" y="459" on="0"/>
        <pt x="49" y="510" on="1"/>
        <pt x="-40" y="510" on="1"/>
        <pt x="-40" y="582" on="1"/>
        <pt x="574" y="582" on="1"/>
        <pt x="574" y="510" on="1"/>
        <pt x="489" y="510" on="1"/>
        <pt x="479" y="449" on="0"/>
        <pt x="417" y="368" on="0"/>
        <pt x="383" y="348" on="1"/>
        <pt x="435" y="330" on="0"/>
        <pt x="494" y="246" on="0"/>
        <pt x="494" y="195" on="1"/>
        <pt x="494" y="153" on="0"/>
        <pt x="457" y="89" on="0"/>
        <pt x="394" y="45" on="0"/>
        <pt x="309" y="22" on="0"/>
        <pt x="261" y="21" on="1"/>
        <pt x="317" y="-73" on="1"/>
        <pt x="240" y="-104" on="1"/>
        <pt x="180" y="20" on="1"/>
        <pt x="120" y="27" on="0"/>
        <pt x="58" y="85" on="0"/>
        <pt x="58" y="122" on="1"/>
        <pt x="58" y="156" on="0"/>
        <pt x="103" y="193" on="0"/>
        <pt x="132" y="193" on="1"/>
        <pt x="139" y="193" on="0"/>
        <pt x="150" y="193" on="0"/>
        <pt x="158" y="191" on="1"/>
        <pt x="222" y="95" on="1"/>
        <pt x="229" y="94" on="0"/>
        <pt x="243" y="93" on="0"/>
        <pt x="248" y="93" on="1"/>
        <pt x="320" y="93" on="0"/>
        <pt x="405" y="151" on="0"/>
      </contour>
      <contour>
        <pt x="138" y="510" on="1"/>
        <pt x="150" y="455" on="0"/>
        <pt x="215" y="381" on="0"/>
        <pt x="264" y="379" on="1"/>
        <pt x="270" y="379" on="1"/>
        <pt x="319" y="379" on="0"/>
        <pt x="388" y="453" on="0"/>
        <pt x="399" y="510" on="1"/>
      </contour>
      <contour>
        <pt x="605" y="-232" on="1"/>
        <pt x="560" y="-285" on="1"/>
        <pt x="340" y="-121" on="1"/>
        <pt x="392" y="-55" on="1"/>
      </contour>
    </TTGlyph>
    <TTGlyph name="Jsmall" xMin="-4" yMin="-168" xMax="182" yMax="472">
      <contour>
        <pt x="182" y="472" on="1"/>
        <pt x="182" y="73" on="1"/>
        <pt x="182" y="20" on="0"/>
        <pt x="172" y="-62" on="0"/>
        <pt x="151" y="-96" on="1"/>
        <pt x="125" y="-138" on="0"/>
        <pt x="46" y="-168" on="0"/>
        <pt x="-4" y="-168" on="1"/>
        <pt x="-4" y="-86" on="1"/>
        <pt x="13" y="-86" on="0"/>
        <pt x="51" y="-73" on="0"/>
        <pt x="62" y="-53" on="1"/>
        <pt x="73" y="-35" on="0"/>
        <pt x="79" y="22" on="0"/>
        <pt x="79" y="44" on="1"/>
        <pt x="79" y="472" on="1"/>
      </contour>
    </TTGlyph>
    <TTGlyph name="K" xMin="76" yMin="0" xMax="585" yMax="630">
      <contour>
        <pt x="76" y="0" on="1"/>
        <pt x="76" y="630" on="1"/>
        <pt x="183" y="630" on="1"/>
        <pt x="183" y="352" on="1"/>
        <pt x="432" y="630" on="1"/>
        <pt x="565" y="630" on="1"/>
        <pt x="313" y="352" on="1"/>
        <pt x="585" y="0" on="1"/>
        <pt x="451" y="0" on="1"/>
        <pt x="236" y="282" on="1"/>
        <pt x="183" y="225" on="1"/>
        <pt x="183" y="0" on="1"/>
      </contour>
    </TTGlyph>
    <TTGlyph name="Ka.gm" xMin="-30" yMin="0" xMax="608" yMax="582">
      <contour>
        <pt x="-30" y="582" on="1"/>
        <pt x="608" y="582" on="1"/>
        <pt x="608" y="510" on="1"/>
        <pt x="524" y="510" on="1"/>
        <pt x="522" y="438" on="0"/>
        <pt x="487" y="301" on="0"/>
        <pt x="457" y="248" on="1"/>
        <pt x="467" y="227" on="0"/>
        <pt x="490" y="170" on="0"/>
        <pt x="509" y="106" on="0"/>
        <pt x="523" y="35" on="0"/>
        <pt x="526" y="0" on="1"/>
        <pt x="437" y="0" on="1"/>
        <pt x="432" y="48" on="0"/>
        <pt x="412" y="141" on="0"/>
        <pt x="401" y="177" on="1"/>
        <pt x="372" y="146" on="0"/>
        <pt x="280" y="98" on="0"/>
        <pt x="217" y="98" on="1"/>
        <pt x="181" y="98" on="0"/>
        <pt x="114" y="117" on="0"/>
        <pt x="63" y="157" on="0"/>
        <pt x="33" y="218" on="0"/>
        <pt x="33" y="259" on="1"/>
        <pt x="33" y="296" on="0"/>
        <pt x="61" y="355" on="0"/>
        <pt x="111" y="397" on="0"/>
        <pt x="178" y="419" on="0"/>
        <pt x="217" y="419" on="1"/>
        <pt x="277" y="419" on="0"/>
        <pt x="372" y="366" on="0"/>
        <pt x="404" y="324" on="1"/>
        <pt x="417" y="359" on="0"/>
        <pt x="434" y="458" on="0"/>
        <pt x="436" y="510" on="1"/>
        <pt x="-30" y="510" on="1"/>
      </contour>
      <contour>
        <pt x="226" y="172" on="1"/>
        <pt x="277" y="172" on="0"/>
        <pt x="352" y="223" on="0"/>
        <pt x="373" y="254" on="1"/>
        <pt x="344" y="300" on="0"/>
        <pt x="266" y="345" on="0"/>
        <pt x="224" y="345" on="1"/>
        <pt x="171" y="345" on="0"/>
        <pt x="121" y="292" on="0"/>
        <pt x="121" y="259" on="1"/>
        <pt x="121" y="217" on="0"/>
        <pt x="178" y="172" on="0"/>
      </contour>
    </TTGlyph>
    <TTGlyph name="KaVirama.gm" xMin="-30" yMin="-285" xMax="749" yMax="582">
      <contour>
        <pt x="-30" y="582" on="1"/>
        <pt x="608" y="582" on="1"/>
        <pt x="608" y="510" on="1"/>
        <pt x="524" y="510" on="1"/>
        <pt x="522" y="438" on="0"/>
        <pt x="487" y="301" on="0"/>
        <pt x="457" y="248" on="1"/>
        <pt x="467" y="227" on="0"/>
        <pt x="490" y="170" on="0"/>
        <pt x="509" y="106" on="0"/>
        <pt x="523" y="35" on="0"/>
        <pt x="526" y="0" on="1"/>
        <pt x="437" y="0" on="1"/>
        <pt x="432" y="48" on="0"/>
        <pt x="412" y="141" on="0"/>
        <pt x="401" y="177" on="1"/>
        <pt x="372" y="146" on="0"/>
        <pt x="280" y="98" on="0"/>
        <pt x="217" y="98" on="1"/>
        <pt x="181" y="98" on="0"/>
        <pt x="114" y="117" on="0"/>
        <pt x="63" y="157" on="0"/>
        <pt x="33" y="218" on="0"/>
        <pt x="33" y="259" on="1"/>
        <pt x="33" y="296" on="0"/>
        <pt x="61" y="355" on="0"/>
        <pt x="111" y="397" on="0"/>
        <pt x="178" y="419" on="0"/>
        <pt x="217" y="419" on="1"/>
        <pt x="277" y="419" on="0"/>
        <pt x="372" y="366" on="0"/>
        <pt x="404" y="324" on="1"/>
        <pt x="417" y="359" on="0"/>
        <pt x="434" y="458" on="0"/>
        <pt x="436" y="510" on="1"/>
        <pt x="-30" y="510" on="1"/>
      </contour>
      <contour>
        <pt x="226" y="172" on="1"/>
        <pt x="277" y="172" on="0"/>
        <pt x="352" y="223" on="0"/>
        <pt x="373" y="254" on="1"/>
        <pt x="344" y="300" on="0"/>
        <pt x="266" y="345" on="0"/>
        <pt x="224" y="345" on="1"/>
        <pt x="171" y="345" on="0"/>
        <pt x="121" y="292" on="0"/>
        <pt x="121" y="259" on="1"/>
        <pt x="121" y="217" on="0"/>
        <pt x="178" y="172" on="0"/>
      </contour>
      <contour>
        <pt x="749" y="-232" on="1"/>
        <pt x="704" y="-285" on="1"/>
        <pt x="484" y="-121" on="1"/>
        <pt x="536" y="-55" on="1"/>
      </contour>
    </TTGlyph>
    <TTGlyph name="KaViramaRa.gm" xMin="-30" yMin="-239" xMax="691" yMax="582">
      <contour>
        <pt x="-30" y="582" on="1"/>
        <pt x="608" y="582" on="1"/>
        <pt x="608" y="510" on="1"/>
        <pt x="524" y="510" on="1"/>
        <pt x="522" y="439" on="0"/>
        <pt x="488" y="303" on="0"/>
        <pt x="458" y="250" on="1"/>
        <pt x="482" y="208" on="0"/>
        <pt x="522" y="77" on="0"/>
        <pt x="522" y="-24" on="1"/>
        <pt x="522" y="-108" on="1"/>
        <pt x="691" y="-170" on="1"/>
        <pt x="660" y="-239" on="1"/>
        <pt x="494" y="-158" on="1"/>
        <pt x="479" y="-163" on="0"/>
        <pt x="444" y="-171" on="0"/>
        <pt x="424" y="-171" on="1"/>
        <pt x="366" y="-171" on="0"/>
        <pt x="311" y="-126" on="0"/>
        <pt x="311" y="-94" on="1"/>
        <pt x="311" y="-75" on="0"/>
        <pt x="328" y="-47" on="0"/>
        <pt x="337" y="-42" on="1"/>
        <pt x="433" y="-71" on="1"/>
        <pt x="433" y="-24" on="1"/>
        <pt x="433" y="51" on="0"/>
        <pt x="416" y="145" on="0"/>
        <pt x="402" y="179" on="1"/>
        <pt x="374" y="147" on="0"/>
        <pt x="281" y="98" on="0"/>
        <pt x="217" y="98" on="1"/>
        <pt x="181" y="98" on="0"/>
        <pt x="114" y="117" on="0"/>
        <pt x="63" y="157" on="0"/>
        <pt x="33" y="218" on="0"/>
        <pt x="33" y="259" on="1"/>
        <pt x="33" y="296" on="0"/>
        <pt x="61" y="355" on="0"/>
        <pt x="111" y="397" on="0"/>
        <pt x="178" y="419" on="0"/>
        <pt x="217" y="419" on="1"/>
        <pt x="276" y="419" on="0"/>
        <pt x="373" y="367" on="0"/>
        <pt x="405" y="325" on="1"/>
        <pt x="417" y="360" on="0"/>
        <pt x="434" y="458" on="0"/>
        <pt x="436" y="510" on="1"/>
        <pt x="-30" y="510" on="1"/>
      </contour>
      <contour>
        <pt x="226" y="172" on="1"/>
        <pt x="277" y="172" on="0"/>
        <pt x="352" y="223" on="0"/>
        <pt x="373" y="254" on="1"/>
        <pt x="344" y="300" on="0"/>
        <pt x="266" y="345" on="0"/>
        <pt x="224" y="345" on="1"/>
        <pt x="171" y="345" on="0"/>
        <pt x="121" y="292" on="0"/>
        <pt x="121" y="259" on="1"/>
        <pt x="121" y="217" on="0"/>
        <pt x="178" y="172" on="0"/>
      </contour>
    </TTGlyph>
    <TTGlyph name="Kcommaaccent" xMin="76" yMin="-323" xMax="585" yMax="630">
      <contour>
        <pt x="76" y="0" on="1"/>
        <pt x="76" y="630" on="1"/>
        <pt x="183" y="630" on="1"/>
        <pt x="183" y="352" on="1"/>
        <pt x="432" y="630" on="1"/>
        <pt x="565" y="630" on="1"/>
        <pt x="313" y="352" on="1"/>
        <pt x="585" y="0" on="1"/>
        <pt x="451" y="0" on="1"/>
        <pt x="236" y="282" on="1"/>
        <pt x="183" y="225" on="1"/>
        <pt x="183" y="0" on="1"/>
      </contour>
      <contour>
        <pt x="299" y="-187" on="1"/>
        <pt x="281" y="-184" on="0"/>
        <pt x="246" y="-153" on="0"/>
        <pt x="246" y="-126" on="1"/>
        <pt x="246" y="-101" on="0"/>
        <pt x="279" y="-65" on="0"/>
        <pt x="308" y="-65" on="1"/>
        <pt x="320" y="-65" on="0"/>
        <pt x="346" y="-75" on="0"/>
        <pt x="367" y="-97" on="0"/>
        <pt x="381" y="-131" on="0"/>
        <pt x="381" y="-156" on="1"/>
        <pt x="381" y="-181" on="0"/>
        <pt x="364" y="-230" on="0"/>
        <pt x="334" y="-274" on="0"/>
        <pt x="294" y="-311" on="0"/>
        <pt x="271" y="-323" on="1"/>
        <pt x="244" y="-286" on="1"/>
        <pt x="271" y="-269" on="0"/>
        <pt x="314" y="-217" on="0"/>
        <pt x="317" y="-191" on="1"/>
      </contour>
    </TTGlyph>
    <TTGlyph name="Kha.gm" xMin="-30" yMin="0" xMax="602" yMax="582">
      <contour>
        <pt x="138" y="582" on="1"/>
        <pt x="158" y="548" on="0"/>
        <pt x="187" y="462" on="0"/>
        <pt x="187" y="417" on="1"/>
        <pt x="187" y="412" on="0"/>
        <pt x="187" y="401" on="0"/>
        <pt x="186" y="396" on="1"/>
        <pt x="412" y="396" on="1"/>
        <pt x="412" y="582" on="1"/>
        <pt x="602" y="582" on="1"/>
        <pt x="602" y="510" on="1"/>
        <pt x="501" y="510" on="1"/>
        <pt x="501" y="0" on="1"/>
        <pt x="412" y="0" on="1"/>
        <pt x="412" y="132" on="1"/>
        <pt x="388" y="118" on="0"/>
        <pt x="321" y="99" on="0"/>
        <pt x="276" y="99" on="1"/>
        <pt x="193" y="99" on="0"/>
        <pt x="72" y="173" on="0"/>
        <pt x="40" y="230" on="1"/>
        <pt x="65" y="275" on="0"/>
        <pt x="98" y="367" on="0"/>
        <pt x="98" y="420" on="1"/>
        <pt x="98" y="470" on="0"/>
        <pt x="82" y="510" on="1"/>
        <pt x="-30" y="510" on="1"/>
        <pt x="-30" y="582" on="1"/>
      </contour>
      <contour>
        <pt x="279" y="173" on="1"/>
        <pt x="324" y="173" on="0"/>
        <pt x="389" y="199" on="0"/>
        <pt x="412" y="220" on="1"/>
        <pt x="412" y="327" on="1"/>
        <pt x="176" y="327" on="1"/>
        <pt x="170" y="302" on="0"/>
        <pt x="151" y="257" on="0"/>
        <pt x="139" y="234" on="1"/>
        <pt x="159" y="205" on="0"/>
        <pt x="234" y="173" on="0"/>
      </contour>
    </TTGlyph>
    <TTGlyph name="KhaVirama.gm" xMin="-30" yMin="-285" xMax="675" yMax="582">
      <contour>
        <pt x="138" y="582" on="1"/>
        <pt x="158" y="548" on="0"/>
        <pt x="187" y="462" on="0"/>
        <pt x="187" y="417" on="1"/>
        <pt x="187" y="412" on="0"/>
        <pt x="187" y="401" on="0"/>
        <pt x="186" y="396" on="1"/>
        <pt x="412" y="396" on="1"/>
        <pt x="412" y="582" on="1"/>
        <pt x="602" y="582" on="1"/>
        <pt x="602" y="510" on="1"/>
        <pt x="501" y="510" on="1"/>
        <pt x="501" y="0" on="1"/>
        <pt x="412" y="0" on="1"/>
        <pt x="412" y="132" on="1"/>
        <pt x="388" y="118" on="0"/>
        <pt x="321" y="99" on="0"/>
        <pt x="276" y="99" on="1"/>
        <pt x="193" y="99" on="0"/>
        <pt x="72" y="173" on="0"/>
        <pt x="40" y="230" on="1"/>
        <pt x="65" y="275" on="0"/>
        <pt x="98" y="367" on="0"/>
        <pt x="98" y="420" on="1"/>
        <pt x="98" y="470" on="0"/>
        <pt x="82" y="510" on="1"/>
        <pt x="-30" y="510" on="1"/>
        <pt x="-30" y="582" on="1"/>
      </contour>
      <contour>
        <pt x="279" y="173" on="1"/>
        <pt x="324" y="173" on="0"/>
        <pt x="389" y="199" on="0"/>
        <pt x="412" y="220" on="1"/>
        <pt x="412" y="327" on="1"/>
        <pt x="176" y="327" on="1"/>
        <pt x="170" y="302" on="0"/>
        <pt x="151" y="257" on="0"/>
        <pt x="139" y="234" on="1"/>
        <pt x="159" y="205" on="0"/>
        <pt x="234" y="173" on="0"/>
      </contour>
      <contour>
        <pt x="675" y="-232" on="1"/>
        <pt x="630" y="-285" on="1"/>
        <pt x="410" y="-121" on="1"/>
        <pt x="462" y="-55" on="1"/>
      </contour>
    </TTGlyph>
    <TTGlyph name="Khanda.gm" xMin="84" yMin="-39" xMax="711" yMax="696">
      <contour>
        <pt x="361" y="-1" on="1"/>
        <pt x="361" y="18" on="0"/>
        <pt x="376" y="30" on="1"/>
        <pt x="376" y="82" on="1"/>
        <pt x="360" y="74" on="0"/>
        <pt x="332" y="59" on="0"/>
        <pt x="321" y="54" on="1"/>
        <pt x="323" y="52" on="0"/>
        <pt x="327" y="42" on="0"/>
        <pt x="327" y="38" on="1"/>
        <pt x="327" y="24" on="0"/>
        <pt x="308" y="7" on="0"/>
        <pt x="293" y="7" on="1"/>
        <pt x="278" y="7" on="0"/>
        <pt x="259" y="26" on="0"/>
        <pt x="259" y="40" on="1"/>
        <pt x="259" y="62" on="0"/>
        <pt x="284" y="75" on="1"/>
        <pt x="301" y="83" on="0"/>
        <pt x="337" y="101" on="0"/>
        <pt x="358" y="110" on="1"/>
        <pt x="336" y="121" on="0"/>
        <pt x="289" y="148" on="0"/>
        <pt x="269" y="160" on="1"/>
        <pt x="220" y="96" on="1"/>
        <pt x="196" y="129" on="0"/>
        <pt x="148" y="195" on="0"/>
        <pt x="109" y="266" on="0"/>
        <pt x="84" y="344" on="0"/>
        <pt x="84" y="389" on="1"/>
        <pt x="84" y="445" on="0"/>
        <pt x="140" y="542" on="0"/>
        <pt x="199" y="579" on="1"/>
        <pt x="188" y="565" on="0"/>
        <pt x="170" y="538" on="0"/>
        <pt x="157" y="505" on="0"/>
        <pt x="149" y="463" on="0"/>
        <pt x="149" y="435" on="1"/>
        <pt x="149" y="396" on="0"/>
        <pt x="172" y="321" on="0"/>
        <pt x="225" y="249" on="0"/>
        <pt x="313" y="178" on="0"/>
        <pt x="378" y="143" on="1"/>
        <pt x="378" y="194" on="1"/>
        <pt x="348" y="210" on="0"/>
        <pt x="327" y="226" on="1"/>
        <pt x="334" y="242" on="0"/>
        <pt x="338" y="259" on="1"/>
        <pt x="312" y="266" on="0"/>
        <pt x="266" y="296" on="0"/>
        <pt x="231" y="339" on="0"/>
        <pt x="210" y="396" on="0"/>
        <pt x="210" y="431" on="1"/>
        <pt x="210" y="494" on="0"/>
        <pt x="283" y="575" on="0"/>
        <pt x="334" y="592" on="1"/>
        <pt x="331" y="601" on="0"/>
        <pt x="324" y="616" on="0"/>
        <pt x="321" y="623" on="1"/>
        <pt x="347" y="636" on="0"/>
        <pt x="387" y="679" on="0"/>
        <pt x="399" y="696" on="1"/>
        <pt x="411" y="679" on="0"/>
        <pt x="451" y="636" on="0"/>
        <pt x="477" y="623" on="1"/>
        <pt x="473" y="616" on="0"/>
        <pt x="467" y="600" on="0"/>
        <pt x="463" y="591" on="1"/>
        <pt x="515" y="574" on="0"/>
        <pt x="585" y="491" on="0"/>
        <pt x="585" y="431" on="1"/>
        <pt x="585" y="397" on="0"/>
        <pt x="564" y="341" on="0"/>
        <pt x="530" y="299" on="0"/>
        <pt x="483" y="269" on="0"/>
        <pt x="458" y="261" on="1"/>
        <pt x="461" y="251" on="0"/>
        <pt x="468" y="234" on="0"/>
        <pt x="471" y="226" on="1"/>
        <pt x="460" y="218" on="0"/>
        <pt x="429" y="199" on="0"/>
        <pt x="415" y="191" on="1"/>
        <pt x="415" y="142" on="1"/>
        <pt x="481" y="177" on="0"/>
        <pt x="570" y="248" on="0"/>
        <pt x="623" y="321" on="0"/>
        <pt x="646" y="396" on="0"/>
        <pt x="646" y="435" on="1"/>
        <pt x="646" y="463" on="0"/>
        <pt x="638" y="505" on="0"/>
        <pt x="625" y="538" on="0"/>
        <pt x="606" y="565" on="0"/>
        <pt x="596" y="579" on="1"/>
        <pt x="655" y="542" on="0"/>
        <pt x="711" y="445" on="0"/>
        <pt x="711" y="389" on="1"/>
        <pt x="711" y="344" on="0"/>
        <pt x="686" y="266" on="0"/>
        <pt x="647" y="195" on="0"/>
        <pt x="599" y="129" on="0"/>
        <pt x="575" y="96" on="1"/>
        <pt x="526" y="160" on="1"/>
        <pt x="506" y="148" on="0"/>
        <pt x="458" y="121" on="0"/>
        <pt x="436" y="110" on="1"/>
        <pt x="509" y="75" on="1"/>
        <pt x="534" y="62" on="0"/>
        <pt x="534" y="40" on="1"/>
        <pt x="534" y="26" on="0"/>
        <pt x="515" y="7" on="0"/>
        <pt x="500" y="7" on="1"/>
        <pt x="485" y="7" on="0"/>
        <pt x="466" y="24" on="0"/>
        <pt x="466" y="38" on="1"/>
        <pt x="466" y="42" on="0"/>
        <pt x="469" y="52" on="0"/>
        <pt x="471" y="54" on="1"/>
        <pt x="460" y="59" on="0"/>
        <pt x="432" y="74" on="0"/>
        <pt x="416" y="82" on="1"/>
        <pt x="416" y="33" on="1"/>
        <pt x="436" y="21" on="0"/>
        <pt x="436" y="-1" on="1"/>
        <pt x="436" y="-17" on="0"/>
        <pt x="414" y="-39" on="0"/>
        <pt x="399" y="-39" on="1"/>
        <pt x="383" y="-39" on="0"/>
        <pt x="361" y="-17" on="0"/>
      </contour>
      <contour>
        <pt x="274" y="431" on="1"/>
        <pt x="274" y="385" on="0"/>
        <pt x="316" y="325" on="0"/>
        <pt x="351" y="312" on="1"/>
        <pt x="356" y="339" on="0"/>
        <pt x="363" y="400" on="0"/>
        <pt x="363" y="432" on="1"/>
        <pt x="363" y="456" on="0"/>
        <pt x="355" y="513" on="0"/>
        <pt x="348" y="540" on="1"/>
        <pt x="316" y="528" on="0"/>
        <pt x="274" y="472" on="0"/>
      </contour>
      <contour>
        <pt x="522" y="431" on="1"/>
        <pt x="522" y="470" on="0"/>
        <pt x="480" y="526" on="0"/>
        <pt x="448" y="539" on="1"/>
        <pt x="442" y="512" on="0"/>
        <pt x="435" y="456" on="0"/>
        <pt x="435" y="432" on="1"/>
        <pt x="435" y="400" on="0"/>
        <pt x="441" y="339" on="0"/>
        <pt x="446" y="312" on="1"/>
        <pt x="481" y="324" on="0"/>
        <pt x="522" y="384" on="0"/>
      </contour>
    </TTGlyph>
    <TTGlyph name="Khha.gm" xMin="-30" yMin="-26" xMax="602" yMax="582">
      <contour>
        <pt x="138" y="582" on="1"/>
        <pt x="158" y="548" on="0"/>
        <pt x="187" y="462" on="0"/>
        <pt x="187" y="417" on="1"/>
        <pt x="187" y="412" on="0"/>
        <pt x="187" y="401" on="0"/>
        <pt x="186" y="396" on="1"/>
        <pt x="412" y="396" on="1"/>
        <pt x="412" y="582" on="1"/>
        <pt x="602" y="582" on="1"/>
        <pt x="602" y="510" on="1"/>
        <pt x="501" y="510" on="1"/>
        <pt x="501" y="0" on="1"/>
        <pt x="412" y="0" on="1"/>
        <pt x="412" y="132" on="1"/>
        <pt x="388" y="118" on="0"/>
        <pt x="321" y="99" on="0"/>
        <pt x="276" y="99" on="1"/>
        <pt x="193" y="99" on="0"/>
        <pt x="72" y="173" on="0"/>
        <pt x="40" y="230" on="1"/>
        <pt x="65" y="275" on="0"/>
        <pt x="98" y="367" on="0"/>
        <pt x="98" y="420" on="1"/>
        <pt x="98" y="470" on="0"/>
        <pt x="82" y="510" on="1"/>
        <pt x="-30" y="510" on="1"/>
        <pt x="-30" y="582" on="1"/>
      </contour>
      <contour>
        <pt x="279" y="173" on="1"/>
        <pt x="324" y="173" on="0"/>
        <pt x="389" y="199" on="0"/>
        <pt x="412" y="220" on="1"/>
        <pt x="412" y="327" on="1"/>
        <pt x="176" y="327" on="1"/>
        <pt x="170" y="302" on="0"/>
        <pt x="151" y="257" on="0"/>
        <pt x="139" y="234" on="1"/>
        <pt x="159" y="205" on="0"/>
        <pt x="234" y="173" on="0"/>
      </contour>
      <contour>
        <pt x="34" y="26" on="1"/>
        <pt x="34" y="48" on="0"/>
        <pt x="65" y="80" on="0"/>
        <pt x="88" y="80" on="1"/>
        <pt x="111" y="80" on="0"/>
        <pt x="141" y="47" on="0"/>
        <pt x="141" y="26" on="1"/>
        <pt x="141" y="4" on="0"/>
        <pt x="111" y="-26" on="0"/>
        <pt x="88" y="-26" on="1"/>
        <pt x="65" y="-26" on="0"/>
        <pt x="34" y="3" on="0"/>
      </contour>
    </TTGlyph>
    <TTGlyph name="KhhaVirama.gm" xMin="-30" yMin="-285" xMax="675" yMax="582">
      <contour>
        <pt x="138" y="582" on="1"/>
        <pt x="158" y="548" on="0"/>
        <pt x="187" y="462" on="0"/>
        <pt x="187" y="417" on="1"/>
        <pt x="187" y="412" on="0"/>
        <pt x="187" y="401" on="0"/>
        <pt x="186" y="396" on="1"/>
        <pt x="412" y="396" on="1"/>
        <pt x="412" y="582" on="1"/>
        <pt x="602" y="582" on="1"/>
        <pt x="602" y="510" on="1"/>
        <pt x="501" y="510" on="1"/>
        <pt x="501" y="0" on="1"/>
        <pt x="412" y="0" on="1"/>
        <pt x="412" y="132" on="1"/>
        <pt x="388" y="118" on="0"/>
        <pt x="321" y="99" on="0"/>
        <pt x="276" y="99" on="1"/>
        <pt x="193" y="99" on="0"/>
        <pt x="72" y="173" on="0"/>
        <pt x="40" y="230" on="1"/>
        <pt x="65" y="275" on="0"/>
        <pt x="98" y="367" on="0"/>
        <pt x="98" y="420" on="1"/>
        <pt x="98" y="470" on="0"/>
        <pt x="82" y="510" on="1"/>
        <pt x="-30" y="510" on="1"/>
        <pt x="-30" y="582" on="1"/>
      </contour>
      <contour>
        <pt x="279" y="173" on="1"/>
        <pt x="324" y="173" on="0"/>
        <pt x="389" y="199" on="0"/>
        <pt x="412" y="220" on="1"/>
        <pt x="412" y="327" on="1"/>
        <pt x="176" y="327" on="1"/>
        <pt x="170" y="302" on="0"/>
        <pt x="151" y="257" on="0"/>
        <pt x="139" y="234" on="1"/>
        <pt x="159" y="205" on="0"/>
        <pt x="234" y="173" on="0"/>
      </contour>
      <contour>
        <pt x="21" y="26" on="1"/>
        <pt x="21" y="48" on="0"/>
        <pt x="52" y="80" on="0"/>
        <pt x="75" y="80" on="1"/>
        <pt x="98" y="80" on="0"/>
        <pt x="128" y="47" on="0"/>
        <pt x="128" y="26" on="1"/>
        <pt x="128" y="4" on="0"/>
        <pt x="98" y="-26" on="0"/>
        <pt x="75" y="-26" on="1"/>
        <pt x="52" y="-26" on="0"/>
        <pt x="21" y="3" on="0"/>
      </contour>
      <contour>
        <pt x="675" y="-232" on="1"/>
        <pt x="630" y="-285" on="1"/>
        <pt x="410" y="-121" on="1"/>
        <pt x="462" y="-55" on="1"/>
      </contour>
    </TTGlyph>
    <TTGlyph name="Ksmall" xMin="74" yMin="0" xMax="484" yMax="472">
      <contour>
        <pt x="74" y="0" on="1"/>
        <pt x="74" y="472" on="1"/>
        <pt x="175" y="472" on="1"/>
        <pt x="175" y="274" on="1"/>
        <pt x="345" y="472" on="1"/>
        <pt x="467" y="472" on="1"/>
        <pt x="279" y="265" on="1"/>
        <pt x="484" y="0" on="1"/>
        <pt x="360" y="0" on="1"/>
        <pt x="213" y="204" on="1"/>
        <pt x="175" y="161" on="1"/>
        <pt x="175" y="0" on="1"/>
      </contour>
    </TTGlyph>
    <TTGlyph name="L" xMin="76" yMin="0" xMax="447" yMax="630">
      <contour>
        <pt x="76" y="630" on="1"/>
        <pt x="183" y="630" on="1"/>
        <pt x="183" y="88" on="1"/>
        <pt x="447" y="88" on="1"/>
        <pt x="447" y="0" on="1"/>
        <pt x="76" y="0" on="1"/>
      </contour>
    </TTGlyph>
    <TTGlyph name="La.gm" xMin="-20" yMin="-10" xMax="687" yMax="582">
      <contour>
        <pt x="-20" y="582" on="1"/>
        <pt x="687" y="582" on="1"/>
        <pt x="687" y="510" on="1"/>
        <pt x="525" y="510" on="1"/>
        <pt x="521" y="476" on="0"/>
        <pt x="502" y="407" on="0"/>
        <pt x="491" y="379" on="1"/>
        <pt x="553" y="350" on="0"/>
        <pt x="626" y="254" on="0"/>
        <pt x="626" y="184" on="1"/>
        <pt x="626" y="137" on="0"/>
        <pt x="591" y="68" on="0"/>
        <pt x="536" y="21" on="0"/>
        <pt x="466" y="-6" on="0"/>
        <pt x="431" y="-10" on="1"/>
        <pt x="410" y="58" on="1"/>
        <pt x="468" y="70" on="0"/>
        <pt x="538" y="136" on="0"/>
        <pt x="538" y="191" on="1"/>
        <pt x="538" y="230" on="0"/>
        <pt x="491" y="290" on="0"/>
        <pt x="454" y="310" on="1"/>
        <pt x="430" y="272" on="0"/>
        <pt x="364" y="205" on="0"/>
        <pt x="333" y="186" on="1"/>
        <pt x="295" y="207" on="0"/>
        <pt x="231" y="271" on="0"/>
        <pt x="207" y="308" on="1"/>
        <pt x="172" y="289" on="0"/>
        <pt x="129" y="230" on="0"/>
        <pt x="129" y="190" on="1"/>
        <pt x="129" y="136" on="0"/>
        <pt x="199" y="70" on="0"/>
        <pt x="258" y="59" on="1"/>
        <pt x="238" y="-10" on="1"/>
        <pt x="199" y="-7" on="0"/>
        <pt x="128" y="21" on="0"/>
        <pt x="73" y="69" on="0"/>
        <pt x="40" y="139" on="0"/>
        <pt x="40" y="185" on="1"/>
        <pt x="40" y="251" on="0"/>
        <pt x="108" y="345" on="0"/>
        <pt x="168" y="376" on="1"/>
        <pt x="157" y="404" on="0"/>
        <pt x="140" y="473" on="0"/>
        <pt x="135" y="510" on="1"/>
        <pt x="-20" y="510" on="1"/>
      </contour>
      <contour>
        <pt x="333" y="276" on="1"/>
        <pt x="375" y="318" on="0"/>
        <pt x="427" y="438" on="0"/>
        <pt x="434" y="510" on="1"/>
        <pt x="224" y="510" on="1"/>
        <pt x="243" y="360" on="0"/>
      </contour>
    </TTGlyph>
    <TTGlyph name="LaVirama.gm" xMin="-20" yMin="-285" xMax="700" yMax="582">
      <contour>
        <pt x="-20" y="582" on="1"/>
        <pt x="687" y="582" on="1"/>
        <pt x="687" y="510" on="1"/>
        <pt x="525" y="510" on="1"/>
        <pt x="521" y="476" on="0"/>
        <pt x="502" y="407" on="0"/>
        <pt x="491" y="379" on="1"/>
        <pt x="553" y="350" on="0"/>
        <pt x="626" y="254" on="0"/>
        <pt x="626" y="184" on="1"/>
        <pt x="626" y="137" on="0"/>
        <pt x="591" y="68" on="0"/>
        <pt x="536" y="21" on="0"/>
        <pt x="466" y="-6" on="0"/>
        <pt x="431" y="-10" on="1"/>
        <pt x="410" y="58" on="1"/>
        <pt x="468" y="70" on="0"/>
        <pt x="538" y="136" on="0"/>
        <pt x="538" y="191" on="1"/>
        <pt x="538" y="230" on="0"/>
        <pt x="491" y="290" on="0"/>
        <pt x="454" y="310" on="1"/>
        <pt x="430" y="272" on="0"/>
        <pt x="364" y="205" on="0"/>
        <pt x="333" y="186" on="1"/>
        <pt x="295" y="207" on="0"/>
        <pt x="231" y="271" on="0"/>
        <pt x="207" y="308" on="1"/>
        <pt x="172" y="289" on="0"/>
        <pt x="129" y="230" on="0"/>
        <pt x="129" y="190" on="1"/>
        <pt x="129" y="136" on="0"/>
        <pt x="199" y="70" on="0"/>
        <pt x="258" y="59" on="1"/>
        <pt x="238" y="-10" on="1"/>
        <pt x="199" y="-7" on="0"/>
        <pt x="128" y="21" on="0"/>
        <pt x="73" y="69" on="0"/>
        <pt x="40" y="139" on="0"/>
        <pt x="40" y="185" on="1"/>
        <pt x="40" y="251" on="0"/>
        <pt x="108" y="345" on="0"/>
        <pt x="168" y="376" on="1"/>
        <pt x="157" y="404" on="0"/>
        <pt x="140" y="473" on="0"/>
        <pt x="135" y="510" on="1"/>
        <pt x="-20" y="510" on="1"/>
      </contour>
      <contour>
        <pt x="333" y="276" on="1"/>
        <pt x="375" y="318" on="0"/>
        <pt x="427" y="438" on="0"/>
        <pt x="434" y="510" on="1"/>
        <pt x="224" y="510" on="1"/>
        <pt x="243" y="360" on="0"/>
      </contour>
      <contour>
        <pt x="700" y="-232" on="1"/>
        <pt x="655" y="-285" on="1"/>
        <pt x="435" y="-121" on="1"/>
        <pt x="487" y="-55" on="1"/>
      </contour>
    </TTGlyph>
    <TTGlyph name="Lacute" xMin="76" yMin="0" xMax="447" yMax="829">
      <contour>
        <pt x="76" y="630" on="1"/>
        <pt x="183" y="630" on="1"/>
        <pt x="183" y="88" on="1"/>
        <pt x="447" y="88" on="1"/>
        <pt x="447" y="0" on="1"/>
        <pt x="76" y="0" on="1"/>
      </contour>
      <contour>
        <pt x="171" y="705" on="1"/>
        <pt x="86" y="705" on="1"/>
        <pt x="166" y="829" on="1"/>
        <pt x="283" y="829" on="1"/>
      </contour>
    </TTGlyph>
    <TTGlyph name="Lcaron" xMin="76" yMin="0" xMax="447" yMax="741">
      <contour>
        <pt x="76" y="630" on="1"/>
        <pt x="183" y="630" on="1"/>
        <pt x="183" y="88" on="1"/>
        <pt x="447" y="88" on="1"/>
        <pt x="447" y="0" on="1"/>
        <pt x="76" y="0" on="1"/>
      </contour>
      <contour>
        <pt x="316" y="619" on="1"/>
        <pt x="298" y="622" on="0"/>
        <pt x="263" y="653" on="0"/>
        <pt x="263" y="680" on="1"/>
        <pt x="263" y="705" on="0"/>
        <pt x="296" y="741" on="0"/>
        <pt x="325" y="741" on="1"/>
        <pt x="337" y="741" on="0"/>
        <pt x="363" y="731" on="0"/>
        <pt x="384" y="709" on="0"/>
        <pt x="398" y="675" on="0"/>
        <pt x="398" y="650" on="1"/>
        <pt x="398" y="625" on="0"/>
        <pt x="381" y="576" on="0"/>
        <pt x="351" y="532" on="0"/>
        <pt x="310" y="495" on="0"/>
        <pt x="287" y="483" on="1"/>
        <pt x="260" y="520" on="1"/>
        <pt x="288" y="537" on="0"/>
        <pt x="331" y="589" on="0"/>
        <pt x="334" y="615" on="1"/>
      </contour>
    </TTGlyph>
    <TTGlyph name="Lcommaaccent" xMin="76" yMin="-323" xMax="447" yMax="630">
      <contour>
        <pt x="76" y="630" on="1"/>
        <pt x="183" y="630" on="1"/>
        <pt x="183" y="88" on="1"/>
        <pt x="447" y="88" on="1"/>
        <pt x="447" y="0" on="1"/>
        <pt x="76" y="0" on="1"/>
      </contour>
      <contour>
        <pt x="247" y="-187" on="1"/>
        <pt x="229" y="-184" on="0"/>
        <pt x="194" y="-153" on="0"/>
        <pt x="194" y="-126" on="1"/>
        <pt x="194" y="-101" on="0"/>
        <pt x="227" y="-65" on="0"/>
        <pt x="256" y="-65" on="1"/>
        <pt x="268" y="-65" on="0"/>
        <pt x="294" y="-75" on="0"/>
        <pt x="315" y="-97" on="0"/>
        <pt x="329" y="-131" on="0"/>
        <pt x="329" y="-156" on="1"/>
        <pt x="329" y="-181" on="0"/>
        <pt x="312" y="-230" on="0"/>
        <pt x="282" y="-274" on="0"/>
        <pt x="241" y="-311" on="0"/>
        <pt x="218" y="-323" on="1"/>
        <pt x="191" y="-286" on="1"/>
        <pt x="218" y="-269" on="0"/>
        <pt x="262" y="-217" on="0"/>
        <pt x="265" y="-191" on="1"/>
      </contour>
    </TTGlyph>
    <TTGlyph name="Ldot" xMin="76" yMin="0" xMax="447" yMax="630">
      <contour>
        <pt x="76" y="630" on="1"/>
        <pt x="183" y="630" on="1"/>
        <pt x="183" y="88" on="1"/>
        <pt x="447" y="88" on="1"/>
        <pt x="447" y="0" on="1"/>
        <pt x="76" y="0" on="1"/>
      </contour>
      <contour>
        <pt x="257" y="336" on="1"/>
        <pt x="257" y="363" on="0"/>
        <pt x="292" y="401" on="0"/>
        <pt x="319" y="401" on="1"/>
        <pt x="343" y="401" on="0"/>
        <pt x="378" y="363" on="0"/>
        <pt x="378" y="336" on="1"/>
        <pt x="378" y="310" on="0"/>
        <pt x="343" y="272" on="0"/>
        <pt x="319" y="272" on="1"/>
        <pt x="292" y="272" on="0"/>
        <pt x="257" y="310" on="0"/>
      </contour>
    </TTGlyph>
    <TTGlyph name="Lla.gm" xMin="-35" yMin="-69" xMax="689" yMax="582">
      <contour>
        <pt x="-35" y="582" on="1"/>
        <pt x="689" y="582" on="1"/>
        <pt x="689" y="510" on="1"/>
        <pt x="527" y="510" on="1"/>
        <pt x="523" y="476" on="0"/>
        <pt x="504" y="407" on="0"/>
        <pt x="493" y="379" on="1"/>
        <pt x="555" y="350" on="0"/>
        <pt x="628" y="254" on="0"/>
        <pt x="628" y="184" on="1"/>
        <pt x="628" y="137" on="0"/>
        <pt x="593" y="68" on="0"/>
        <pt x="538" y="21" on="0"/>
        <pt x="468" y="-6" on="0"/>
        <pt x="433" y="-10" on="1"/>
        <pt x="412" y="58" on="1"/>
        <pt x="470" y="70" on="0"/>
        <pt x="540" y="136" on="0"/>
        <pt x="540" y="191" on="1"/>
        <pt x="540" y="230" on="0"/>
        <pt x="493" y="290" on="0"/>
        <pt x="456" y="310" on="1"/>
        <pt x="432" y="272" on="0"/>
        <pt x="366" y="205" on="0"/>
        <pt x="335" y="186" on="1"/>
        <pt x="297" y="207" on="0"/>
        <pt x="233" y="271" on="0"/>
        <pt x="209" y="308" on="1"/>
        <pt x="174" y="289" on="0"/>
        <pt x="131" y="230" on="0"/>
        <pt x="131" y="190" on="1"/>
        <pt x="131" y="136" on="0"/>
        <pt x="201" y="70" on="0"/>
        <pt x="260" y="59" on="1"/>
        <pt x="240" y="-10" on="1"/>
        <pt x="201" y="-7" on="0"/>
        <pt x="130" y="21" on="0"/>
        <pt x="75" y="69" on="0"/>
        <pt x="42" y="139" on="0"/>
        <pt x="42" y="185" on="1"/>
        <pt x="42" y="251" on="0"/>
        <pt x="110" y="345" on="0"/>
        <pt x="170" y="376" on="1"/>
        <pt x="159" y="404" on="0"/>
        <pt x="142" y="473" on="0"/>
        <pt x="137" y="510" on="1"/>
        <pt x="-35" y="510" on="1"/>
      </contour>
      <contour>
        <pt x="335" y="276" on="1"/>
        <pt x="377" y="318" on="0"/>
        <pt x="429" y="438" on="0"/>
        <pt x="436" y="510" on="1"/>
        <pt x="226" y="510" on="1"/>
        <pt x="245" y="360" on="0"/>
      </contour>
      <contour>
        <pt x="-35" y="-17" on="1"/>
        <pt x="-35" y="5" on="0"/>
        <pt x="-4" y="37" on="0"/>
        <pt x="19" y="37" on="1"/>
        <pt x="42" y="37" on="0"/>
        <pt x="72" y="4" on="0"/>
        <pt x="72" y="-17" on="1"/>
        <pt x="72" y="-39" on="0"/>
        <pt x="42" y="-69" on="0"/>
        <pt x="19" y="-69" on="1"/>
        <pt x="-4" y="-69" on="0"/>
        <pt x="-35" y="-40" on="0"/>
      </contour>
    </TTGlyph>
</ttFont>
